SplineFontDB: 3.0
FontName: KacstOffice
FullName: KacstOffice
FamilyName: KacstOffice
Weight: Medium
Copyright: KACST holds the copyright of the included Arabic font which is donated under GPL by KACST. \nURW Design and Development holds the copyright of the included Latin font which is donated under GPL by URW. 
Version: 1
ItalicAngle: 0
UnderlinePosition: -800
UnderlineWidth: 100
Ascent: 1638
Descent: 410
LayerCount: 2
Layer: 0 1 "Back" 
Layer: 1 1 "Fore" 
NeedsXUIDChange: 1
XUID: [1021 864 1361640134 5796362]
FSType: 0
OS2Version: 2
OS2_WeightWidthSlopeOnly: 0
OS2_UseTypoMetrics: 1
CreationTime: 1115665476
ModificationTime: 1215812584
PfmFamily: 17
TTFWeight: 500
TTFWidth: 5
LineGap: 59
VLineGap: 0
Panose: 2 0 0 0 0 0 0 0 0 0
OS2TypoAscent: -38
OS2TypoAOffset: 1
OS2TypoDescent: -190
OS2TypoDOffset: 1
OS2TypoLinegap: 59
OS2WinAscent: -1
OS2WinAOffset: 1
OS2WinDescent: -25
OS2WinDOffset: 1
HheadAscent: -564
HheadAOffset: 1
HheadDescent: 425
HheadDOffset: 1
OS2SubXSize: 1434
OS2SubYSize: 1331
OS2SubXOff: 0
OS2SubYOff: 293
OS2SupXSize: 1434
OS2SupYSize: 1331
OS2SupXOff: 0
OS2SupYOff: 928
OS2StrikeYSize: 102
OS2StrikeYPos: 530
OS2Vendor: 'GLYF'
OS2CodePages: 00000040.00000000
OS2UnicodeRanges: 00002000.00000000.00000000.00000000
Lookup: 1 0 0 "'aalt' Access All Alternates in Latin lookup 0"  {"'aalt' Access All Alternates in Latin lookup 0 subtable"  } ['aalt' ('latn' <'dflt' > ) ]
Lookup: 3 0 0 "'aalt' Access All Alternates in Latin lookup 1"  {"'aalt' Access All Alternates in Latin lookup 1 subtable"  } ['aalt' ('latn' <'dflt' > ) ]
Lookup: 1 1 0 "'isol' Isolated Forms in Arabic lookup 2"  {"'isol' Isolated Forms in Arabic lookup 2 subtable"  } ['isol' ('arab' <'dflt' > ) ]
Lookup: 1 1 0 "'init' Initial Forms in Arabic lookup 3"  {"'init' Initial Forms in Arabic lookup 3 subtable"  } ['init' ('arab' <'dflt' > ) ]
Lookup: 1 1 0 "'medi' Medial Forms in Arabic lookup 4"  {"'medi' Medial Forms in Arabic lookup 4 subtable"  } ['medi' ('arab' <'dflt' > ) ]

StartChar: arabiccomma
Encoding: 1548 1548 1
Width: 403
Flags: W
LayerCount: 2
Fore
SplineSet
277 379 m 1,0,1
 239 351 239 351 207 314 c 128,-1,2
 175 277 175 277 158.5 241 c 128,-1,3
 142 205 142 205 144 174.5 c 128,-1,4
 146 144 146 144 175 130 c 1,5,-1
 177 131 l 1,6,7
 185 138 185 138 192.5 142.5 c 128,-1,8
 200 147 200 147 207 151 c 1,9,-1
 209 153 l 1,10,11
 213 155 213 155 214 156 c 1,12,13
 219 158 219 158 222.5 159.5 c 128,-1,14
 226 161 226 161 229 163 c 1,15,-1
 234 164 l 1,16,-1
 235 164 l 1,17,18
 237 165 237 165 247 165 c 0,19,20
 254 165 254 165 260 164 c 128,-1,21
 266 163 266 163 271 161 c 0,22,23
 274 160 274 160 278 158 c 1,24,25
 279 157 279 157 280 157 c 1,26,27
 283 155 283 155 285.5 153 c 128,-1,28
 288 151 288 151 291 149 c 0,29,30
 295 145 295 145 296 143 c 2,31,32
 297 142 297 142 297.5 141 c 128,-1,33
 298 140 298 140 299 139 c 256,34,35
 300 138 300 138 302 134 c 0,36,37
 305 130 305 130 309 120 c 1,38,-1
 317 82 l 1,39,-1
 317 79 l 2,40,41
 317 74 317 74 316.5 70.5 c 128,-1,42
 316 67 316 67 315 63 c 2,43,44
 315 59 315 59 313 51 c 1,45,46
 312 49 312 49 312 48 c 1,47,-1
 311 46 l 1,48,49
 311 44 311 44 310 43 c 1,50,51
 310 41 310 41 308 37 c 0,52,53
 307 35 307 35 306.5 33.5 c 128,-1,54
 306 32 306 32 305 30 c 0,55,56
 303 26 303 26 299 20 c 0,57,58
 296 14 296 14 291 9 c 0,59,60
 285 3 l 128,-1,61
 282 0 282 0 279 -2 c 0,62,63
 277 -3 277 -3 276.5 -3.5 c 128,-1,64
 276 -4 276 -4 274 -5 c 1,65,66
 272 -7 272 -7 269.5 -8.5 c 128,-1,67
 267 -10 267 -10 264 -11 c 1,68,69
 263 -12 263 -12 263 -22 c 256,70,71
 263 -32 263 -32 262 -32 c 1,72,-1
 262 -12 l 1,73,74
 260 -14 260 -14 257 -14.5 c 128,-1,75
 254 -15 254 -15 252 -16 c 1,76,77
 251 -17 251 -17 249 -17 c 1,78,-1
 244 -19 l 1,79,-1
 241 -19 l 1,80,81
 239 -20 239 -20 236 -20 c 0,82,83
 231 -21 231 -21 221 -21 c 2,84,-1
 208 -21 l 1,85,-1
 199 -19 l 2,86,87
 188 -17 188 -17 179 -13 c 2,88,-1
 173 -10 l 1,89,90
 172 -9 172 -9 168 -7 c 2,91,92
 167 -6 167 -6 163 -4 c 2,93,94
 162 -3 162 -3 161 -2.5 c 128,-1,95
 160 -2 160 -2 158 0 c 0,96,97
 140 15 140 15 128 39 c 2,98,-1
 124 50 l 1,99,-1
 124 49 l 1,100,-1
 122 52 l 1,101,102
 120 60 120 60 119 63 c 2,103,-1
 112 88 l 1,104,-1
 111 98 l 1,105,106
 110 100 110 100 110 106 c 0,107,108
 110 107 110 107 109.5 107.5 c 128,-1,109
 109 108 109 108 109 110 c 2,110,-1
 109 143 l 2,111,112
 109 148 109 148 110 151 c 1,113,-1
 110 156 l 1,114,115
 116 193 116 193 132 230 c 128,-1,116
 148 267 148 267 170 300 c 128,-1,117
 192 333 192 333 219.5 360 c 128,-1,118
 247 387 247 387 276 405 c 1,119,-1
 277 379 l 1,0,1
EndSplineSet
EndChar

StartChar: arabicsemicolon
Encoding: 1563 1563 2
Width: 852
Flags: W
LayerCount: 2
Fore
SplineSet
580 371 m 0,0,1
 580 350 580 350 572.5 330.5 c 128,-1,2
 565 311 565 311 550.5 296.5 c 128,-1,3
 536 282 536 282 515 273 c 128,-1,4
 494 264 494 264 467 264 c 0,5,6
 405 264 405 264 349 335 c 256,7,8
 293 406 293 406 293 500 c 0,9,10
 293 597 293 597 346 668 c 0,11,12
 384 721 384 721 438 749 c 1,13,-1
 469 758 l 1,14,15
 429 732 429 732 398 674 c 0,16,17
 373 618 373 618 373 561 c 0,18,19
 373 506 373 506 406 451 c 1,20,-1
 438 471 l 1,21,22
 448 475 448 475 457.5 477.5 c 128,-1,23
 467 480 467 480 475 481 c 0,24,25
 497 481 497 481 516.5 472 c 128,-1,26
 536 463 536 463 550 448 c 128,-1,27
 564 433 564 433 572 413 c 128,-1,28
 580 393 580 393 580 371 c 0,0,1
539 74 m 0,29,30
 539 56 539 56 532 40.5 c 128,-1,31
 525 25 525 25 513.5 13.5 c 128,-1,32
 502 2 502 2 486.5 -5 c 128,-1,33
 471 -12 471 -12 453 -12 c 0,34,35
 421 -12 421 -12 396 15 c 0,36,37
 371 40 371 40 371 74 c 0,38,39
 371 106 371 106 396 131 c 0,40,41
 421 158 421 158 453 158 c 0,42,43
 486 158 486 158 512 132 c 0,44,45
 539 108 539 108 539 74 c 0,29,30
EndSplineSet
EndChar

StartChar: arabicquestionmark
Encoding: 1567 1567 3
Width: 757
Flags: W
LayerCount: 2
Fore
SplineSet
404 263 m 1,0,1
 398 364 398 364 371 421 c 0,2,3
 343 479 343 479 223 616 c 0,4,5
 145 705 145 705 119 767 c 0,6,7
 92 831 92 831 92 892 c 0,8,9
 92 982 92 982 152 1056 c 0,10,11
 233 1156 233 1156 406 1156 c 0,12,13
 546 1156 546 1156 626 1083 c 0,14,15
 707 1009 707 1009 707 916 c 0,16,17
 707 885 707 885 699 860.5 c 128,-1,18
 691 836 691 836 678 819.5 c 128,-1,19
 665 803 665 803 648.5 794 c 128,-1,20
 632 785 632 785 614 785 c 0,21,22
 587 785 587 785 567.5 805.5 c 128,-1,23
 548 826 548 826 548 856 c 0,24,25
 548 880 548 880 573 924 c 256,26,27
 598 968 598 968 598 1000 c 0,28,29
 598 1040 598 1040 556 1075 c 0,30,31
 516 1109 516 1109 442 1109 c 0,32,33
 360 1109 360 1109 303 1046 c 0,34,35
 247 984 247 984 247 877 c 0,36,37
 247 826 247 826 262 775 c 0,38,39
 270 749 270 749 286 713.5 c 128,-1,40
 302 678 302 678 327 630 c 0,41,42
 359 568 359 568 380.5 520.5 c 128,-1,43
 402 473 402 473 412 438 c 0,44,45
 434 367 434 367 438 263 c 1,46,-1
 404 263 l 1,0,1
416 160 m 0,47,48
 435 160 435 160 452 152.5 c 128,-1,49
 469 145 469 145 481.5 132.5 c 128,-1,50
 494 120 494 120 501.5 102.5 c 128,-1,51
 509 85 509 85 509 66 c 0,52,53
 509 46 509 46 501.5 29.5 c 128,-1,54
 494 13 494 13 481.5 0 c 128,-1,55
 469 -13 469 -13 452 -20 c 128,-1,56
 435 -27 435 -27 416 -27 c 0,57,58
 377 -27 377 -27 349.5 0 c 128,-1,59
 322 27 322 27 322 66 c 256,60,61
 322 105 322 105 349 132.5 c 128,-1,62
 376 160 376 160 416 160 c 0,47,48
EndSplineSet
EndChar

StartChar: hamza
Encoding: 1569 1569 4
Width: 622
Flags: W
AnchorPoint: "ArabicBelow" 311 -373 basechar 0
AnchorPoint: "ArabicAbove" 311 692 basechar 0
LayerCount: 2
Fore
SplineSet
556 177 m 1,0,1
 545 146 545 146 534 118 c 128,-1,2
 523 90 523 90 512 59 c 1,3,-1
 475 58 l 2,4,5
 450 58 450 58 438 54 c 0,6,7
 430 52 430 52 420.5 51 c 128,-1,8
 411 50 411 50 403 48 c 2,9,-1
 384 44 l 1,10,11
 379 42 379 42 374 40.5 c 128,-1,12
 369 39 369 39 364 37 c 1,13,-1
 335 31 l 1,14,-1
 308 23 l 1,15,-1
 283 14 l 1,16,-1
 255 2 l 1,17,-1
 194 -31 l 1,18,-1
 164 -49 l 1,19,-1
 128 -76 l 2,20,21
 100 -100 l 128,-1,22
 86 -112 86 -112 72 -123 c 1,23,24
 72 -113 72 -113 98 -71 c 1,25,-1
 98 -72 l 1,26,27
 143 -18 143 -18 167 1 c 0,28,29
 176 10 176 10 189 18 c 1,30,-1
 189 17 l 1,31,32
 207 27 l 128,-1,33
 216 32 216 32 226 37 c 1,34,-1
 225 37 l 1,35,-1
 261 51 l 1,36,-1
 260 59 l 1,37,-1
 222 59 l 2,38,39
 217 59 217 59 213.5 60 c 128,-1,40
 210 61 210 61 206 61 c 0,41,42
 198 62 198 62 191 63.5 c 128,-1,43
 184 65 184 65 176 66 c 0,44,45
 168 68 168 68 158.5 70.5 c 128,-1,46
 149 73 149 73 141 75 c 0,47,48
 64 100 64 100 64 125 c 0,49,50
 64 230 64 230 159 337 c 0,51,52
 255 442 255 442 379 442 c 0,53,54
 402 442 402 442 431 419 c 1,55,-1
 430 419 l 1,56,57
 439 410 439 410 444 399.5 c 128,-1,58
 449 389 449 389 450 381 c 1,59,60
 437 360 437 360 423.5 339 c 128,-1,61
 410 318 410 318 396 298 c 1,62,-1
 376 315 l 1,63,-1
 351 330 l 1,64,65
 322 342 322 342 271 342 c 0,66,67
 258 342 258 342 238.5 333.5 c 128,-1,68
 219 325 219 325 196 310 c 0,69,70
 174 295 174 295 160 281.5 c 128,-1,71
 146 268 146 268 142 255 c 1,72,73
 142 200 142 200 286 178 c 0,74,75
 341 172 341 172 425 172 c 2,76,-1
 509 172 l 1,77,-1
 556 177 l 1,0,1
EndSplineSet
Substitution2: "'isol' Isolated Forms in Arabic lookup 2 subtable" hamzaisolated
Substitution2: "'aalt' Access All Alternates in Latin lookup 0 subtable" hamzaisolated
EndChar

StartChar: alefwithmaddaabove
Encoding: 1570 1570 5
Width: 499
Flags: W
AnchorPoint: "ArabicBelow" 249 -309 basechar 0
AnchorPoint: "ArabicAbove" 249 1434 basechar 0
LayerCount: 2
Fore
SplineSet
473.706 1183 m 1,0,-1
 473.706 1184 l 1,1,-1
 476.706 1183 l 1,2,-1
 473.706 1183 l 1,0,-1
394.706 1147 m 1,3,4
 455.706 1180 455.706 1180 473.706 1183 c 1,5,6
 475.706 1181 475.706 1181 475.706 1179 c 0,7,8
 475.706 1159 475.706 1159 405.706 1101 c 1,9,-1
 406.706 1101 l 1,10,11
 322.706 1035 322.706 1035 261.706 1035 c 0,12,13
 168.706 1035 168.706 1035 91.7061 1088 c 1,14,15
 84.7061 1074 84.7061 1074 76.2061 1057.5 c 128,-1,16
 67.7061 1041 67.7061 1041 60.7061 1027 c 0,17,18
 34.7061 976 34.7061 976 19.7061 983 c 1,19,-1
 19.7061 982 l 1,20,21
 13.7061 988 13.7061 988 58.7061 1078 c 0,22,23
 62.7061 1087 62.7061 1087 67.2061 1096.5 c 128,-1,24
 71.7061 1106 71.7061 1106 75.7061 1115 c 1,25,-1
 74.7061 1115 l 1,26,27
 82.7061 1128 82.7061 1128 89.7061 1141 c 128,-1,28
 96.7061 1154 96.7061 1154 104.706 1168 c 1,29,30
 121.706 1157 121.706 1157 136.206 1148 c 128,-1,31
 150.706 1139 150.706 1139 167.706 1131 c 0,32,33
 222.706 1107 222.706 1107 267.706 1107 c 0,34,35
 287.706 1107 287.706 1107 323.206 1116 c 128,-1,36
 358.706 1125 358.706 1125 394.706 1148 c 1,37,-1
 394.706 1147 l 1,3,4
302.706 170 m 2,38,39
 301.706 159 301.706 159 301.206 146.5 c 128,-1,40
 300.706 134 300.706 134 299.706 123 c 0,41,42
 296.706 102 296.706 102 289.706 79 c 2,43,-1
 271.706 19 l 2,44,45
 267.706 9 267.706 9 263.706 -1.5 c 128,-1,46
 259.706 -12 259.706 -12 255.706 -22 c 1,47,-1
 255.706 -21 l 1,48,49
 251.706 -31 251.706 -31 247.706 -40 c 128,-1,50
 243.706 -49 243.706 -49 238.706 -59 c 1,51,52
 237.706 -17 237.706 -17 234.706 28 c 128,-1,53
 231.706 73 231.706 73 226.706 118 c 0,54,55
 221.706 166 221.706 166 215.706 216 c 128,-1,56
 209.706 266 209.706 266 204.706 314 c 0,57,58
 204.706 345 204.706 345 203.706 372 c 128,-1,59
 202.706 399 202.706 399 200.706 423 c 0,60,61
 198.706 449 198.706 449 194.706 478 c 128,-1,62
 190.706 507 190.706 507 184.706 539 c 0,63,64
 179.706 574 179.706 574 173.206 610.5 c 128,-1,65
 166.706 647 166.706 647 161.706 682 c 0,66,67
 157.706 705 157.706 705 172.206 744 c 128,-1,68
 186.706 783 186.706 783 215.706 837 c 0,69,70
 221.706 848 221.706 848 228.206 858.5 c 128,-1,71
 234.706 869 234.706 869 240.706 880 c 0,72,73
 248.706 891 248.706 891 256.706 903.5 c 128,-1,74
 264.706 916 264.706 916 272.706 927 c 1,75,76
 274.706 913 274.706 913 276.206 905 c 128,-1,77
 277.706 897 277.706 897 279.706 883 c 0,78,79
 280.706 863 280.706 863 281.706 839.5 c 128,-1,80
 282.706 816 282.706 816 283.706 796 c 0,81,82
 284.706 768 284.706 768 285.206 734.5 c 128,-1,83
 285.706 701 285.706 701 286.706 672 c 2,84,-1
 289.706 551 l 1,85,-1
 302.706 170 l 2,38,39
EndSplineSet
Substitution2: "'fina' Terminal Forms in Arabic lookup 5 subtable" alefwithmaddaabovefinal
Substitution2: "'isol' Isolated Forms in Arabic lookup 2 subtable" alefwithmaddaaboveisolated
AlternateSubs2: "'aalt' Access All Alternates in Latin lookup 1 subtable" alefwithmaddaaboveisolated alefwithmaddaabovefinal
EndChar

StartChar: alefwithhamzaabove
Encoding: 1571 1571 6
Width: 499
Flags: W
AnchorPoint: "ArabicBelow" 249 -313 basechar 0
AnchorPoint: "ArabicAbove" 249 1488 basechar 0
LayerCount: 2
Fore
SplineSet
378 1011 m 1,0,1
 333 1011 333 1011 295 1002.5 c 128,-1,2
 257 994 257 994 218 974 c 0,3,4
 193 960 193 960 168 946.5 c 128,-1,5
 143 933 143 933 117 919 c 1,6,7
 124 926 124 926 128 931 c 128,-1,8
 132 936 132 936 136 939.5 c 128,-1,9
 140 943 140 943 144 947.5 c 128,-1,10
 148 952 148 952 155 960 c 1,11,-1
 154 960 l 1,12,-1
 239 1015 l 1,13,-1
 176 1016 l 2,14,15
 172 1016 172 1016 167 1016.5 c 128,-1,16
 162 1017 162 1017 157 1017 c 1,17,18
 152 1019 152 1019 145.5 1020 c 128,-1,19
 139 1021 139 1021 134 1023 c 0,20,21
 116 1029 116 1029 102.5 1038 c 128,-1,22
 89 1047 89 1047 82 1060 c 1,23,24
 83 1086 83 1086 97 1114 c 128,-1,25
 111 1142 111 1142 134 1170 c 0,26,27
 164 1202 164 1202 200.5 1219.5 c 128,-1,28
 237 1237 237 1237 278 1238 c 1,29,-1
 311 1232 l 2,30,31
 328 1229 328 1229 328 1204 c 0,32,33
 328 1193 328 1193 323 1186 c 1,34,35
 321 1181 321 1181 320.5 1178 c 128,-1,36
 320 1175 320 1175 318 1170 c 1,37,-1
 319 1171 l 1,38,39
 317 1169 317 1169 315.5 1165 c 128,-1,40
 314 1161 314 1161 312 1158 c 1,41,42
 298 1174 298 1174 281.5 1180.5 c 128,-1,43
 265 1187 265 1187 242 1187 c 0,44,45
 225 1187 225 1187 176 1175 c 0,46,47
 138 1162 138 1162 127 1132 c 1,48,-1
 127 1133 l 1,49,50
 120 1120 120 1120 132 1105 c 1,51,52
 140 1098 140 1098 153.5 1092.5 c 128,-1,53
 167 1087 167 1087 184 1080 c 0,54,55
 250 1062 250 1062 414 1062 c 1,56,-1
 378 1011 l 1,0,1
306 170 m 2,57,58
 305 159 305 159 304.5 146.5 c 128,-1,59
 304 134 304 134 303 123 c 0,60,61
 300 102 300 102 293 79 c 2,62,-1
 275 19 l 2,63,64
 271 9 271 9 267 -1.5 c 128,-1,65
 263 -12 263 -12 259 -22 c 1,66,-1
 259 -21 l 1,67,68
 254 -31 254 -31 249.5 -41.5 c 128,-1,69
 245 -52 245 -52 240 -63 c 1,70,71
 235 -12 235 -12 232 32.5 c 128,-1,72
 229 77 229 77 224 128 c 0,73,74
 220 172 220 172 216 217.5 c 128,-1,75
 212 263 212 263 208 308 c 0,76,77
 207 326 207 326 206.5 347.5 c 128,-1,78
 206 369 206 369 205 387 c 2,79,-1
 204 418 l 1,80,-1
 194 485 l 2,81,82
 187 531 187 531 179.5 577.5 c 128,-1,83
 172 624 172 624 165 671 c 1,84,-1
 165 670 l 1,85,86
 159 717 159 717 219 826 c 0,87,88
 225 837 225 837 239 859.5 c 128,-1,89
 253 882 253 882 276 917 c 1,90,91
 278 903 278 903 279.5 895.5 c 128,-1,92
 281 888 281 888 283 874 c 0,93,94
 284 854 284 854 285 831 c 128,-1,95
 286 808 286 808 287 788 c 0,96,97
 288 758 288 758 288.5 727 c 128,-1,98
 289 696 289 696 290 666 c 2,99,-1
 293 547 l 1,100,-1
 306 170 l 2,57,58
EndSplineSet
Substitution2: "'fina' Terminal Forms in Arabic lookup 5 subtable" alefwithhamzaabovefinal
Substitution2: "'isol' Isolated Forms in Arabic lookup 2 subtable" alefwithhamzaaboveisolated
AlternateSubs2: "'aalt' Access All Alternates in Latin lookup 1 subtable" alefwithhamzaaboveisolated alefwithhamzaabovefinal
EndChar

StartChar: wawwithhamzaabove
Encoding: 1572 1572 7
Width: 770
Flags: W
AnchorPoint: "ArabicBelow" 385 -616 basechar 0
AnchorPoint: "ArabicAbove" 385 1139 basechar 0
LayerCount: 2
Fore
SplineSet
655 258 m 2,0,1
 647 315 647 315 625 345.5 c 128,-1,2
 603 376 603 376 569 379 c 0,3,4
 521 379 521 379 499 287 c 1,5,6
 501 277 501 277 509.5 264.5 c 128,-1,7
 518 252 518 252 534 238 c 1,8,-1
 551 230 l 1,9,-1
 576 222 l 1,10,-1
 600 220 l 2,11,12
 637 220 637 220 655 256 c 1,13,-1
 655 258 l 2,0,1
666 711 m 1,14,15
 665 708 665 708 663.5 706 c 128,-1,16
 662 704 662 704 660 701 c 2,17,-1
 643 679 l 1,18,-1
 627 658 l 1,19,-1
 615 637 l 1,20,21
 598 637 598 637 577 634 c 128,-1,22
 556 631 556 631 530 624 c 0,23,24
 475 613 475 613 447 591 c 1,25,-1
 447 592 l 1,26,27
 424 579 424 579 404.5 562.5 c 128,-1,28
 385 546 385 546 368 527 c 0,29,30
 366 525 366 525 362 523 c 1,31,32
 358 531 358 531 358 537 c 1,33,-1
 364 567 l 1,34,35
 367 575 367 575 373 586 c 128,-1,36
 379 597 379 597 385 605 c 1,37,38
 389 608 389 608 393.5 611.5 c 128,-1,39
 398 615 398 615 403 619 c 1,40,-1
 442 637 l 1,41,42
 432 639 432 639 415.5 643.5 c 128,-1,43
 399 648 399 648 389 650 c 1,44,45
 381 653 381 653 374 656.5 c 128,-1,46
 367 660 367 660 362 665 c 1,47,48
 342 679 342 679 342 706 c 0,49,50
 342 728 342 728 354 757.5 c 128,-1,51
 366 787 366 787 385 818 c 0,52,53
 410 850 410 850 441.5 869.5 c 128,-1,54
 473 889 473 889 507 889 c 0,55,56
 524 889 524 889 526 887 c 1,57,58
 535 887 535 887 549 877 c 0,59,60
 574 863 574 863 574 835 c 1,61,62
 568 823 568 823 561 810 c 128,-1,63
 554 797 554 797 548 785 c 1,64,65
 534 799 534 799 503 811 c 2,66,-1
 483 816 l 1,67,-1
 461 821 l 1,68,69
 450 821 450 821 444 820 c 128,-1,70
 438 819 438 819 436 818 c 2,71,-1
 413 804 l 2,72,73
 391 791 391 791 389 775 c 0,74,75
 389 749 389 749 439 717 c 0,76,77
 459 707 459 707 476 702.5 c 128,-1,78
 493 698 493 698 505 698 c 2,79,-1
 561 701 l 2,80,81
 581 703 581 703 600 705 c 128,-1,82
 619 707 619 707 639 709 c 2,83,-1
 666 711 l 1,14,15
736 233 m 0,84,85
 736 151 736 151 704.5 55 c 128,-1,86
 673 -41 673 -41 616 -142 c 0,87,88
 552 -250 552 -250 479.5 -308 c 128,-1,89
 407 -366 407 -366 332 -366 c 2,90,-1
 292 -363 l 2,91,92
 281 -361 281 -361 270.5 -358 c 128,-1,93
 260 -355 260 -355 250 -353 c 0,94,95
 226 -346 226 -346 197.5 -334.5 c 128,-1,96
 169 -323 169 -323 139 -305 c 0,97,98
 33 -256 33 -256 33 -234 c 0,99,100
 33 -230 33 -230 43 -225 c 1,101,-1
 155 -258 l 1,102,-1
 198 -270 l 1,103,-1
 243 -277 l 1,104,105
 303 -277 303 -277 368.5 -243 c 128,-1,106
 434 -209 434 -209 508 -140 c 0,107,108
 604 -45 604 -45 691 103 c 1,109,-1
 665 189 l 1,110,111
 655 172 655 172 647 158.5 c 128,-1,112
 639 145 639 145 634 138 c 0,113,114
 625 124 625 124 602 110 c 0,115,116
 573 91 573 91 546 91 c 0,117,118
 510 91 510 91 471 135 c 1,119,-1
 471 134 l 1,120,121
 437 180 437 180 437 229 c 2,122,-1
 440 272 l 2,123,124
 442 282 l 128,-1,125
 444 292 l 2,126,-1
 451 316 l 2,127,128
 461 354 461 354 496 413 c 0,129,130
 523 460 523 460 548.5 488 c 128,-1,131
 574 516 574 516 591 516 c 256,132,133
 608 516 608 516 630.5 496.5 c 128,-1,134
 653 477 653 477 679 440 c 0,135,136
 706 392 706 392 721 339 c 128,-1,137
 736 286 736 286 736 233 c 0,84,85
EndSplineSet
Substitution2: "'fina' Terminal Forms in Arabic lookup 5 subtable" wawwithhamzaabovefinal
Substitution2: "'isol' Isolated Forms in Arabic lookup 2 subtable" wawwithhamzaaboveisolated
AlternateSubs2: "'aalt' Access All Alternates in Latin lookup 1 subtable" wawwithhamzaaboveisolated wawwithhamzaabovefinal
EndChar

StartChar: alefwithhamzabelow
Encoding: 1573 1573 8
Width: 473
Flags: W
AnchorPoint: "ArabicBelow" 236 -644 basechar 0
AnchorPoint: "ArabicAbove" 236 1386 basechar 0
LayerCount: 2
Fore
SplineSet
362 -306 m 1,0,1
 314 -306 314 -306 263.5 -320.5 c 128,-1,2
 213 -335 213 -335 164 -361 c 2,3,-1
 118 -385 l 2,4,5
 115 -387 115 -387 111.5 -389.5 c 128,-1,6
 108 -392 108 -392 104 -394 c 1,7,-1
 105 -393 l 2,8,9
 113 -385 113 -385 122.5 -374.5 c 128,-1,10
 132 -364 132 -364 140 -356 c 1,11,-1
 173 -337 l 1,12,-1
 225 -302 l 1,13,-1
 192 -302 l 1,14,-1
 165 -300 l 2,15,16
 155 -300 155 -300 125 -291 c 0,17,18
 86 -281 86 -281 73 -258 c 1,19,20
 74 -234 74 -234 87 -206.5 c 128,-1,21
 100 -179 100 -179 123 -151 c 0,22,23
 153 -118 153 -118 189 -99.5 c 128,-1,24
 225 -81 225 -81 265 -81 c 0,25,26
 284 -81 284 -81 295 -85 c 0,27,28
 312 -94 312 -94 312 -116 c 0,29,30
 312 -127 312 -127 307 -134 c 0,31,32
 305 -138 305 -138 304.5 -141 c 128,-1,33
 304 -144 304 -144 302 -148 c 1,34,-1
 302 -147 l 1,35,36
 300 -150 300 -150 298.5 -153 c 128,-1,37
 297 -156 297 -156 295 -160 c 1,38,39
 270 -133 270 -133 229 -133 c 0,40,41
 201 -133 201 -133 153 -150 c 0,42,43
 133 -158 133 -158 116 -186 c 1,44,-1
 114 -195 l 1,45,46
 114 -219 114 -219 178 -238 c 0,47,48
 236 -256 236 -256 396 -256 c 1,49,-1
 362 -306 l 1,0,1
308 206 m 1,50,51
 308 164 308 164 296 116 c 2,52,-1
 278 55 l 2,53,54
 274 45 274 45 270 34.5 c 128,-1,55
 266 24 266 24 262 14 c 1,56,-1
 262 15 l 1,57,58
 257 4 257 4 252.5 -6.5 c 128,-1,59
 248 -17 248 -17 243 -28 c 1,60,61
 238 17 238 17 235 56 c 128,-1,62
 232 95 232 95 227 140 c 2,63,-1
 211 305 l 1,64,-1
 192 494 l 2,65,66
 180 612 180 612 169 709 c 128,-1,67
 158 806 158 806 147 886 c 1,68,-1
 147 885 l 1,69,70
 143 909 143 909 157.5 948 c 128,-1,71
 172 987 172 987 201 1041 c 0,72,73
 208 1053 208 1053 216.5 1067.5 c 128,-1,74
 225 1082 225 1082 233 1094 c 0,75,76
 239 1103 239 1103 246 1114.5 c 128,-1,77
 253 1126 253 1126 260 1136 c 1,78,79
 262 1134 262 1134 261 1133 c 128,-1,80
 260 1132 260 1132 261 1125 c 0,81,82
 262 1120 262 1120 263 1114.5 c 128,-1,83
 264 1109 264 1109 265 1104 c 0,84,85
 266 1089 266 1089 267 1073.5 c 128,-1,86
 268 1058 268 1058 269 1043 c 2,87,-1
 271 997 l 1,88,-1
 274 936 l 1,89,-1
 276 877 l 2,90,91
 278 844 278 844 279.5 810 c 128,-1,92
 281 776 281 776 283 743 c 0,93,94
 285 691 l 128,-1,95
 287 639 l 2,96,-1
 290 533 l 2,97,98
 294 479 l 128,-1,99
 296 452 296 452 298 424 c 2,100,-1
 299 349 l 1,101,-1
 299 318 l 1,102,-1
 301 286 l 1,103,-1
 302 248 l 1,104,-1
 308 206 l 1,50,51
EndSplineSet
Substitution2: "'fina' Terminal Forms in Arabic lookup 5 subtable" alefwithhamzabelowfinal
Substitution2: "'isol' Isolated Forms in Arabic lookup 2 subtable" alefwithhamzabelowisolated
AlternateSubs2: "'aalt' Access All Alternates in Latin lookup 1 subtable" alefwithhamzabelowisolated alefwithhamzabelowfinal
EndChar

StartChar: yehwithhamzaabove
Encoding: 1574 1574 9
Width: 1198
Flags: W
AnchorPoint: "ArabicBelow" 599 -603 basechar 0
AnchorPoint: "ArabicAbove" 599 1216 basechar 0
LayerCount: 2
Fore
SplineSet
623 785 m 1,0,1
 621 781 621 781 620.5 779.5 c 128,-1,2
 620 778 620 778 618 774 c 1,3,-1
 618 775 l 1,4,5
 616 770 616 770 613 766 c 128,-1,6
 610 762 610 762 608 757 c 1,7,-1
 609 757 l 1,8,-1
 579 712 l 1,9,10
 563 712 563 712 541 707 c 128,-1,11
 519 702 519 702 492 693 c 2,12,-1
 444 677 l 1,13,-1
 423 669 l 1,14,-1
 405 660 l 2,15,16
 384 650 384 650 366.5 635 c 128,-1,17
 349 620 349 620 333 601 c 0,18,19
 331 599 331 599 325 595 c 1,20,21
 325 602 325 602 327 611.5 c 128,-1,22
 329 621 329 621 332 635 c 1,23,24
 342 655 342 655 362.5 674.5 c 128,-1,25
 383 694 383 694 414 708 c 1,26,27
 365 714 365 714 334 734 c 0,28,29
 304 751 304 751 304 779 c 0,30,31
 304 830 304 830 349 895 c 0,32,33
 374 927 374 927 404.5 946.5 c 128,-1,34
 435 966 435 966 467 966 c 0,35,36
 492 966 492 966 509 950.5 c 128,-1,37
 526 935 526 935 530 912 c 1,38,-1
 523 898 l 2,39,40
 522 895 522 895 521 891.5 c 128,-1,41
 520 888 520 888 519 885 c 1,42,-1
 520 886 l 1,43,44
 516 880 516 880 511.5 874 c 128,-1,45
 507 868 507 868 502 861 c 1,46,47
 492 876 492 876 472 885.5 c 128,-1,48
 452 895 452 895 437 897 c 1,49,-1
 409 894 l 2,50,51
 399 892 399 892 383 882 c 1,52,-1
 383 883 l 1,53,54
 367 876 367 876 355 853 c 1,55,56
 355 825 355 825 399 793 c 2,57,-1
 421 781 l 1,58,-1
 463 771 l 1,59,-1
 526 771 l 1,60,61
 531 772 531 772 536.5 773 c 128,-1,62
 542 774 542 774 547 775 c 2,63,-1
 623 785 l 1,0,1
1111 578 m 2,64,65
 1111 567 1111 567 1108.5 551.5 c 128,-1,66
 1106 536 1106 536 1101 519 c 0,67,68
 1099 514 1099 514 1097.5 508 c 128,-1,69
 1096 502 1096 502 1094 497 c 1,70,71
 1084 502 1084 502 1074 505 c 128,-1,72
 1064 508 1064 508 1050 513 c 2,73,-1
 1030 518 l 1,74,-1
 1000 522 l 2,75,76
 905 522 905 522 797 429 c 0,77,78
 690 337 690 337 690 255 c 0,79,80
 690 214 690 214 746 188 c 0,81,82
 807 167 807 167 896 167 c 0,83,84
 946 167 946 167 983 159.5 c 128,-1,85
 1020 152 1020 152 1042 138 c 0,86,87
 1070 116 1070 116 1070 76 c 0,88,89
 1070 -15 1070 -15 1039 -67 c 0,90,91
 1008 -120 1008 -120 914 -187 c 0,92,93
 862 -225 862 -225 802.5 -255 c 128,-1,94
 743 -285 743 -285 674 -307 c 0,95,96
 607 -329 607 -329 538.5 -341 c 128,-1,97
 470 -353 470 -353 405 -353 c 0,98,99
 337 -353 337 -353 280 -335 c 128,-1,100
 223 -317 223 -317 181 -286 c 0,101,102
 136 -248 136 -248 111.5 -196.5 c 128,-1,103
 87 -145 87 -145 87 -79 c 0,104,105
 87 -26 87 -26 104.5 41 c 128,-1,106
 122 108 122 108 154 180 c 0,107,108
 181 239 181 239 201.5 271 c 128,-1,109
 222 303 222 303 235 303 c 0,110,111
 238 303 238 303 241 295 c 1,112,-1
 207 207 l 2,113,114
 202 192 202 192 195.5 175.5 c 128,-1,115
 189 159 189 159 184 144 c 0,116,117
 173 109 173 109 166.5 76.5 c 128,-1,118
 160 44 160 44 160 18 c 0,119,120
 160 -113 160 -113 266 -177 c 0,121,122
 346 -221 346 -221 504 -221 c 0,123,124
 631 -221 631 -221 817 -137 c 0,125,126
 1006 -53 1006 -53 1006 -7 c 1,127,128
 994 18 994 18 970 35 c 1,129,-1
 931 39 l 1,130,-1
 862 42 l 2,131,132
 799 42 799 42 753.5 49.5 c 128,-1,133
 708 57 708 57 678 71 c 0,134,135
 652 85 652 85 638 113 c 0,136,137
 624 146 624 146 624 184 c 0,138,139
 624 315 624 315 766 490 c 256,140,141
 908 665 908 665 1015 665 c 2,142,-1
 1051 665 l 1,143,144
 1057 664 1057 664 1063.5 663.5 c 128,-1,145
 1070 663 1070 663 1076 662 c 1,146,-1
 1075 662 l 1,147,148
 1111 651 1111 651 1111 612 c 2,149,-1
 1111 578 l 2,64,65
EndSplineSet
Substitution2: "'fina' Terminal Forms in Arabic lookup 5 subtable" yehwithhamzaabovefinal
Substitution2: "'medi' Medial Forms in Arabic lookup 4 subtable" yehwithhamzaabovemedial
Substitution2: "'init' Initial Forms in Arabic lookup 3 subtable" yehwithhamzaaboveinitial
Substitution2: "'isol' Isolated Forms in Arabic lookup 2 subtable" yehwithhamzaaboveisolated
AlternateSubs2: "'aalt' Access All Alternates in Latin lookup 1 subtable" yehwithhamzaaboveisolated yehwithhamzaaboveinitial yehwithhamzaabovemedial yehwithhamzaabovefinal
EndChar

StartChar: arabicalef
Encoding: 1575 1575 10
Width: 463
Flags: W
AnchorPoint: "ArabicBelow" 231 -290 basechar 0
AnchorPoint: "ArabicAbove" 231 1385 basechar 0
LayerCount: 2
Fore
SplineSet
310 190 m 1,0,1
 310 137 310 137 297 98 c 2,2,3
 294 76 294 76 279 37 c 1,4,-1
 279 38 l 1,5,6
 271 19 271 19 263.5 -1 c 128,-1,7
 256 -21 256 -21 248 -40 c 1,8,-1
 246 8 l 1,9,-1
 244 65 l 1,10,-1
 244 102 l 1,11,-1
 240 128 l 2,12,13
 238 145 238 145 235.5 165 c 128,-1,14
 233 185 233 185 231 202 c 0,15,16
 223 271 223 271 215 343 c 128,-1,17
 207 415 207 415 199 484 c 0,18,19
 194 535 194 535 188.5 587 c 128,-1,20
 183 639 183 639 178 690 c 0,21,22
 173 743 173 743 167 794 c 128,-1,23
 161 845 161 845 153 886 c 2,24,-1
 152 897 l 2,25,26
 152 914 152 914 154 920 c 2,27,-1
 163 950 l 2,28,29
 170 970 170 970 180 993 c 128,-1,30
 190 1016 190 1016 205 1041 c 0,31,32
 219 1064 219 1064 233.5 1088 c 128,-1,33
 248 1112 248 1112 262 1135 c 1,34,35
 264 1133 264 1133 263 1132.5 c 128,-1,36
 262 1132 262 1132 263 1125 c 0,37,38
 264 1120 264 1120 265 1114.5 c 128,-1,39
 266 1109 266 1109 267 1104 c 0,40,41
 268 1090 268 1090 269 1074 c 128,-1,42
 270 1058 270 1058 271 1044 c 0,43,44
 272 1025 272 1025 272.5 1001 c 128,-1,45
 273 977 273 977 274 957 c 2,46,-1
 277 873 l 1,47,-1
 279 788 l 1,48,-1
 282 716 l 2,49,50
 285 674 285 674 288 631.5 c 128,-1,51
 291 589 291 589 294 547 c 2,52,-1
 297 473 l 1,53,-1
 300 412 l 1,54,-1
 303 267 l 1,55,-1
 304 224 l 1,56,-1
 310 190 l 1,0,1
EndSplineSet
Substitution2: "'fina' Terminal Forms in Arabic lookup 5 subtable" aleffinal
Substitution2: "'isol' Isolated Forms in Arabic lookup 2 subtable" alefisolated
AlternateSubs2: "'aalt' Access All Alternates in Latin lookup 1 subtable" alefisolated aleffinal
EndChar

StartChar: beh
Encoding: 1576 1576 11
Width: 1276
Flags: W
AnchorPoint: "ArabicBelow" 638 -646 basechar 0
AnchorPoint: "ArabicAbove" 638 813 basechar 0
LayerCount: 2
Fore
SplineSet
741 -286 m 1,0,1
 722 -315 722 -315 706 -341 c 128,-1,2
 690 -367 690 -367 672 -396 c 1,3,4
 632 -372 632 -372 593.5 -349.5 c 128,-1,5
 555 -327 555 -327 514 -303 c 1,6,7
 532 -273 532 -273 548.5 -245.5 c 128,-1,8
 565 -218 565 -218 583 -189 c 1,9,-1
 741 -286 l 1,0,1
1257 201 m 1,10,-1
 1253 176 l 2,11,12
 1252 170 1252 170 1251 163.5 c 128,-1,13
 1250 157 1250 157 1249 151 c 0,14,15
 1247 143 1247 143 1245.5 135 c 128,-1,16
 1244 127 1244 127 1242 120 c 2,17,-1
 1226 53 l 1,18,-1
 1220 23 l 1,19,20
 1218 18 1218 18 1216.5 12 c 128,-1,21
 1215 6 1215 6 1213 0 c 1,22,-1
 337 0 l 2,23,24
 187 0 187 0 105 70 c 0,25,26
 63 107 63 107 40 148 c 0,27,28
 18 196 18 196 18 242 c 0,29,30
 18 271 18 271 33 314 c 128,-1,31
 48 357 48 357 75 411 c 0,32,33
 100 460 100 460 120 488.5 c 128,-1,34
 140 517 140 517 154 522 c 1,35,36
 152 512 152 512 150.5 505.5 c 128,-1,37
 149 499 149 499 147 490 c 1,38,39
 124 439 124 439 111 402 c 128,-1,40
 98 365 98 365 98 351 c 0,41,42
 98 253 98 253 155 196 c 0,43,44
 166 185 166 185 182 175 c 128,-1,45
 198 165 198 165 218 155 c 0,46,47
 261 140 261 140 305 140 c 2,48,-1
 1182 140 l 1,49,50
 1182 168 1182 168 1173 209 c 2,51,-1
 1161 251 l 2,52,53
 1159 257 1159 257 1157.5 262.5 c 128,-1,54
 1156 268 1156 268 1153 272 c 0,55,56
 1151 275 1151 275 1150 279 c 128,-1,57
 1149 283 1149 283 1147 286 c 2,58,59
 1142 300 1142 300 1135.5 313.5 c 128,-1,60
 1129 327 1129 327 1118 347 c 0,61,62
 1107 365 1107 365 1096.5 382 c 128,-1,63
 1086 399 1086 399 1075 417 c 1,64,65
 1094 452 1094 452 1114 490 c 128,-1,66
 1134 528 1134 528 1152 563 c 1,67,68
 1160 551 1160 551 1174 520 c 0,69,70
 1183 501 1183 501 1192 481.5 c 128,-1,71
 1201 462 1201 462 1210 442 c 1,72,-1
 1210 443 l 1,73,74
 1215 430 1215 430 1219 417 c 128,-1,75
 1223 404 1223 404 1228 391 c 0,76,77
 1232 377 1232 377 1236.5 362.5 c 128,-1,78
 1241 348 1241 348 1245 334 c 0,79,80
 1257 283 1257 283 1257 240 c 2,81,-1
 1257 201 l 1,10,-1
EndSplineSet
Substitution2: "'fina' Terminal Forms in Arabic lookup 5 subtable" behfinal
Substitution2: "'medi' Medial Forms in Arabic lookup 4 subtable" behmedial
Substitution2: "'init' Initial Forms in Arabic lookup 3 subtable" behinitial
Substitution2: "'isol' Isolated Forms in Arabic lookup 2 subtable" behisolated
AlternateSubs2: "'aalt' Access All Alternates in Latin lookup 1 subtable" behisolated behinitial behmedial behfinal
EndChar

StartChar: tehmarbuta
Encoding: 1577 1577 12
Width: 539
Flags: W
AnchorPoint: "ArabicBelow" 269 -248 basechar 0
AnchorPoint: "ArabicAbove" 269 1146 basechar 0
LayerCount: 2
Fore
SplineSet
408 194 m 0,0,1
 408 215 408 215 402 233 c 2,2,-1
 396 250 l 1,3,4
 394 252 394 252 391.5 257 c 128,-1,5
 389 262 389 262 387 264 c 1,6,-1
 373 286 l 1,7,-1
 352 306 l 2,8,9
 342 315 342 315 314 335 c 1,10,11
 310 335 310 335 308 337 c 256,12,13
 306 339 306 339 304.5 339.5 c 128,-1,14
 303 340 303 340 301 342 c 2,15,-1
 278 358 l 1,16,-1
 232 309 l 2,17,18
 211 285 211 285 199 264 c 0,19,20
 172 217 172 217 172 196 c 0,21,22
 172 184 172 184 181 171 c 2,23,-1
 189 161 l 1,24,-1
 210 147 l 1,25,26
 216 146 216 146 223 144.5 c 128,-1,27
 230 143 230 143 236 142 c 2,28,-1
 258 139 l 1,29,-1
 304 142 l 2,30,31
 321 144 321 144 328 147 c 256,32,33
 342 153 l 128,-1,34
 356 159 l 1,35,-1
 355 159 l 1,36,37
 407 179 407 179 408 194 c 0,0,1
443 814 m 1,38,39
 423 785 423 785 406 758 c 128,-1,40
 389 731 389 731 369 702 c 1,41,-1
 339 727 l 1,42,-1
 298 757 l 1,43,-1
 262 780 l 1,44,-1
 237 744 l 2,45,46
 231 733 231 733 224 721.5 c 128,-1,47
 217 710 217 710 211 699 c 1,48,-1
 212 699 l 1,49,50
 208 694 208 694 205.5 688 c 128,-1,51
 203 682 203 682 199 676 c 1,52,53
 167 699 167 699 138 721.5 c 128,-1,54
 109 744 109 744 78 767 c 1,55,56
 96 795 96 795 112.5 821 c 128,-1,57
 129 847 129 847 147 875 c 1,58,-1
 161 862 l 2,59,60
 165 859 165 859 173 853.5 c 128,-1,61
 181 848 181 848 186 845 c 0,62,63
 225 815 225 815 258 794 c 1,64,-1
 302 860 l 2,65,66
 308 869 308 869 313 878 c 128,-1,67
 318 887 318 887 324 896 c 1,68,-1
 443 814 l 1,38,39
462 274 m 0,69,70
 462 189 462 189 435 126 c 0,71,72
 424 100 424 100 404.5 77 c 128,-1,73
 385 54 385 54 354 37 c 0,74,75
 293 2 293 2 222 2 c 0,76,77
 138 2 138 2 113 42 c 1,78,-1
 113 41 l 1,79,80
 111 45 111 45 109.5 50 c 128,-1,81
 108 55 108 55 106 58 c 1,82,83
 105 61 105 61 103.5 66 c 128,-1,84
 102 71 102 71 101 74 c 1,85,-1
 101 85 l 1,86,-1
 99 105 l 2,87,88
 99 154 99 154 120.5 214 c 128,-1,89
 142 274 142 274 194 360 c 0,90,91
 275 502 275 502 292 502 c 0,92,93
 328 502 328 502 392 432 c 0,94,95
 462 356 462 356 462 274 c 0,69,70
EndSplineSet
Substitution2: "'fina' Terminal Forms in Arabic lookup 5 subtable" tehmarbutafinal
Substitution2: "'isol' Isolated Forms in Arabic lookup 2 subtable" tehmarbutaisolated
AlternateSubs2: "'aalt' Access All Alternates in Latin lookup 1 subtable" tehmarbutaisolated tehmarbutafinal
EndChar

StartChar: teh
Encoding: 1578 1578 13
Width: 1276
Flags: W
AnchorPoint: "ArabicBelow" 638 -250 basechar 0
AnchorPoint: "ArabicAbove" 638 991 basechar 0
LayerCount: 2
Fore
SplineSet
855 635 m 1,0,1
 838 606 838 606 822.5 580 c 128,-1,2
 807 554 807 554 790 526 c 1,3,-1
 626 621 l 1,4,5
 613 600 613 600 600.5 577 c 128,-1,6
 588 554 588 554 575 532 c 1,7,8
 532 557 532 557 491 580.5 c 128,-1,9
 450 604 450 604 408 630 c 1,10,11
 425 659 425 659 441.5 685.5 c 128,-1,12
 458 712 458 712 475 741 c 1,13,-1
 638 643 l 1,14,15
 650 664 650 664 664.5 688 c 128,-1,16
 679 712 679 712 691 733 c 1,17,-1
 855 635 l 1,0,1
1257 201 m 1,18,-1
 1253 176 l 2,19,20
 1252 170 1252 170 1251 163.5 c 128,-1,21
 1250 157 1250 157 1249 151 c 0,22,23
 1247 143 1247 143 1245.5 135 c 128,-1,24
 1244 127 1244 127 1242 120 c 2,25,-1
 1226 53 l 1,26,-1
 1220 23 l 1,27,28
 1218 18 1218 18 1216.5 12 c 128,-1,29
 1215 6 1215 6 1213 0 c 1,30,-1
 337 0 l 2,31,32
 187 0 187 0 105 70 c 0,33,34
 63 107 63 107 40 148 c 0,35,36
 18 196 18 196 18 242 c 0,37,38
 18 271 18 271 33 314 c 128,-1,39
 48 357 48 357 75 411 c 0,40,41
 100 460 100 460 120 488.5 c 128,-1,42
 140 517 140 517 154 522 c 1,43,44
 152 512 152 512 150.5 505.5 c 128,-1,45
 149 499 149 499 147 490 c 1,46,47
 124 439 124 439 111 402 c 128,-1,48
 98 365 98 365 98 351 c 0,49,50
 98 253 98 253 155 196 c 0,51,52
 166 185 166 185 182 175 c 128,-1,53
 198 165 198 165 218 155 c 0,54,55
 261 140 261 140 305 140 c 2,56,-1
 1182 140 l 1,57,58
 1182 168 1182 168 1173 209 c 2,59,-1
 1161 251 l 2,60,61
 1159 257 1159 257 1157.5 262.5 c 128,-1,62
 1156 268 1156 268 1153 272 c 0,63,64
 1151 275 1151 275 1150 279 c 128,-1,65
 1149 283 1149 283 1147 286 c 2,66,67
 1142 300 1142 300 1135.5 313.5 c 128,-1,68
 1129 327 1129 327 1118 347 c 0,69,70
 1107 365 1107 365 1096.5 382 c 128,-1,71
 1086 399 1086 399 1075 417 c 1,72,73
 1094 452 1094 452 1114 490 c 128,-1,74
 1134 528 1134 528 1152 563 c 1,75,76
 1160 551 1160 551 1174 520 c 0,77,78
 1183 501 1183 501 1192 481.5 c 128,-1,79
 1201 462 1201 462 1210 442 c 1,80,-1
 1210 443 l 1,81,82
 1215 430 1215 430 1219 417 c 128,-1,83
 1223 404 1223 404 1228 391 c 0,84,85
 1232 377 1232 377 1236.5 362.5 c 128,-1,86
 1241 348 1241 348 1245 334 c 0,87,88
 1257 283 1257 283 1257 240 c 2,89,-1
 1257 201 l 1,18,-1
EndSplineSet
Substitution2: "'fina' Terminal Forms in Arabic lookup 5 subtable" tehfinal
Substitution2: "'medi' Medial Forms in Arabic lookup 4 subtable" tehmedial
Substitution2: "'init' Initial Forms in Arabic lookup 3 subtable" tehinitial
Substitution2: "'isol' Isolated Forms in Arabic lookup 2 subtable" tehisolated
AlternateSubs2: "'aalt' Access All Alternates in Latin lookup 1 subtable" tehisolated tehinitial tehmedial tehfinal
EndChar

StartChar: theh
Encoding: 1579 1579 14
Width: 1276
Flags: W
AnchorPoint: "ArabicBelow" 638 -250 basechar 0
AnchorPoint: "ArabicAbove" 638 1202 basechar 0
LayerCount: 2
Fore
SplineSet
597 856 m 1,0,1
 580 827 580 827 564.5 800.5 c 128,-1,2
 549 774 549 774 531 745 c 1,3,4
 490 769 490 769 451.5 793 c 128,-1,5
 413 817 413 817 372 841 c 1,6,7
 389 870 389 870 406 896.5 c 128,-1,8
 423 923 423 923 440 952 c 1,9,-1
 597 856 l 1,0,1
820 613 m 1,10,11
 803 584 803 584 787.5 558.5 c 128,-1,12
 772 533 772 533 755 505 c 1,13,-1
 593 601 l 1,14,15
 581 580 581 580 566 556 c 128,-1,16
 551 532 551 532 538 511 c 1,17,18
 496 536 496 536 456 559 c 128,-1,19
 416 582 416 582 374 607 c 1,20,21
 391 637 391 637 406.5 664 c 128,-1,22
 422 691 422 691 439 720 c 1,23,-1
 603 622 l 1,24,25
 615 643 615 643 629.5 667 c 128,-1,26
 644 691 644 691 656 712 c 1,27,-1
 820 613 l 1,10,11
1257 201 m 1,28,-1
 1253 176 l 2,29,30
 1252 170 1252 170 1251 163.5 c 128,-1,31
 1250 157 1250 157 1249 152 c 0,32,33
 1247 144 1247 144 1245.5 136 c 128,-1,34
 1244 128 1244 128 1242 120 c 2,35,-1
 1226 53 l 1,36,-1
 1220 23 l 1,37,38
 1218 18 1218 18 1216.5 12 c 128,-1,39
 1215 6 1215 6 1213 0 c 1,40,-1
 337 0 l 2,41,42
 187 0 187 0 105 70 c 0,43,44
 63 107 63 107 40 148 c 0,45,46
 18 196 18 196 18 242 c 0,47,48
 18 271 18 271 33 314 c 128,-1,49
 48 357 48 357 75 411 c 0,50,51
 100 460 100 460 120 488.5 c 128,-1,52
 140 517 140 517 154 522 c 1,53,54
 152 512 152 512 150.5 505.5 c 128,-1,55
 149 499 149 499 147 490 c 1,56,57
 124 439 124 439 111 402 c 128,-1,58
 98 365 98 365 98 351 c 0,59,60
 98 253 98 253 155 196 c 0,61,62
 166 185 166 185 182 175 c 128,-1,63
 198 165 198 165 218 155 c 0,64,65
 261 140 261 140 305 140 c 2,66,-1
 1182 140 l 1,67,68
 1182 168 1182 168 1173 209 c 2,69,-1
 1161 251 l 2,70,71
 1159 257 1159 257 1157.5 262.5 c 128,-1,72
 1156 268 1156 268 1153 272 c 0,73,74
 1151 275 1151 275 1150 279 c 128,-1,75
 1149 283 1149 283 1147 286 c 2,76,77
 1142 300 1142 300 1135.5 313.5 c 128,-1,78
 1129 327 1129 327 1118 347 c 0,79,80
 1107 365 1107 365 1096.5 382 c 128,-1,81
 1086 399 1086 399 1075 417 c 1,82,83
 1094 452 1094 452 1114 490 c 128,-1,84
 1134 528 1134 528 1152 563 c 1,85,86
 1160 551 1160 551 1174 520 c 0,87,88
 1183 501 1183 501 1192 481.5 c 128,-1,89
 1201 462 1201 462 1210 442 c 1,90,-1
 1210 443 l 1,91,92
 1215 430 1215 430 1219 417 c 128,-1,93
 1223 404 1223 404 1228 391 c 0,94,95
 1232 377 1232 377 1236.5 362.5 c 128,-1,96
 1241 348 1241 348 1245 334 c 0,97,98
 1257 283 1257 283 1257 240 c 2,99,-1
 1257 201 l 1,28,-1
EndSplineSet
Substitution2: "'fina' Terminal Forms in Arabic lookup 5 subtable" thehfinal
Substitution2: "'medi' Medial Forms in Arabic lookup 4 subtable" thehmedial
Substitution2: "'init' Initial Forms in Arabic lookup 3 subtable" thehinitial
Substitution2: "'isol' Isolated Forms in Arabic lookup 2 subtable" thehisolated
AlternateSubs2: "'aalt' Access All Alternates in Latin lookup 1 subtable" thehisolated thehinitial thehmedial thehfinal
EndChar

StartChar: jeem
Encoding: 1580 1580 15
Width: 815
Flags: W
AnchorPoint: "ArabicBelow" 407 -939 basechar 0
AnchorPoint: "ArabicAbove" 407 785 basechar 0
LayerCount: 2
Fore
SplineSet
634 -101 m 1,0,1
 616 -133 616 -133 600.5 -162 c 128,-1,2
 585 -191 585 -191 567 -223 c 1,3,4
 525 -198 525 -198 485.5 -175 c 128,-1,5
 446 -152 446 -152 404 -127 c 1,6,7
 419 -98 419 -98 434.5 -69.5 c 128,-1,8
 450 -41 450 -41 465 -12 c 1,9,-1
 634 -101 l 1,0,1
854 -573 m 1,10,11
 826 -594 826 -594 795 -612 c 1,12,-1
 795 -611 l 1,13,-1
 753 -632 l 2,14,15
 743 -637 743 -637 733 -641 c 128,-1,16
 723 -645 723 -645 713 -650 c 1,17,-1
 714 -650 l 1,18,19
 697 -657 697 -657 667.5 -663.5 c 128,-1,20
 638 -670 638 -670 601 -678 c 0,21,22
 586 -680 586 -680 570.5 -682 c 128,-1,23
 555 -684 555 -684 540 -686 c 2,24,-1
 473 -689 l 2,25,26
 227 -689 227 -689 94 -583 c 0,27,28
 -37 -479 -37 -479 -37 -306 c 0,29,30
 -37 -189 -37 -189 -6 -92 c 0,31,32
 15 -14 15 -14 47 45 c 0,33,34
 63 75 63 75 84 105 c 128,-1,35
 105 135 105 135 131 167 c 0,36,37
 135 171 135 171 139 176 c 128,-1,38
 147 186 l 0,39,40
 152 191 152 191 157 196.5 c 128,-1,41
 162 202 162 202 167 207 c 0,42,43
 178 218 178 218 193 232 c 128,-1,44
 208 246 208 246 220 257 c 2,45,-1
 325 342 l 1,46,-1
 293 351 l 1,47,-1
 267 358 l 1,48,-1
 222 367 l 2,49,50
 160 379 160 379 96 379 c 0,51,52
 64 379 64 379 31.5 374 c 128,-1,53
 -1 369 -1 369 -30 361 c 1,54,55
 -32 361 -32 361 -37.5 358.5 c 128,-1,56
 -43 356 -43 356 -46 354 c 1,57,58
 -44 369 -44 369 -41.5 380 c 128,-1,59
 -39 391 -39 391 -37 405 c 1,60,61
 12 535 12 535 108 535 c 0,62,63
 194 535 194 535 318 510 c 0,64,65
 444 486 444 486 569 486 c 2,66,-1
 761 486 l 1,67,68
 744 448 744 448 729.5 414.5 c 128,-1,69
 715 381 715 381 698 344 c 1,70,71
 670 344 670 344 635.5 338.5 c 128,-1,72
 601 333 601 333 564 324 c 2,73,-1
 514 314 l 1,74,-1
 468 302 l 2,75,76
 376 273 376 273 294.5 217 c 128,-1,77
 213 161 213 161 147 83 c 0,78,79
 89 14 89 14 57.5 -48.5 c 128,-1,80
 26 -111 26 -111 26 -160 c 0,81,82
 26 -448 26 -448 345 -533 c 2,83,-1
 431 -553 l 1,84,-1
 488 -560 l 1,85,-1
 548 -563 l 1,86,-1
 651 -566 l 1,87,-1
 854 -573 l 1,10,11
EndSplineSet
Substitution2: "'fina' Terminal Forms in Arabic lookup 5 subtable" jeemfinal
Substitution2: "'medi' Medial Forms in Arabic lookup 4 subtable" jeemmedial
Substitution2: "'init' Initial Forms in Arabic lookup 3 subtable" jeeminitial
Substitution2: "'isol' Isolated Forms in Arabic lookup 2 subtable" jeemisolated
AlternateSubs2: "'aalt' Access All Alternates in Latin lookup 1 subtable" jeemisolated jeeminitial jeemmedial jeemfinal
EndChar

StartChar: hah
Encoding: 1581 1581 16
Width: 856
Flags: W
AnchorPoint: "ArabicBelow" 428 -939 basechar 0
AnchorPoint: "ArabicAbove" 428 785 basechar 0
LayerCount: 2
Fore
SplineSet
897 -573 m 1,0,1
 884 -582 884 -582 868 -592 c 128,-1,2
 852 -602 852 -602 835 -612 c 1,3,-1
 835 -611 l 1,4,5
 823 -616 823 -616 810 -623 c 128,-1,6
 797 -630 797 -630 785 -635 c 1,7,-1
 786 -635 l 1,8,9
 776 -639 776 -639 765 -643 c 128,-1,10
 754 -647 754 -647 744 -651 c 0,11,12
 732 -654 732 -654 720 -658 c 128,-1,13
 708 -662 708 -662 696 -665 c 0,14,15
 680 -668 680 -668 664.5 -671 c 128,-1,16
 649 -674 649 -674 634 -677 c 0,17,18
 617 -679 617 -679 600 -681.5 c 128,-1,19
 583 -684 583 -684 566 -686 c 1,20,-1
 567 -686 l 1,21,22
 551 -687 551 -687 531.5 -687.5 c 128,-1,23
 512 -688 512 -688 495 -689 c 0,24,25
 370 -687 370 -687 268.5 -661 c 128,-1,26
 167 -635 167 -635 98 -583 c 0,27,28
 33 -535 33 -535 -3.5 -462.5 c 128,-1,29
 -40 -390 -40 -390 -40 -306 c 0,30,31
 -40 -252 -40 -252 -31.5 -198 c 128,-1,32
 -23 -144 -23 -144 -6 -92 c 0,33,34
 15 -26 15 -26 51 39.5 c 128,-1,35
 87 105 87 105 137 168 c 1,36,-1
 137 167 l 1,37,38
 155 188 155 188 178 210.5 c 128,-1,39
 201 233 201 233 230 257 c 0,40,41
 247 274 247 274 274.5 294.5 c 128,-1,42
 302 315 302 315 340 341 c 1,43,44
 307 353 307 353 281 359 c 0,45,46
 269 361 269 361 256.5 363 c 128,-1,47
 244 365 244 365 232 367 c 0,48,49
 200 373 200 373 166 376 c 128,-1,50
 132 379 132 379 100 379 c 0,51,52
 86 378 86 378 69.5 377.5 c 128,-1,53
 53 377 53 377 39 376 c 0,54,55
 34 376 34 376 26 375 c 128,-1,56
 18 374 18 374 12 372 c 0,57,58
 5 370 5 370 -1.5 368.5 c 128,-1,59
 -8 367 -8 367 -15 365 c 1,60,-1
 -14 365 l 1,61,62
 -32 362 -32 362 -36 360 c 0,63,64
 -39 358 -39 358 -42 356.5 c 128,-1,65
 -45 355 -45 355 -48 353 c 1,66,67
 -44 379 l 128,-1,68
 -42 392 -42 392 -40 404 c 1,69,70
 -11 467 -11 467 28 501 c 128,-1,71
 67 535 67 535 114 535 c 0,72,73
 159 535 159 535 214 529 c 128,-1,74
 269 523 269 523 337 510 c 0,75,76
 470 486 470 486 598 486 c 2,77,-1
 794 486 l 1,78,79
 776 448 776 448 760 414.5 c 128,-1,80
 744 381 744 381 726 344 c 1,81,-1
 707 344 l 1,82,-1
 677 341 l 1,83,-1
 641 335 l 2,84,85
 629 333 629 333 616 329.5 c 128,-1,86
 603 326 603 326 591 324 c 2,87,-1
 556 317 l 1,88,-1
 492 302 l 2,89,90
 398 273 398 273 313.5 218.5 c 128,-1,91
 229 164 229 164 154 83 c 0,92,93
 29 -57 29 -57 29 -160 c 0,94,95
 29 -227 29 -227 52 -285 c 128,-1,96
 75 -343 75 -343 118.5 -390 c 128,-1,97
 162 -437 162 -437 224 -473 c 128,-1,98
 286 -509 286 -509 364 -533 c 0,99,100
 383 -538 383 -538 411 -544 c 128,-1,101
 439 -550 439 -550 461 -553 c 0,102,103
 471 -555 471 -555 486 -556.5 c 128,-1,104
 501 -558 501 -558 517.5 -559.5 c 128,-1,105
 534 -561 534 -561 550.5 -562 c 128,-1,106
 567 -563 567 -563 581 -563 c 2,107,-1
 688 -566 l 1,108,-1
 897 -573 l 1,0,1
EndSplineSet
Substitution2: "'fina' Terminal Forms in Arabic lookup 5 subtable" hahfinal
Substitution2: "'medi' Medial Forms in Arabic lookup 4 subtable" hahmedial
Substitution2: "'init' Initial Forms in Arabic lookup 3 subtable" hahinitial
Substitution2: "'isol' Isolated Forms in Arabic lookup 2 subtable" hahisolated
AlternateSubs2: "'aalt' Access All Alternates in Latin lookup 1 subtable" hahisolated hahinitial hahmedial hahfinal
EndChar

StartChar: khah
Encoding: 1582 1582 17
Width: 815
Flags: W
AnchorPoint: "ArabicBelow" 407 -939 basechar 0
AnchorPoint: "ArabicAbove" 407 1245 basechar 0
LayerCount: 2
Fore
SplineSet
412 906 m 1,0,1
 394 874 394 874 378.5 844.5 c 128,-1,2
 363 815 363 815 345 783 c 1,3,4
 303 809 303 809 263.5 832 c 128,-1,5
 224 855 224 855 182 880 c 1,6,7
 197 909 197 909 212.5 937.5 c 128,-1,8
 228 966 228 966 243 995 c 1,9,-1
 412 906 l 1,0,1
854 -573 m 1,10,11
 826 -594 826 -594 795 -612 c 1,12,-1
 795 -611 l 1,13,-1
 753 -632 l 2,14,15
 743 -637 743 -637 733 -641 c 128,-1,16
 723 -645 723 -645 713 -650 c 1,17,-1
 714 -650 l 1,18,19
 697 -657 697 -657 667.5 -663.5 c 128,-1,20
 638 -670 638 -670 601 -678 c 0,21,22
 586 -680 586 -680 570.5 -682 c 128,-1,23
 555 -684 555 -684 540 -686 c 2,24,-1
 473 -689 l 2,25,26
 227 -689 227 -689 94 -583 c 0,27,28
 -37 -479 -37 -479 -37 -306 c 0,29,30
 -37 -189 -37 -189 -6 -92 c 0,31,32
 15 -14 15 -14 47 45 c 0,33,34
 63 75 63 75 84 105 c 128,-1,35
 105 135 105 135 131 167 c 0,36,37
 135 171 135 171 139 176 c 128,-1,38
 147 186 l 0,39,40
 152 191 152 191 157 196.5 c 128,-1,41
 162 202 162 202 167 207 c 0,42,43
 178 218 178 218 193 232 c 128,-1,44
 208 246 208 246 220 257 c 2,45,-1
 325 342 l 1,46,-1
 293 351 l 1,47,-1
 267 358 l 1,48,-1
 222 367 l 2,49,50
 160 379 160 379 96 379 c 0,51,52
 64 379 64 379 31.5 374 c 128,-1,53
 -1 369 -1 369 -30 361 c 1,54,55
 -32 361 -32 361 -37.5 358.5 c 128,-1,56
 -43 356 -43 356 -46 354 c 1,57,58
 -44 369 -44 369 -41.5 380 c 128,-1,59
 -39 391 -39 391 -37 405 c 1,60,61
 12 535 12 535 108 535 c 0,62,63
 194 535 194 535 318 510 c 0,64,65
 444 486 444 486 569 486 c 2,66,-1
 761 486 l 1,67,68
 744 448 744 448 729.5 414.5 c 128,-1,69
 715 381 715 381 698 344 c 1,70,71
 670 344 670 344 635.5 338.5 c 128,-1,72
 601 333 601 333 564 324 c 2,73,-1
 514 314 l 1,74,-1
 468 302 l 2,75,76
 376 273 376 273 294.5 217 c 128,-1,77
 213 161 213 161 147 83 c 0,78,79
 89 14 89 14 57.5 -48.5 c 128,-1,80
 26 -111 26 -111 26 -160 c 0,81,82
 26 -448 26 -448 345 -533 c 2,83,-1
 431 -553 l 1,84,-1
 488 -560 l 1,85,-1
 548 -563 l 1,86,-1
 651 -566 l 1,87,-1
 854 -573 l 1,10,11
EndSplineSet
Substitution2: "'fina' Terminal Forms in Arabic lookup 5 subtable" khahfinal
Substitution2: "'medi' Medial Forms in Arabic lookup 4 subtable" khahmedial
Substitution2: "'init' Initial Forms in Arabic lookup 3 subtable" khahinitial
Substitution2: "'isol' Isolated Forms in Arabic lookup 2 subtable" khahisolated
AlternateSubs2: "'aalt' Access All Alternates in Latin lookup 1 subtable" khahisolated khahinitial khahmedial khahfinal
EndChar

StartChar: dal
Encoding: 1583 1583 18
Width: 721
Flags: W
AnchorPoint: "ArabicBelow" 360 -293 basechar 0
AnchorPoint: "ArabicAbove" 360 925 basechar 0
LayerCount: 2
Fore
SplineSet
650 159 m 2,0,1
 643 122 643 122 636 83 c 128,-1,2
 629 44 629 44 621 7 c 1,3,4
 613 2 613 2 577.5 -5.5 c 128,-1,5
 542 -13 542 -13 485 -24 c 2,6,-1
 445 -29 l 1,7,-1
 370 -38 l 1,8,-1
 308 -40 l 1,9,-1
 262 -43 l 1,10,-1
 203 -43 l 2,11,12
 198 -43 198 -43 188.5 -42.5 c 128,-1,13
 179 -42 179 -42 174 -42 c 2,14,-1
 140 -39 l 2,15,16
 91 -39 91 -39 70 -33 c 1,17,18
 81 5 81 5 91 42.5 c 128,-1,19
 101 80 101 80 112 119 c 1,20,-1
 183 111 l 1,21,-1
 270 107 l 2,22,23
 344 107 344 107 470 119 c 2,24,-1
 495 120 l 1,25,-1
 515 120 l 1,26,27
 518 121 518 121 521.5 122 c 128,-1,28
 525 123 525 123 529 124 c 2,29,-1
 582 132 l 1,30,-1
 586 166 l 1,31,-1
 585 192 l 2,32,33
 585 206 585 206 578 221 c 1,34,-1
 578 220 l 1,35,-1
 568 252 l 1,36,37
 563 260 563 260 559.5 268.5 c 128,-1,38
 556 277 556 277 551 285 c 2,39,-1
 537 310 l 1,40,-1
 515 343 l 2,41,42
 507 357 507 357 497 370.5 c 128,-1,43
 487 384 487 384 476 395 c 2,44,-1
 447 426 l 2,45,46
 442 431 442 431 437 435.5 c 128,-1,47
 432 440 432 440 427 445 c 0,48,49
 419 455 419 455 404 466 c 128,-1,50
 389 477 389 477 369 492 c 1,51,-1
 370 531 l 2,52,53
 370 534 370 534 370.5 538.5 c 128,-1,54
 371 543 371 543 371 546 c 1,55,-1
 377 575 l 2,56,57
 387 625 l 128,-1,58
 397 675 l 1,59,60
 432 651 432 651 469.5 611.5 c 128,-1,61
 507 572 507 572 542 523 c 0,62,63
 582 461 582 461 610.5 387 c 128,-1,64
 639 313 639 313 650 244 c 2,65,-1
 652 211 l 1,66,-1
 652 175 l 1,67,-1
 650 159 l 2,0,1
EndSplineSet
Substitution2: "'fina' Terminal Forms in Arabic lookup 5 subtable" dalfinal
Substitution2: "'isol' Isolated Forms in Arabic lookup 2 subtable" dalisolated
AlternateSubs2: "'aalt' Access All Alternates in Latin lookup 1 subtable" dalisolated dalfinal
EndChar

StartChar: thal
Encoding: 1584 1584 19
Width: 721
Flags: W
AnchorPoint: "ArabicBelow" 360 -293 basechar 0
AnchorPoint: "ArabicAbove" 360 1268 basechar 0
LayerCount: 2
Fore
SplineSet
340 921 m 1,0,1
 322 892 322 892 306 865 c 128,-1,2
 290 838 290 838 272 809 c 1,3,4
 231 834 231 834 192.5 857 c 128,-1,5
 154 880 154 880 114 905 c 1,6,7
 132 934 132 934 148 961.5 c 128,-1,8
 164 989 164 989 182 1018 c 1,9,-1
 340 921 l 1,0,1
650 159 m 2,10,11
 643 122 643 122 636 83 c 128,-1,12
 629 44 629 44 621 7 c 1,13,14
 613 2 613 2 577.5 -5.5 c 128,-1,15
 542 -13 542 -13 485 -24 c 2,16,-1
 445 -29 l 1,17,-1
 370 -38 l 1,18,-1
 308 -40 l 1,19,-1
 262 -43 l 1,20,-1
 203 -43 l 2,21,22
 198 -43 198 -43 188.5 -42.5 c 128,-1,23
 179 -42 179 -42 174 -42 c 2,24,-1
 140 -39 l 2,25,26
 91 -39 91 -39 70 -33 c 1,27,28
 81 5 81 5 91 42.5 c 128,-1,29
 101 80 101 80 112 119 c 1,30,-1
 183 111 l 1,31,-1
 270 107 l 2,32,33
 344 107 344 107 470 119 c 2,34,-1
 495 120 l 1,35,-1
 515 120 l 1,36,37
 519 121 519 121 522.5 122 c 128,-1,38
 526 123 526 123 530 124 c 1,39,-1
 529 124 l 1,40,-1
 582 132 l 1,41,-1
 586 166 l 1,42,-1
 585 192 l 2,43,44
 585 206 585 206 578 221 c 1,45,-1
 578 220 l 1,46,-1
 568 252 l 1,47,48
 563 260 563 260 559.5 268.5 c 128,-1,49
 556 277 556 277 551 285 c 2,50,-1
 537 310 l 1,51,-1
 515 343 l 2,52,53
 507 357 507 357 497 370.5 c 128,-1,54
 487 384 487 384 476 395 c 2,55,-1
 447 426 l 2,56,57
 442 431 442 431 437 435.5 c 128,-1,58
 432 440 432 440 427 445 c 0,59,60
 419 455 419 455 404 466 c 128,-1,61
 389 477 389 477 369 492 c 1,62,-1
 370 531 l 2,63,64
 370 534 370 534 370.5 538.5 c 128,-1,65
 371 543 371 543 371 546 c 1,66,-1
 377 575 l 2,67,68
 387 625 l 128,-1,69
 397 675 l 1,70,71
 432 651 432 651 469.5 611.5 c 128,-1,72
 507 572 507 572 542 523 c 0,73,74
 582 461 582 461 610.5 387 c 128,-1,75
 639 313 639 313 650 244 c 2,76,-1
 652 211 l 1,77,-1
 652 175 l 1,78,-1
 650 159 l 2,10,11
EndSplineSet
Substitution2: "'fina' Terminal Forms in Arabic lookup 5 subtable" thalfinal
Substitution2: "'isol' Isolated Forms in Arabic lookup 2 subtable" thalisolated
AlternateSubs2: "'aalt' Access All Alternates in Latin lookup 1 subtable" thalisolated thalfinal
EndChar

StartChar: reh
Encoding: 1585 1585 20
Width: 791
Flags: W
AnchorPoint: "ArabicBelow" 395 -678 basechar 0
AnchorPoint: "ArabicAbove" 395 738 basechar 0
LayerCount: 2
Fore
SplineSet
706 69 m 2,0,1
 706 -11 706 -11 673.5 -92 c 128,-1,2
 641 -173 641 -173 578 -266 c 0,3,4
 573 -272 573 -272 568 -280 c 128,-1,5
 563 -288 563 -288 559 -293 c 1,6,-1
 559 -292 l 1,7,-1
 537 -318 l 2,8,9
 533 -323 533 -323 520.5 -334.5 c 128,-1,10
 508 -346 508 -346 488 -364 c 1,11,-1
 489 -364 l 1,12,13
 407 -428 407 -428 341 -428 c 0,14,15
 278 -428 278 -428 125 -371 c 0,16,17
 -25 -316 -25 -316 -25 -279 c 0,18,19
 -25 -276 -25 -276 -17 -268 c 1,20,-1
 111 -318 l 1,21,-1
 165 -334 l 2,22,23
 192 -340 192 -340 212 -340 c 0,24,25
 270 -340 270 -340 340.5 -299.5 c 128,-1,26
 411 -259 411 -259 492 -181 c 0,27,28
 530 -144 530 -144 561.5 -105 c 128,-1,29
 593 -66 593 -66 614 -33 c 0,30,31
 635 3 635 3 645 32.5 c 128,-1,32
 655 62 655 62 655 91 c 0,33,34
 655 158 655 158 550 253 c 0,35,36
 530 269 530 269 505.5 286.5 c 128,-1,37
 481 304 481 304 461 319 c 1,38,39
 470 361 470 361 479.5 403 c 128,-1,40
 489 445 489 445 498 488 c 1,41,42
 560 440 560 440 601.5 393 c 128,-1,43
 643 346 643 346 663 296 c 1,44,-1
 663 297 l 1,45,46
 667 285 667 285 671.5 272.5 c 128,-1,47
 676 260 676 260 680 248 c 0,48,49
 682 243 682 243 683.5 236.5 c 128,-1,50
 685 230 685 230 687 225 c 1,51,-1
 694 190 l 2,52,53
 697 178 697 178 699 163 c 128,-1,54
 701 148 701 148 703 134 c 2,55,-1
 706 69 l 2,0,1
EndSplineSet
Substitution2: "'fina' Terminal Forms in Arabic lookup 5 subtable" rehfinal
Substitution2: "'isol' Isolated Forms in Arabic lookup 2 subtable" rehisolated
AlternateSubs2: "'aalt' Access All Alternates in Latin lookup 1 subtable" rehisolated rehfinal
EndChar

StartChar: zain
Encoding: 1586 1586 21
Width: 791
Flags: W
AnchorPoint: "ArabicBelow" 395 -678 basechar 0
AnchorPoint: "ArabicAbove" 395 1153 basechar 0
LayerCount: 2
Fore
SplineSet
517 809 m 1,0,1
 500 779 500 779 483.5 752 c 128,-1,2
 467 725 467 725 450 696 c 1,3,4
 408 721 408 721 370 744 c 128,-1,5
 332 767 332 767 291 792 c 1,6,7
 309 821 309 821 325 847.5 c 128,-1,8
 341 874 341 874 359 903 c 1,9,-1
 517 809 l 1,0,1
706 69 m 2,10,11
 704 -10 704 -10 672.5 -91.5 c 128,-1,12
 641 -173 641 -173 578 -266 c 0,13,14
 573 -272 573 -272 568 -280 c 128,-1,15
 563 -288 563 -288 559 -293 c 1,16,-1
 559 -292 l 1,17,-1
 537 -318 l 2,18,19
 533 -323 533 -323 520.5 -334.5 c 128,-1,20
 508 -346 508 -346 488 -364 c 1,21,-1
 489 -364 l 1,22,23
 407 -428 407 -428 341 -428 c 0,24,25
 278 -428 278 -428 125 -371 c 0,26,27
 -25 -316 -25 -316 -25 -279 c 0,28,29
 -25 -276 -25 -276 -17 -268 c 1,30,-1
 111 -318 l 1,31,-1
 165 -334 l 2,32,33
 192 -340 192 -340 212 -340 c 0,34,35
 270 -340 270 -340 340.5 -299.5 c 128,-1,36
 411 -259 411 -259 492 -181 c 0,37,38
 530 -144 530 -144 561.5 -105 c 128,-1,39
 593 -66 593 -66 614 -33 c 0,40,41
 635 3 635 3 645 32.5 c 128,-1,42
 655 62 655 62 655 91 c 0,43,44
 655 158 655 158 550 253 c 0,45,46
 530 269 530 269 505.5 286.5 c 128,-1,47
 481 304 481 304 461 319 c 1,48,49
 470 361 470 361 479.5 403 c 128,-1,50
 489 445 489 445 498 488 c 1,51,52
 560 440 560 440 601.5 393 c 128,-1,53
 643 346 643 346 663 296 c 1,54,-1
 663 297 l 1,55,56
 667 285 667 285 671.5 272.5 c 128,-1,57
 676 260 676 260 680 248 c 0,58,59
 682 243 682 243 683.5 236.5 c 128,-1,60
 685 230 685 230 687 225 c 1,61,-1
 694 190 l 2,62,63
 697 178 697 178 699 163 c 128,-1,64
 701 148 701 148 703 134 c 2,65,-1
 706 69 l 2,10,11
EndSplineSet
Substitution2: "'fina' Terminal Forms in Arabic lookup 5 subtable" zainfinal
Substitution2: "'isol' Isolated Forms in Arabic lookup 2 subtable" zainisolated
AlternateSubs2: "'aalt' Access All Alternates in Latin lookup 1 subtable" zainisolated zainfinal
EndChar

StartChar: seen
Encoding: 1587 1587 22
Width: 1536
Flags: W
AnchorPoint: "ArabicBelow" 768 -666 basechar 0
AnchorPoint: "ArabicAbove" 768 675 basechar 0
LayerCount: 2
Fore
SplineSet
1499 233 m 2,0,1
 1499 224 1499 224 1497.5 212.5 c 128,-1,2
 1496 201 1496 201 1494 187 c 0,3,4
 1489 159 1489 159 1488 155 c 0,5,6
 1488 154 1488 154 1487.5 153 c 128,-1,7
 1487 152 1487 152 1487 151 c 0,8,9
 1485 143 1485 143 1483 134 c 128,-1,10
 1481 125 1481 125 1474 96.5 c 128,-1,11
 1467 68 1467 68 1458 49 c 0,12,13
 1454 40 1454 40 1450.5 31 c 128,-1,14
 1447 22 1447 22 1443 12 c 1,15,16
 1438 11 1438 11 1434 10 c 128,-1,17
 1430 9 1430 9 1425 8 c 0,18,19
 1412 6 1412 6 1398.5 4.5 c 128,-1,20
 1385 3 1385 3 1372 1 c 0,21,22
 1359 0 1359 0 1344.5 -0.5 c 128,-1,23
 1330 -1 1330 -1 1316 -2 c 2,24,-1
 1268 -2 l 2,25,26
 1265 -2 1265 -2 1260.5 -1 c 128,-1,27
 1256 0 1256 0 1252 0 c 1,28,-1
 1207 12 l 2,29,30
 1202 14 1202 14 1195.5 16 c 128,-1,31
 1189 18 1189 18 1184 20 c 2,32,-1
 1154 35 l 2,33,34
 1151 36 1151 36 1144 40 c 128,-1,35
 1137 44 1137 44 1127 50 c 1,36,37
 1074 -14 1074 -14 946 -6 c 0,38,39
 930 -6 930 -6 912 1 c 1,40,41
 912 -13 912 -13 905 -39 c 128,-1,42
 898 -65 898 -65 885 -102 c 0,43,44
 883 -107 883 -107 880.5 -114.5 c 128,-1,45
 878 -122 878 -122 876 -128 c 2,46,-1
 863 -160 l 2,47,48
 859 -172 859 -172 855 -180 c 128,-1,49
 851 -188 851 -188 847 -193 c 0,50,51
 821 -235 821 -235 777 -273 c 128,-1,52
 733 -311 733 -311 676 -342 c 0,53,54
 605 -378 605 -378 519.5 -397 c 128,-1,55
 434 -416 434 -416 336 -416 c 0,56,57
 265 -416 265 -416 205 -395 c 1,58,-1
 206 -395 l 1,59,-1
 179 -384 l 2,60,61
 161 -377 161 -377 155 -373 c 0,62,63
 145 -366 145 -366 132 -355.5 c 128,-1,64
 119 -345 119 -345 103 -331 c 0,65,66
 29 -252 29 -252 29 -142 c 0,67,68
 29 -35 29 -35 90 120 c 0,69,70
 118 189 118 189 141 227 c 128,-1,71
 164 265 164 265 181 272 c 1,72,73
 178 256 178 256 175.5 241.5 c 128,-1,74
 173 227 173 227 170 212 c 1,75,-1
 113 66 l 2,76,77
 92 6 92 6 92 -18 c 0,78,79
 92 -158 92 -158 190 -226 c 0,80,81
 271 -281 271 -281 400 -281 c 0,82,83
 440 -281 440 -281 498 -268.5 c 128,-1,84
 556 -256 556 -256 638 -229 c 0,85,86
 836 -160 836 -160 836 -67 c 0,87,88
 836 -22 836 -22 823.5 29 c 128,-1,89
 811 80 811 80 782 133 c 0,90,91
 766 161 766 161 749.5 188 c 128,-1,92
 733 215 733 215 717 243 c 1,93,94
 735 281 735 281 753 320 c 128,-1,95
 771 359 771 359 788 397 c 1,96,-1
 835 314 l 1,97,-1
 834 314 l 1,98,-1
 867 235 l 2,99,100
 871 225 871 225 876 214 c 128,-1,101
 881 203 881 203 885 193 c 0,102,103
 896 167 896 167 927 138 c 1,104,-1
 982 132 l 1,105,-1
 1003 132 l 2,106,107
 1016 132 1016 132 1095 142 c 0,108,109
 1120 145 1120 145 1124 179 c 2,110,-1
 1124 252 l 2,111,112
 1126 276 1126 276 1157 310.5 c 128,-1,113
 1188 345 1188 345 1255 401 c 1,114,-1
 1198 173 l 1,115,116
 1198 162 1198 162 1226 150 c 1,117,-1
 1247 146 l 1,118,-1
 1286 141 l 1,119,-1
 1332 138 l 1,120,-1
 1423 138 l 1,121,-1
 1408 242 l 2,122,123
 1401 266 1401 266 1394 289 c 1,124,-1
 1465 379 l 2,125,126
 1473 390 1473 390 1482 402 c 128,-1,127
 1491 414 1491 414 1499 425 c 1,128,-1
 1499 233 l 2,0,1
EndSplineSet
Substitution2: "'fina' Terminal Forms in Arabic lookup 5 subtable" seenfinal
Substitution2: "'medi' Medial Forms in Arabic lookup 4 subtable" seenmedial
Substitution2: "'init' Initial Forms in Arabic lookup 3 subtable" seeninitial
Substitution2: "'isol' Isolated Forms in Arabic lookup 2 subtable" seenisolated
AlternateSubs2: "'aalt' Access All Alternates in Latin lookup 1 subtable" seenisolated seeninitial seenmedial seenfinal
EndChar

StartChar: sheen
Encoding: 1588 1588 23
Width: 1562
Flags: W
AnchorPoint: "ArabicBelow" 781 -666 basechar 0
AnchorPoint: "ArabicAbove" 781 1306 basechar 0
LayerCount: 2
Fore
SplineSet
1158 971 m 1,0,1
 1126 913 l 128,-1,2
 1094 855 l 1,3,4
 1053 879 1053 879 1014 900.5 c 128,-1,5
 975 922 975 922 933 946 c 1,6,7
 949 974 949 974 965 1001 c 128,-1,8
 981 1028 981 1028 996 1056 c 1,9,-1
 1158 971 l 1,0,1
1329 714 m 1,10,11
 1314 685 1314 685 1297.5 658 c 128,-1,12
 1281 631 1281 631 1266 602 c 1,13,-1
 1102 698 l 1,14,15
 1090 677 1090 677 1077.5 654 c 128,-1,16
 1065 631 1065 631 1053 609 c 1,17,18
 1011 634 1011 634 969.5 657.5 c 128,-1,19
 928 681 928 681 886 705 c 1,20,21
 903 734 903 734 920 763.5 c 128,-1,22
 937 793 937 793 954 823 c 1,23,-1
 1129 713 l 1,24,25
 1140 734 1140 734 1153.5 758.5 c 128,-1,26
 1167 783 1167 783 1178 805 c 1,27,-1
 1329 714 l 1,10,11
1499 233 m 2,28,29
 1499 224 1499 224 1497.5 212.5 c 128,-1,30
 1496 201 1496 201 1494 187 c 0,31,32
 1489 159 1489 159 1488 155 c 0,33,34
 1488 154 1488 154 1487.5 153 c 128,-1,35
 1487 152 1487 152 1487 151 c 0,36,37
 1485 143 1485 143 1483 134 c 128,-1,38
 1481 125 1481 125 1474 96.5 c 128,-1,39
 1467 68 1467 68 1458 49 c 0,40,41
 1454 40 1454 40 1450.5 31 c 128,-1,42
 1447 22 1447 22 1443 12 c 1,43,44
 1438 11 1438 11 1434 10 c 128,-1,45
 1430 9 1430 9 1425 8 c 0,46,47
 1412 6 1412 6 1398.5 4.5 c 128,-1,48
 1385 3 1385 3 1372 1 c 0,49,50
 1359 0 1359 0 1344.5 -0.5 c 128,-1,51
 1330 -1 1330 -1 1316 -2 c 2,52,-1
 1268 -2 l 2,53,54
 1265 -2 1265 -2 1260.5 -1 c 128,-1,55
 1256 0 1256 0 1252 0 c 1,56,-1
 1207 12 l 2,57,58
 1202 14 1202 14 1195.5 16 c 128,-1,59
 1189 18 1189 18 1184 20 c 2,60,-1
 1154 35 l 2,61,62
 1151 36 1151 36 1144 40 c 128,-1,63
 1137 44 1137 44 1127 50 c 1,64,65
 1074 -14 1074 -14 946 -6 c 0,66,67
 930 -6 930 -6 912 1 c 1,68,69
 912 -13 912 -13 905 -39 c 128,-1,70
 898 -65 898 -65 885 -102 c 0,71,72
 883 -107 883 -107 880.5 -114.5 c 128,-1,73
 878 -122 878 -122 876 -128 c 2,74,-1
 863 -160 l 2,75,76
 859 -172 859 -172 855 -180 c 128,-1,77
 851 -188 851 -188 847 -193 c 0,78,79
 821 -235 821 -235 777 -273 c 128,-1,80
 733 -311 733 -311 676 -342 c 0,81,82
 605 -378 605 -378 519.5 -397 c 128,-1,83
 434 -416 434 -416 336 -416 c 0,84,85
 265 -416 265 -416 205 -395 c 1,86,-1
 206 -395 l 1,87,-1
 179 -384 l 2,88,89
 161 -377 161 -377 155 -373 c 0,90,91
 145 -366 145 -366 132 -355.5 c 128,-1,92
 119 -345 119 -345 103 -331 c 0,93,94
 29 -252 29 -252 29 -142 c 0,95,96
 29 -35 29 -35 90 120 c 0,97,98
 118 189 118 189 141 227 c 128,-1,99
 164 265 164 265 181 272 c 1,100,101
 178 256 178 256 175.5 241.5 c 128,-1,102
 173 227 173 227 170 212 c 1,103,-1
 113 66 l 2,104,105
 92 6 92 6 92 -18 c 0,106,107
 92 -158 92 -158 190 -226 c 0,108,109
 271 -281 271 -281 400 -281 c 0,110,111
 440 -281 440 -281 498 -268.5 c 128,-1,112
 556 -256 556 -256 638 -229 c 0,113,114
 836 -160 836 -160 836 -67 c 0,115,116
 836 -22 836 -22 823.5 29 c 128,-1,117
 811 80 811 80 782 133 c 0,118,119
 766 161 766 161 749.5 188 c 128,-1,120
 733 215 733 215 717 243 c 1,121,122
 735 281 735 281 753 320 c 128,-1,123
 771 359 771 359 788 397 c 1,124,-1
 835 314 l 1,125,-1
 834 314 l 1,126,-1
 867 235 l 2,127,128
 871 225 871 225 876 214 c 128,-1,129
 881 203 881 203 885 193 c 0,130,131
 896 167 896 167 927 138 c 1,132,-1
 982 132 l 1,133,-1
 1003 132 l 2,134,135
 1016 132 1016 132 1095 142 c 0,136,137
 1120 145 1120 145 1124 179 c 2,138,-1
 1124 252 l 2,139,140
 1126 276 1126 276 1157 310.5 c 128,-1,141
 1188 345 1188 345 1255 401 c 1,142,-1
 1198 173 l 1,143,144
 1198 162 1198 162 1226 150 c 1,145,-1
 1247 146 l 1,146,-1
 1286 141 l 1,147,-1
 1332 138 l 1,148,-1
 1423 138 l 1,149,-1
 1408 242 l 2,150,151
 1401 266 1401 266 1394 289 c 1,152,-1
 1465 379 l 2,153,154
 1473 390 1473 390 1482 402 c 128,-1,155
 1491 414 1491 414 1499 425 c 1,156,-1
 1499 233 l 2,28,29
EndSplineSet
Substitution2: "'fina' Terminal Forms in Arabic lookup 5 subtable" sheenfinal
Substitution2: "'medi' Medial Forms in Arabic lookup 4 subtable" sheenmedial
Substitution2: "'init' Initial Forms in Arabic lookup 3 subtable" sheeninitial
Substitution2: "'isol' Isolated Forms in Arabic lookup 2 subtable" sheenisolated
AlternateSubs2: "'aalt' Access All Alternates in Latin lookup 1 subtable" sheenisolated sheeninitial sheenmedial sheenfinal
EndChar

StartChar: sad
Encoding: 1589 1589 24
Width: 1916
Flags: W
AnchorPoint: "ArabicBelow" 958 -666 basechar 0
AnchorPoint: "ArabicAbove" 958 744 basechar 0
LayerCount: 2
Fore
SplineSet
1720 301 m 2,0,1
 1703 313 1703 313 1682 322.5 c 128,-1,2
 1661 332 1661 332 1635 340 c 0,3,4
 1585 355 1585 355 1556 355 c 2,5,-1
 1531 355 l 1,6,-1
 1523 353 l 1,7,8
 1477 353 1477 353 1365 278 c 0,9,10
 1333 255 1333 255 1299 232.5 c 128,-1,11
 1265 210 1265 210 1233 187 c 2,12,-1
 1141 130 l 1,13,-1
 1202 128 l 1,14,-1
 1241 127 l 1,15,-1
 1394 127 l 2,16,17
 1429 128 1429 128 1469 128.5 c 128,-1,18
 1509 129 1509 129 1543 130 c 2,19,-1
 1592 131 l 1,20,-1
 1673 140 l 1,21,-1
 1754 148 l 2,22,23
 1812 157 1812 157 1812 191 c 0,24,25
 1812 212 1812 212 1791 236 c 1,26,-1
 1791 235 l 1,27,28
 1786 242 1786 242 1779.5 249.5 c 128,-1,29
 1773 257 1773 257 1766 263 c 2,30,-1
 1720 301 l 2,0,1
1912 246 m 0,31,32
 1912 227 1912 227 1866 142 c 2,33,-1
 1845 100 l 2,34,35
 1840 90 1840 90 1837.5 84.5 c 128,-1,36
 1835 79 1835 79 1832 76 c 0,37,38
 1816 53 1816 53 1804 42 c 1,39,40
 1790 34 1790 34 1743.5 26 c 128,-1,41
 1697 18 1697 18 1628 10 c 2,42,-1
 1555 7 l 1,43,-1
 1468 5 l 2,44,45
 1418 4 1418 4 1368.5 2.5 c 128,-1,46
 1319 1 1319 1 1270 0 c 2,47,-1
 888 0 l 1,48,49
 886 -8 886 -8 884.5 -18.5 c 128,-1,50
 883 -29 883 -29 881 -37 c 2,51,-1
 872 -66 l 2,52,53
 870 -77 870 -77 866.5 -85.5 c 128,-1,54
 863 -94 863 -94 859 -102 c 2,55,56
 836 -173 836 -173 823 -189 c 0,57,58
 796 -233 796 -233 751.5 -272 c 128,-1,59
 707 -311 707 -311 650 -342 c 0,60,61
 579 -378 579 -378 493.5 -397 c 128,-1,62
 408 -416 408 -416 310 -416 c 0,63,64
 239 -416 239 -416 179 -395 c 1,65,-1
 180 -395 l 1,66,-1
 154 -384 l 2,67,68
 135 -378 135 -378 129 -373 c 0,69,70
 119 -366 119 -366 106 -355.5 c 128,-1,71
 93 -345 93 -345 77 -331 c 0,72,73
 3 -252 3 -252 3 -142 c 0,74,75
 3 -35 3 -35 64 120 c 0,76,77
 119 258 119 258 156 272 c 1,78,79
 153 256 153 256 150 241.5 c 128,-1,80
 147 227 147 227 144 212 c 1,81,-1
 87 66 l 2,82,83
 66 6 66 6 66 -18 c 0,84,85
 66 -159 66 -159 165 -226 c 0,86,87
 244 -281 244 -281 374 -281 c 0,88,89
 414 -281 414 -281 472 -268.5 c 128,-1,90
 530 -256 530 -256 612 -229 c 0,91,92
 810 -160 810 -160 810 -67 c 0,93,94
 810 -22 810 -22 797.5 29 c 128,-1,95
 785 80 785 80 756 133 c 0,96,97
 740 161 740 161 724 188 c 128,-1,98
 708 215 708 215 692 243 c 1,99,100
 704 277 l 128,-1,101
 716 311 l 1,102,-1
 716 310 l 1,103,104
 723 324 723 324 729.5 339 c 128,-1,105
 736 354 736 354 743 368 c 1,106,-1
 742 368 l 1,107,108
 747 376 747 376 751 384 c 128,-1,109
 755 392 755 392 760 400 c 1,110,111
 766 389 766 389 771.5 380.5 c 128,-1,112
 777 372 777 372 783 361 c 256,113,114
 789 350 789 350 795.5 337.5 c 128,-1,115
 802 325 802 325 808 314 c 1,116,-1
 808 315 l 1,117,-1
 825 276 l 1,118,-1
 840 236 l 1,119,-1
 852 203 l 1,120,-1
 861 187 l 2,121,122
 892 140 892 140 927 140 c 2,123,-1
 948 138 l 2,124,125
 967 138 967 138 973 136 c 1,126,-1
 985 136 l 2,127,128
 1003 136 1003 136 1011 141 c 1,129,-1
 1010 140 l 1,130,131
 1032 147 1032 147 1056 157 c 128,-1,132
 1080 167 1080 167 1106 182 c 1,133,-1
 1106 181 l 1,134,135
 1117 186 1117 186 1132 195.5 c 128,-1,136
 1147 205 1147 205 1164 216 c 2,137,-1
 1235 263 l 1,138,-1
 1345 340 l 2,139,140
 1371 359 1371 359 1400.5 379.5 c 128,-1,141
 1430 400 1430 400 1456 419 c 0,142,143
 1572 494 1572 494 1649 494 c 0,144,145
 1716 494 1716 494 1816 409 c 0,146,147
 1912 328 1912 328 1912 246 c 0,31,32
EndSplineSet
Substitution2: "'fina' Terminal Forms in Arabic lookup 5 subtable" sadfinal
Substitution2: "'medi' Medial Forms in Arabic lookup 4 subtable" sadmedial
Substitution2: "'init' Initial Forms in Arabic lookup 3 subtable" sadinitial
Substitution2: "'isol' Isolated Forms in Arabic lookup 2 subtable" sadisolated
AlternateSubs2: "'aalt' Access All Alternates in Latin lookup 1 subtable" sadisolated sadinitial sadmedial sadfinal
EndChar

StartChar: dad
Encoding: 1590 1590 25
Width: 1916
Flags: W
AnchorPoint: "ArabicBelow" 958 -666 basechar 0
AnchorPoint: "ArabicAbove" 958 1137 basechar 0
LayerCount: 2
Fore
SplineSet
1252 792 m 1,0,1
 1235 763 1235 763 1219 736 c 128,-1,2
 1203 709 1203 709 1186 680 c 1,3,4
 1145 705 1145 705 1106.5 727.5 c 128,-1,5
 1068 750 1068 750 1026 775 c 1,6,7
 1044 805 1044 805 1061 831.5 c 128,-1,8
 1078 858 1078 858 1095 887 c 1,9,-1
 1252 792 l 1,0,1
1720 301 m 2,10,11
 1703 313 1703 313 1682 322.5 c 128,-1,12
 1661 332 1661 332 1635 340 c 0,13,14
 1585 355 1585 355 1556 355 c 2,15,-1
 1531 355 l 1,16,-1
 1523 353 l 1,17,18
 1477 353 1477 353 1365 278 c 0,19,20
 1333 255 1333 255 1299 232.5 c 128,-1,21
 1265 210 1265 210 1233 187 c 2,22,-1
 1141 130 l 1,23,-1
 1202 128 l 1,24,-1
 1241 127 l 1,25,-1
 1394 127 l 2,26,27
 1429 128 1429 128 1469 128.5 c 128,-1,28
 1509 129 1509 129 1543 130 c 2,29,-1
 1592 131 l 1,30,-1
 1673 140 l 1,31,-1
 1754 148 l 2,32,33
 1812 157 1812 157 1812 191 c 0,34,35
 1812 212 1812 212 1791 236 c 1,36,-1
 1791 235 l 1,37,38
 1786 242 1786 242 1779.5 249.5 c 128,-1,39
 1773 257 1773 257 1766 263 c 2,40,-1
 1720 301 l 2,10,11
1912 246 m 0,41,42
 1912 227 1912 227 1866 142 c 2,43,-1
 1845 100 l 2,44,45
 1840 90 1840 90 1837.5 84.5 c 128,-1,46
 1835 79 1835 79 1832 76 c 0,47,48
 1816 53 1816 53 1804 42 c 1,49,50
 1790 34 1790 34 1743.5 26 c 128,-1,51
 1697 18 1697 18 1628 10 c 2,52,-1
 1555 7 l 1,53,-1
 1468 5 l 2,54,55
 1418 4 1418 4 1368.5 2.5 c 128,-1,56
 1319 1 1319 1 1270 0 c 2,57,-1
 888 0 l 1,58,59
 886 -8 886 -8 884.5 -18.5 c 128,-1,60
 883 -29 883 -29 881 -37 c 2,61,-1
 872 -66 l 2,62,63
 870 -77 870 -77 866.5 -85.5 c 128,-1,64
 863 -94 863 -94 859 -102 c 2,65,66
 836 -173 836 -173 823 -189 c 0,67,68
 796 -233 796 -233 751.5 -272 c 128,-1,69
 707 -311 707 -311 650 -342 c 0,70,71
 579 -378 579 -378 493.5 -397 c 128,-1,72
 408 -416 408 -416 310 -416 c 0,73,74
 239 -416 239 -416 179 -395 c 1,75,-1
 180 -395 l 1,76,-1
 154 -384 l 2,77,78
 135 -378 135 -378 129 -373 c 0,79,80
 119 -366 119 -366 106 -355.5 c 128,-1,81
 93 -345 93 -345 77 -331 c 0,82,83
 3 -252 3 -252 3 -142 c 0,84,85
 3 -35 3 -35 64 120 c 0,86,87
 119 258 119 258 156 272 c 1,88,89
 153 256 153 256 150 241.5 c 128,-1,90
 147 227 147 227 144 212 c 1,91,-1
 87 66 l 2,92,93
 66 6 66 6 66 -18 c 0,94,95
 66 -159 66 -159 165 -226 c 0,96,97
 244 -281 244 -281 374 -281 c 0,98,99
 414 -281 414 -281 472 -268.5 c 128,-1,100
 530 -256 530 -256 612 -229 c 0,101,102
 810 -160 810 -160 810 -67 c 0,103,104
 810 -22 810 -22 797.5 29 c 128,-1,105
 785 80 785 80 756 133 c 0,106,107
 740 161 740 161 724 188 c 128,-1,108
 708 215 708 215 692 243 c 1,109,110
 704 277 l 128,-1,111
 716 311 l 1,112,-1
 716 310 l 1,113,114
 723 324 723 324 729.5 339 c 128,-1,115
 736 354 736 354 743 368 c 1,116,-1
 742 368 l 1,117,118
 747 376 747 376 751 384 c 128,-1,119
 755 392 755 392 760 400 c 1,120,121
 766 389 766 389 771.5 380.5 c 128,-1,122
 777 372 777 372 783 361 c 256,123,124
 789 350 789 350 795.5 337.5 c 128,-1,125
 802 325 802 325 808 314 c 1,126,-1
 808 315 l 1,127,-1
 825 276 l 1,128,-1
 840 236 l 1,129,-1
 852 203 l 1,130,-1
 861 187 l 2,131,132
 892 140 892 140 927 140 c 2,133,-1
 948 138 l 2,134,135
 967 138 967 138 973 136 c 1,136,-1
 985 136 l 2,137,138
 1003 136 1003 136 1011 141 c 1,139,-1
 1010 140 l 1,140,141
 1032 147 1032 147 1056 157 c 128,-1,142
 1080 167 1080 167 1106 182 c 1,143,-1
 1106 181 l 1,144,145
 1117 186 1117 186 1132 195.5 c 128,-1,146
 1147 205 1147 205 1164 216 c 2,147,-1
 1235 263 l 1,148,-1
 1345 340 l 2,149,150
 1371 359 1371 359 1400.5 379.5 c 128,-1,151
 1430 400 1430 400 1456 419 c 0,152,153
 1572 494 1572 494 1649 494 c 0,154,155
 1716 494 1716 494 1816 409 c 0,156,157
 1912 328 1912 328 1912 246 c 0,41,42
EndSplineSet
Substitution2: "'fina' Terminal Forms in Arabic lookup 5 subtable" dadfinal
Substitution2: "'medi' Medial Forms in Arabic lookup 4 subtable" dadmedial
Substitution2: "'init' Initial Forms in Arabic lookup 3 subtable" dadinitial
Substitution2: "'isol' Isolated Forms in Arabic lookup 2 subtable" dadisolated
AlternateSubs2: "'aalt' Access All Alternates in Latin lookup 1 subtable" dadisolated dadinitial dadmedial dadfinal
EndChar

StartChar: tah
Encoding: 1591 1591 26
Width: 1406
Flags: W
AnchorPoint: "ArabicBelow" 703 -250 basechar 0
AnchorPoint: "ArabicAbove" 703 1402 basechar 0
LayerCount: 2
Fore
SplineSet
1187 305 m 0,0,1
 1167 320 1167 320 1146 332 c 128,-1,2
 1125 344 1125 344 1105 354 c 1,3,-1
 1066 365 l 1,4,-1
 1029 369 l 2,5,6
 987 369 987 369 931.5 341 c 128,-1,7
 876 313 876 313 813 261 c 0,8,9
 787 240 787 240 759 219 c 128,-1,10
 731 198 731 198 706 181 c 0,11,12
 689 170 689 170 671 162 c 128,-1,13
 653 154 653 154 636 147 c 1,14,-1
 637 140 l 1,15,-1
 1164 140 l 2,16,17
 1225 140 1225 140 1247 148 c 0,18,19
 1262 152 1262 152 1271.5 162 c 128,-1,20
 1281 172 1281 172 1283 187 c 0,21,22
 1283 205 1283 205 1259 235 c 0,23,24
 1249 249 1249 249 1230.5 267.5 c 128,-1,25
 1212 286 1212 286 1187 305 c 0,0,1
1384 254 m 0,26,27
 1384 231 1384 231 1373 201 c 0,28,29
 1368 187 1368 187 1359.5 166.5 c 128,-1,30
 1351 146 1351 146 1337 117 c 0,31,32
 1281 0 1281 0 1244 0 c 2,33,-1
 246 0 l 2,34,35
 235 1 235 1 221.5 1.5 c 128,-1,36
 208 2 208 2 197 3 c 0,37,38
 187 5 l 128,-1,39
 177 7 l 2,40,-1
 156 14 l 2,41,42
 139 21 139 21 120.5 32 c 128,-1,43
 102 43 102 43 88 56 c 0,44,45
 74 70 74 70 61.5 87.5 c 128,-1,46
 49 105 49 105 37 125 c 1,47,-1
 38 124 l 1,48,49
 35 133 35 133 32 143 c 128,-1,50
 29 153 29 153 26 162 c 1,51,52
 25 172 25 172 24 181.5 c 128,-1,53
 23 191 23 191 22 201 c 0,54,55
 22 265 22 265 58 354 c 0,56,57
 94 442 94 442 110 442 c 0,58,59
 112 442 112 442 113 438.5 c 128,-1,60
 114 435 114 435 115 431 c 1,61,62
 113 415 113 415 97 350 c 2,63,-1
 86 299 l 1,64,-1
 81 256 l 2,65,66
 81 243 81 243 83.5 233.5 c 128,-1,67
 86 224 86 224 90 217 c 0,68,69
 112 181 112 181 158 157 c 1,70,71
 171 153 171 153 185.5 149.5 c 128,-1,72
 200 146 200 146 216 144 c 2,73,-1
 302 140 l 1,74,-1
 432 140 l 2,75,76
 448 140 448 140 459 144 c 2,77,-1
 480 150 l 1,78,-1
 498 158 l 2,79,80
 503 161 503 161 508 165 c 128,-1,81
 513 169 513 169 518 172 c 1,82,-1
 518 171 l 1,83,-1
 531 178 l 1,84,85
 541 186 541 186 546 201.5 c 128,-1,86
 551 217 551 217 551 231 c 2,87,-1
 492 894 l 1,88,89
 447 920 447 920 445 954 c 1,90,91
 447 959 447 959 448 965 c 128,-1,92
 449 971 449 971 451 976 c 1,93,-1
 451 975 l 1,94,-1
 533 1122 l 1,95,96
 537 1135 537 1135 546 1144 c 1,97,98
 551 1146 551 1146 554.5 1148 c 128,-1,99
 558 1150 558 1150 563 1152 c 1,100,101
 565 1150 565 1150 566.5 1147 c 128,-1,102
 568 1144 568 1144 571 1139 c 1,103,-1
 564 1121 l 2,104,105
 557 1100 557 1100 557 1086 c 0,106,107
 557 1069 557 1069 576 1058 c 1,108,-1
 576 1059 l 1,109,-1
 644 1017 l 2,110,111
 659 1009 659 1009 674.5 1001.5 c 128,-1,112
 690 994 690 994 705 986 c 1,113,114
 683 942 683 942 663 901.5 c 128,-1,115
 643 861 643 861 621 818 c 1,116,-1
 595 829 l 1,117,118
 598 790 598 790 602.5 747 c 128,-1,119
 607 704 607 704 610 666 c 2,120,-1
 619 573 l 2,121,122
 620 566 620 566 620.5 558 c 128,-1,123
 621 550 621 550 622 543 c 1,124,-1
 619 441 l 1,125,-1
 618 413 l 1,126,-1
 618 393 l 1,127,128
 617 390 617 390 617 387 c 0,129,130
 617 385 617 385 616 383 c 1,131,132
 615 382 615 382 615 379 c 0,133,134
 615 378 615 378 614 377 c 1,135,-1
 607 313 l 2,136,137
 600 240 600 240 573 199 c 1,138,139
 592 199 592 199 650.5 237 c 128,-1,140
 709 275 709 275 816 356 c 0,141,142
 1021 511 1021 511 1115 511 c 0,143,144
 1181 511 1181 511 1281 423 c 0,145,146
 1384 338 1384 338 1384 254 c 0,26,27
EndSplineSet
Substitution2: "'fina' Terminal Forms in Arabic lookup 5 subtable" tahfinal
Substitution2: "'medi' Medial Forms in Arabic lookup 4 subtable" tahmedial
Substitution2: "'init' Initial Forms in Arabic lookup 3 subtable" tahinitial
Substitution2: "'isol' Isolated Forms in Arabic lookup 2 subtable" tahisolated
AlternateSubs2: "'aalt' Access All Alternates in Latin lookup 1 subtable" tahisolated tahinitial tahmedial tahfinal
EndChar

StartChar: zah
Encoding: 1592 1592 27
Width: 1406
Flags: W
AnchorPoint: "ArabicBelow" 703 -250 basechar 0
AnchorPoint: "ArabicAbove" 703 1402 basechar 0
LayerCount: 2
Fore
SplineSet
1075 796 m 1,0,1
 1058 767 1058 767 1041 741 c 128,-1,2
 1024 715 1024 715 1007 686 c 1,3,4
 966 710 966 710 928 733 c 128,-1,5
 890 756 890 756 850 780 c 1,6,7
 867 810 867 810 884 837 c 128,-1,8
 901 864 901 864 918 893 c 1,9,-1
 1075 796 l 1,0,1
1187 305 m 0,10,11
 1167 320 1167 320 1146 332 c 128,-1,12
 1125 344 1125 344 1105 354 c 1,13,-1
 1066 365 l 1,14,-1
 1029 369 l 2,15,16
 987 369 987 369 931.5 341 c 128,-1,17
 876 313 876 313 813 261 c 0,18,19
 787 240 787 240 759 219 c 128,-1,20
 731 198 731 198 706 181 c 0,21,22
 689 170 689 170 671 162 c 128,-1,23
 653 154 653 154 636 147 c 1,24,-1
 637 140 l 1,25,-1
 1164 140 l 2,26,27
 1225 140 1225 140 1247 148 c 0,28,29
 1262 152 1262 152 1271.5 162 c 128,-1,30
 1281 172 1281 172 1283 187 c 0,31,32
 1283 205 1283 205 1259 235 c 0,33,34
 1249 249 1249 249 1230.5 267.5 c 128,-1,35
 1212 286 1212 286 1187 305 c 0,10,11
1384 254 m 0,36,37
 1384 231 1384 231 1373 201 c 0,38,39
 1368 187 1368 187 1359.5 166.5 c 128,-1,40
 1351 146 1351 146 1337 117 c 0,41,42
 1281 0 1281 0 1244 0 c 2,43,-1
 246 0 l 2,44,45
 235 1 235 1 221.5 1.5 c 128,-1,46
 208 2 208 2 197 3 c 0,47,48
 187 5 l 128,-1,49
 177 7 l 2,50,-1
 156 14 l 2,51,52
 139 21 139 21 120.5 32 c 128,-1,53
 102 43 102 43 88 56 c 0,54,55
 74 70 74 70 61.5 87.5 c 128,-1,56
 49 105 49 105 37 125 c 1,57,-1
 38 124 l 1,58,59
 35 133 35 133 32 143 c 128,-1,60
 29 153 29 153 26 162 c 1,61,62
 25 172 25 172 24 181.5 c 128,-1,63
 23 191 23 191 22 201 c 0,64,65
 22 265 22 265 58 354 c 0,66,67
 94 442 94 442 110 442 c 0,68,69
 112 442 112 442 113 438.5 c 128,-1,70
 114 435 114 435 115 431 c 1,71,72
 113 415 113 415 97 350 c 2,73,-1
 86 299 l 1,74,-1
 81 256 l 2,75,76
 81 243 81 243 83.5 233.5 c 128,-1,77
 86 224 86 224 90 217 c 0,78,79
 112 181 112 181 158 157 c 1,80,81
 171 153 171 153 185.5 149.5 c 128,-1,82
 200 146 200 146 216 144 c 2,83,-1
 302 140 l 1,84,-1
 432 140 l 2,85,86
 448 140 448 140 459 144 c 2,87,-1
 480 150 l 1,88,-1
 498 158 l 2,89,90
 503 161 503 161 508 165 c 128,-1,91
 513 169 513 169 518 172 c 1,92,-1
 518 171 l 1,93,-1
 531 178 l 1,94,95
 541 186 541 186 546 201.5 c 128,-1,96
 551 217 551 217 551 231 c 2,97,-1
 492 894 l 1,98,99
 447 920 447 920 445 954 c 1,100,101
 447 959 447 959 448 965 c 128,-1,102
 449 971 449 971 451 976 c 1,103,-1
 451 975 l 1,104,-1
 533 1122 l 1,105,106
 537 1135 537 1135 546 1144 c 1,107,108
 551 1146 551 1146 554.5 1148 c 128,-1,109
 558 1150 558 1150 563 1152 c 1,110,111
 565 1150 565 1150 566.5 1147 c 128,-1,112
 568 1144 568 1144 571 1139 c 1,113,-1
 564 1121 l 2,114,115
 557 1100 557 1100 557 1086 c 0,116,117
 557 1069 557 1069 576 1058 c 1,118,-1
 576 1059 l 1,119,-1
 644 1017 l 2,120,121
 659 1009 659 1009 674.5 1001.5 c 128,-1,122
 690 994 690 994 705 986 c 1,123,124
 683 942 683 942 663 901.5 c 128,-1,125
 643 861 643 861 621 818 c 1,126,-1
 595 829 l 1,127,128
 598 790 598 790 602.5 747 c 128,-1,129
 607 704 607 704 610 666 c 2,130,-1
 619 573 l 2,131,132
 620 566 620 566 620.5 558 c 128,-1,133
 621 550 621 550 622 543 c 1,134,-1
 619 441 l 1,135,-1
 618 413 l 1,136,-1
 618 393 l 1,137,138
 617 390 617 390 617 387 c 0,139,140
 617 385 617 385 616 383 c 1,141,142
 615 382 615 382 615 379 c 0,143,144
 615 378 615 378 614 377 c 1,145,-1
 607 313 l 2,146,147
 600 240 600 240 573 199 c 1,148,149
 592 199 592 199 650.5 237 c 128,-1,150
 709 275 709 275 816 356 c 0,151,152
 1021 511 1021 511 1115 511 c 0,153,154
 1181 511 1181 511 1281 423 c 0,155,156
 1384 338 1384 338 1384 254 c 0,36,37
EndSplineSet
Substitution2: "'fina' Terminal Forms in Arabic lookup 5 subtable" zahfinal
Substitution2: "'medi' Medial Forms in Arabic lookup 4 subtable" zahmedial
Substitution2: "'init' Initial Forms in Arabic lookup 3 subtable" zahinitial
Substitution2: "'isol' Isolated Forms in Arabic lookup 2 subtable" zahisolated
AlternateSubs2: "'aalt' Access All Alternates in Latin lookup 1 subtable" zahisolated zahinitial zahmedial zahfinal
EndChar

StartChar: ain
Encoding: 1593 1593 28
Width: 750
Flags: W
AnchorPoint: "ArabicBelow" 375 -939 basechar 0
AnchorPoint: "ArabicAbove" 375 982 basechar 0
LayerCount: 2
Fore
SplineSet
845 -579 m 1,0,-1
 845 -578 l 1,1,-1
 845 -579 l 1,0,-1
822 -575 m 1,2,3
 830 -575 830 -575 836 -576 c 128,-1,4
 842 -577 842 -577 845 -579 c 1,5,6
 840 -597 840 -597 700 -644 c 0,7,8
 624 -665 624 -665 552.5 -677 c 128,-1,9
 481 -689 481 -689 412 -689 c 0,10,11
 169 -689 169 -689 36 -592 c 0,12,13
 -28 -546 -28 -546 -60.5 -477.5 c 128,-1,14
 -93 -409 -93 -409 -95 -326 c 0,15,16
 -94 -312 -94 -312 -93.5 -294.5 c 128,-1,17
 -93 -277 -93 -277 -92 -263 c 0,18,19
 -91 -254 -91 -254 -90 -244 c 128,-1,20
 -89 -234 -89 -234 -88 -225 c 2,21,-1
 -82 -198 l 2,22,23
 -66 -124 -66 -124 -40 -58 c 128,-1,24
 -14 8 -14 8 25 74 c 0,25,26
 36 89 36 89 46 105.5 c 128,-1,27
 56 122 56 122 67 136 c 0,28,29
 72 143 72 143 79 152 c 128,-1,30
 86 161 86 161 91 168 c 2,31,-1
 121 203 l 1,32,33
 107 210 107 210 91 218 c 128,-1,34
 75 226 75 226 61 233 c 1,35,-1
 61 232 l 1,36,-1
 26 257 l 2,37,38
 -63 318 -63 318 -63 369 c 0,39,40
 -63 407 -63 407 -40.5 462 c 128,-1,41
 -18 517 -18 517 21 580 c 0,42,43
 69 653 69 653 120.5 692.5 c 128,-1,44
 172 732 172 732 223 732 c 0,45,46
 270 732 270 732 337 659 c 0,47,48
 390 601 390 601 389 577 c 1,49,50
 381 579 381 579 376 580 c 128,-1,51
 371 581 371 581 364 583 c 2,52,-1
 323 594 l 2,53,54
 273 606 273 606 211 606 c 0,55,56
 160 606 160 606 93 568 c 0,57,58
 64 551 64 551 45.5 536 c 128,-1,59
 27 521 27 521 25 511 c 1,60,61
 25 489 25 489 35 460 c 1,62,63
 38 455 38 455 45 443.5 c 128,-1,64
 52 432 52 432 66 414 c 0,65,66
 116 352 116 352 208 336 c 2,67,-1
 237 334 l 2,68,69
 266 334 266 334 286 339 c 2,70,-1
 324 349 l 1,71,72
 332 353 332 353 340.5 356 c 128,-1,73
 349 359 349 359 357 363 c 1,74,-1
 356 363 l 1,75,76
 393 378 393 378 431 393 c 128,-1,77
 507 423 l 0,78,79
 521 428 521 428 534.5 434 c 128,-1,80
 548 440 548 440 562 445 c 1,81,82
 548 414 548 414 535 387 c 128,-1,83
 522 360 522 360 508 329 c 1,84,85
 335 276 335 276 169 122 c 0,86,87
 78 37 78 37 31 -43.5 c 128,-1,88
 -16 -124 -16 -124 -16 -197 c 2,89,-1
 -16 -211 l 1,90,-1
 -18 -231 l 2,91,92
 -18 -380 -18 -380 115 -471 c 0,93,94
 155 -495 155 -495 240 -525 c 2,95,-1
 266 -532 l 1,96,-1
 319 -545 l 1,97,-1
 418 -563 l 1,98,-1
 515 -574 l 1,99,-1
 572 -577 l 2,100,101
 592 -577 592 -577 620.5 -578 c 128,-1,102
 649 -579 649 -579 670 -579 c 2,103,-1
 752 -582 l 1,104,-1
 767 -581 l 1,105,-1
 791 -578 l 1,106,-1
 803 -578 l 1,107,108
 807 -577 807 -577 812.5 -576.5 c 128,-1,109
 818 -576 818 -576 822 -575 c 1,2,3
EndSplineSet
Substitution2: "'fina' Terminal Forms in Arabic lookup 5 subtable" ainfinal
Substitution2: "'medi' Medial Forms in Arabic lookup 4 subtable" ainmedial
Substitution2: "'init' Initial Forms in Arabic lookup 3 subtable" aininitial
Substitution2: "'isol' Isolated Forms in Arabic lookup 2 subtable" ainisolated
AlternateSubs2: "'aalt' Access All Alternates in Latin lookup 1 subtable" ainisolated aininitial ainmedial ainfinal
EndChar

StartChar: ghain
Encoding: 1594 1594 29
Width: 750
Flags: W
AnchorPoint: "ArabicBelow" 375 -939 basechar 0
AnchorPoint: "ArabicAbove" 375 1317 basechar 0
LayerCount: 2
Fore
SplineSet
844 -579 m 1,0,-1
 844 -578 l 1,1,-1
 844 -579 l 1,0,-1
332 970 m 1,2,3
 315 941 315 941 299.5 915 c 128,-1,4
 284 889 284 889 266 860 c 1,5,6
 225 884 225 884 186.5 907.5 c 128,-1,7
 148 931 148 931 107 955 c 1,8,9
 125 984 125 984 141.5 1011 c 128,-1,10
 158 1038 158 1038 176 1067 c 1,11,-1
 332 970 l 1,2,3
814 -573 m 2,12,13
 839 -573 839 -573 844 -578 c 1,14,15
 842 -588 842 -588 805 -604.5 c 128,-1,16
 768 -621 768 -621 697 -644 c 0,17,18
 626 -662 626 -662 548.5 -675.5 c 128,-1,19
 471 -689 471 -689 406 -689 c 0,20,21
 285 -689 285 -689 191.5 -664 c 128,-1,22
 98 -639 98 -639 34.5 -592.5 c 128,-1,23
 -29 -546 -29 -546 -61.5 -478.5 c 128,-1,24
 -94 -411 -94 -411 -94 -326 c 0,25,26
 -94 -169 -94 -169 -5 0 c 0,27,28
 19 48 19 48 50 95.5 c 128,-1,29
 81 143 81 143 123 188 c 1,30,31
 91 204 91 204 65.5 219 c 128,-1,32
 40 234 40 234 23 245 c 0,33,34
 -22 277 -22 277 -45 307.5 c 128,-1,35
 -68 338 -68 338 -68 365 c 0,36,37
 -68 405 -68 405 -44.5 461 c 128,-1,38
 -21 517 -21 517 24 586 c 0,39,40
 77 664 77 664 131.5 705 c 128,-1,41
 186 746 186 746 240 746 c 0,42,43
 290 746 290 746 361 669 c 0,44,45
 418 609 418 609 418 587 c 0,46,47
 418 585 418 585 417.5 584.5 c 128,-1,48
 417 584 417 584 417 583 c 1,49,-1
 348 602 l 2,50,51
 300 614 300 614 228 614 c 0,52,53
 174 614 174 614 101 573 c 0,54,55
 75 557 75 557 53 541 c 128,-1,56
 31 525 31 525 27 515 c 1,57,58
 27 474 27 474 72 419 c 0,59,60
 117 367 117 367 219 330 c 1,61,62
 256 330 256 330 276 335 c 2,63,-1
 316 344 l 1,64,65
 325 348 325 348 336 351.5 c 128,-1,66
 347 355 347 355 356 359 c 0,67,68
 415 380 415 380 474 402 c 128,-1,69
 533 424 533 424 593 445 c 1,70,71
 578 413 578 413 564.5 383 c 128,-1,72
 551 353 551 353 536 321 c 1,73,74
 367 274 367 274 186 112 c 0,75,76
 6 -47 6 -47 -15 -196 c 2,77,-1
 -17 -235 l 2,78,79
 -17 -378 -17 -378 116 -462 c 0,80,81
 165 -492 165 -492 240 -515.5 c 128,-1,82
 315 -539 315 -539 418 -557 c 2,83,-1
 575 -572 l 1,84,-1
 659 -575 l 1,85,-1
 749 -578 l 2,86,87
 769 -578 769 -578 779 -573 c 1,88,-1
 814 -573 l 2,12,13
EndSplineSet
Substitution2: "'fina' Terminal Forms in Arabic lookup 5 subtable" ghainfinal
Substitution2: "'medi' Medial Forms in Arabic lookup 4 subtable" ghainmedial
Substitution2: "'init' Initial Forms in Arabic lookup 3 subtable" ghaininitial
Substitution2: "'isol' Isolated Forms in Arabic lookup 2 subtable" ghainisolated
AlternateSubs2: "'aalt' Access All Alternates in Latin lookup 1 subtable" ghainisolated ghaininitial ghainmedial ghainfinal
EndChar

StartChar: tatweel
Encoding: 1600 1600 30
Width: 193
Flags: W
LayerCount: 2
Fore
SplineSet
198 -2 m 1,0,-1
 -5 -2 l 1,1,-1
 -5 139 l 1,2,-1
 198 139 l 1,3,-1
 198 -2 l 1,0,-1
EndSplineSet
EndChar

StartChar: feh
Encoding: 1601 1601 31
Width: 1473
Flags: W
AnchorPoint: "ArabicBelow" 736 -250 basechar 0
AnchorPoint: "ArabicAbove" 736 1346 basechar 0
LayerCount: 2
Fore
SplineSet
1137 1009 m 1,0,1
 1120 977 1120 977 1103.5 947 c 128,-1,2
 1087 917 1087 917 1070 886 c 1,3,4
 1028 911 1028 911 989 934 c 128,-1,5
 950 957 950 957 908 982 c 1,6,7
 923 1011 923 1011 938.5 1039 c 128,-1,8
 954 1067 954 1067 969 1096 c 1,9,-1
 1137 1009 l 1,0,1
1301 437 m 1,10,11
 1290 476 1290 476 1239 538 c 0,12,13
 1194 592 1194 592 1153 592 c 0,14,15
 1134 592 1134 592 1080 552 c 0,16,17
 1070 544 1070 544 1060.5 534 c 128,-1,18
 1051 524 1051 524 1041 509 c 1,19,-1
 1038 506 l 1,20,-1
 1025 482 l 1,21,22
 1025 467 1025 467 1058 434 c 1,23,-1
 1106 410 l 2,24,25
 1119 404 1119 404 1153 404 c 2,26,-1
 1196 405 l 1,27,28
 1205 407 1205 407 1214.5 408.5 c 128,-1,29
 1224 410 1224 410 1233 412 c 0,30,31
 1254 415 1254 415 1270.5 420.5 c 128,-1,32
 1287 426 1287 426 1299 433 c 1,33,-1
 1301 437 l 1,10,11
1455 191 m 1,34,-1
 1448 150 l 2,35,36
 1447 145 1447 145 1445 137.5 c 128,-1,37
 1443 130 1443 130 1441 122 c 0,38,39
 1410 0 1410 0 1379 0 c 2,40,-1
 262 0 l 2,41,42
 153 0 153 0 80 70 c 0,43,44
 10 142 10 142 10 237 c 0,45,46
 10 282 10 282 19 326.5 c 128,-1,47
 28 371 28 371 49 422 c 0,48,49
 86 520 86 520 111 523 c 0,50,51
 117 523 117 523 119 507 c 1,52,53
 117 499 117 499 116 488.5 c 128,-1,54
 115 478 115 478 113 470 c 2,55,-1
 92 386 l 1,56,-1
 84 347 l 1,57,-1
 78 303 l 1,58,-1
 79 279 l 2,59,60
 79 269 79 269 87 258 c 0,61,62
 103 230 103 230 122 208 c 0,63,64
 130 199 130 199 143 188.5 c 128,-1,65
 156 178 156 178 176 165 c 0,66,67
 196 155 196 155 234 147 c 2,68,-1
 275 142 l 1,69,-1
 322 140 l 1,70,-1
 1385 140 l 1,71,-1
 1384 181 l 1,72,-1
 1383 209 l 2,73,74
 1383 238 1383 238 1379 249 c 0,75,76
 1376 259 1376 259 1373 269.5 c 128,-1,77
 1370 280 1370 280 1367 290 c 0,78,79
 1363 301 1363 301 1359 313.5 c 128,-1,80
 1355 326 1355 326 1352 337 c 0,81,82
 1350 345 1350 345 1347 354 c 128,-1,83
 1344 363 1344 363 1340 372 c 2,84,-1
 1335 382 l 1,85,-1
 1319 403 l 1,86,87
 1302 382 1302 382 1282.5 358 c 128,-1,88
 1263 334 1263 334 1246 313 c 1,89,90
 1237 308 1237 308 1228 302 c 128,-1,91
 1219 296 1219 296 1210 291 c 1,92,-1
 1210 292 l 1,93,94
 1200 287 1200 287 1190 282.5 c 128,-1,95
 1180 278 1180 278 1170 273 c 1,96,-1
 1171 273 l 1,97,98
 1152 266 1152 266 1130 263 c 128,-1,99
 1108 260 1108 260 1084 260 c 0,100,101
 1057 260 1057 260 1028 269.5 c 128,-1,102
 999 279 999 279 969 296 c 1,103,104
 946 314 946 314 933 332.5 c 128,-1,105
 920 351 920 351 920 367 c 0,106,107
 920 438 920 438 1040 578 c 0,108,109
 1158 719 1158 719 1252 719 c 0,110,111
 1307 719 1307 719 1384 554 c 0,112,113
 1463 389 1463 389 1463 246 c 1,114,-1
 1455 191 l 1,34,-1
EndSplineSet
Substitution2: "'fina' Terminal Forms in Arabic lookup 5 subtable" fehfinal
Substitution2: "'medi' Medial Forms in Arabic lookup 4 subtable" fehmedial
Substitution2: "'init' Initial Forms in Arabic lookup 3 subtable" fehinitial
Substitution2: "'isol' Isolated Forms in Arabic lookup 2 subtable" fehisolated
AlternateSubs2: "'aalt' Access All Alternates in Latin lookup 1 subtable" fehisolated fehinitial fehmedial fehfinal
EndChar

StartChar: qaf
Encoding: 1602 1602 32
Width: 948
Flags: W
AnchorPoint: "ArabicBelow" 474 -660 basechar 0
AnchorPoint: "ArabicAbove" 474 1155 basechar 0
LayerCount: 2
Fore
SplineSet
816 147 m 1,0,1
 820 151 820 151 821 162 c 0,2,3
 821 183 821 183 784 250 c 0,4,5
 727 338 727 338 655 338 c 0,6,7
 635 338 635 338 606 297 c 0,8,9
 580 255 580 255 580 225 c 0,10,11
 580 205 580 205 591 191 c 1,12,-1
 599 184 l 1,13,-1
 620 168 l 1,14,-1
 643 153 l 1,15,-1
 655 147 l 1,16,17
 695 134 695 134 741 134 c 0,18,19
 799 134 799 134 815 147 c 1,20,-1
 816 147 l 1,0,1
874 798 m 1,21,22
 855 770 855 770 837 744 c 128,-1,23
 819 718 819 718 800 690 c 1,24,-1
 644 785 l 1,25,26
 630 764 630 764 615.5 741 c 128,-1,27
 601 718 601 718 587 696 c 1,28,29
 545 721 545 721 506.5 744 c 128,-1,30
 468 767 468 767 427 792 c 1,31,32
 447 821 447 821 464.5 848.5 c 128,-1,33
 482 876 482 876 501 905 c 1,34,-1
 659 807 l 1,35,36
 673 828 673 828 688.5 851.5 c 128,-1,37
 704 875 704 875 718 897 c 1,38,-1
 874 798 l 1,21,22
959 0 m 1,39,-1
 917 0 l 1,40,-1
 914 -32 l 2,41,42
 914 -44 914 -44 910 -53 c 1,43,-1
 907 -72 l 1,44,-1
 898 -120 l 2,45,46
 896 -128 l 128,-1,47
 894 -136 l 2,48,-1
 887 -155 l 2,49,50
 859 -238 859 -238 665 -325 c 0,51,52
 570 -367 570 -367 469.5 -388.5 c 128,-1,53
 369 -410 369 -410 266 -410 c 0,54,55
 216 -410 216 -410 171 -393 c 0,56,57
 149 -385 149 -385 127 -372.5 c 128,-1,58
 105 -360 105 -360 82 -343 c 0,59,60
 7 -292 7 -292 -5 -238 c 0,61,62
 -11 -195 -11 -195 -11 -170 c 2,63,-1
 -11 -135 l 2,64,65
 -11 -68 -11 -68 1 1 c 0,66,67
 2 6 2 6 3.5 13.5 c 128,-1,68
 5 21 5 21 6 27 c 2,69,-1
 9 42 l 1,70,-1
 17 67 l 2,71,72
 19 75 19 75 22 83.5 c 128,-1,73
 25 92 25 92 28 101 c 1,74,-1
 28 100 l 1,75,-1
 43 136 l 2,76,77
 89 254 89 254 118 254 c 0,78,79
 125 254 125 254 129 240 c 1,80,-1
 78 70 l 1,81,-1
 58 -6 l 1,82,-1
 51 -67 l 2,83,84
 51 -124 51 -124 72.5 -165.5 c 128,-1,85
 94 -207 94 -207 153 -235 c 2,86,-1
 209 -256 l 2,87,88
 224 -261 224 -261 237.5 -265 c 128,-1,89
 251 -269 251 -269 263 -272 c 2,90,-1
 319 -280 l 1,91,-1
 378 -283 l 2,92,93
 458 -283 458 -283 542 -262 c 128,-1,94
 626 -241 626 -241 706 -203 c 0,95,96
 775 -170 775 -170 810.5 -143.5 c 128,-1,97
 846 -117 846 -117 846 -97 c 2,98,-1
 831 13 l 1,99,100
 821 11 821 11 810 9.5 c 128,-1,101
 799 8 799 8 789 6 c 1,102,-1
 733 4 l 2,103,104
 617 4 617 4 565.5 44.5 c 128,-1,105
 514 85 514 85 514 156 c 2,106,-1
 514 175 l 2,107,108
 514 180 514 180 515 186 c 128,-1,109
 516 192 516 192 516 197 c 1,110,-1
 519 217 l 2,111,112
 519 218 519 218 519.5 220 c 128,-1,113
 520 222 520 222 520 224 c 1,114,-1
 524 234 l 2,115,116
 529 252 529 252 539.5 277 c 128,-1,117
 550 302 550 302 568 334 c 0,118,119
 606 414 606 414 649 451 c 128,-1,120
 692 488 692 488 727 488 c 0,121,122
 764 488 764 488 800.5 445.5 c 128,-1,123
 837 403 837 403 866 331 c 2,124,-1
 887 258 l 1,125,-1
 907 171 l 1,126,-1
 914 140 l 1,127,-1
 959 140 l 1,128,-1
 959 0 l 1,39,-1
EndSplineSet
Substitution2: "'fina' Terminal Forms in Arabic lookup 5 subtable" qaffinal
Substitution2: "'medi' Medial Forms in Arabic lookup 4 subtable" qafmedial
Substitution2: "'init' Initial Forms in Arabic lookup 3 subtable" qafinitial
Substitution2: "'isol' Isolated Forms in Arabic lookup 2 subtable" qafisolated
AlternateSubs2: "'aalt' Access All Alternates in Latin lookup 1 subtable" qafisolated qafinitial qafmedial qaffinal
EndChar

StartChar: arabickaf
Encoding: 1603 1603 33
Width: 1321
Flags: W
AnchorPoint: "ArabicBelow" 660 -250 basechar 0
AnchorPoint: "ArabicAbove" 660 1324 basechar 0
LayerCount: 2
Fore
SplineSet
798 739 m 2,0,1
 794 729 794 729 790 719.5 c 128,-1,2
 786 710 786 710 782 700 c 1,3,-1
 713 666 l 2,4,5
 662 637 662 637 635 594 c 1,6,7
 622 559 622 559 700 539 c 0,8,9
 764 527 764 527 775 502 c 1,10,11
 773 467 773 467 745 423 c 128,-1,12
 717 379 717 379 663 329 c 0,13,14
 661 327 661 327 650 324 c 128,-1,15
 639 321 639 321 624 318 c 0,16,17
 610 317 610 317 595 316 c 128,-1,18
 565 314 l 2,19,-1
 504 314 l 2,20,21
 491 314 491 314 485 316 c 1,22,23
 496 327 496 327 584 352 c 0,24,25
 689 384 689 384 695 413 c 1,26,27
 695 428 695 428 624 449 c 0,28,29
 559 466 559 466 559 498 c 0,30,31
 559 521 559 521 583 565 c 128,-1,32
 607 609 607 609 655 673 c 1,33,-1
 655 672 l 1,34,35
 702 730 702 730 746 763 c 128,-1,36
 790 796 790 796 825 801 c 1,37,-1
 798 739 l 2,0,1
1294 916 m 1,38,39
 1274 875 1274 875 1255.5 837 c 128,-1,40
 1237 799 1237 799 1217 757 c 1,41,-1
 1210 757 l 1,42,43
 1215 701 1215 701 1220.5 640 c 128,-1,44
 1226 579 1226 579 1232 517.5 c 128,-1,45
 1238 456 1238 456 1243.5 395 c 128,-1,46
 1249 334 1249 334 1254 279 c 0,47,48
 1253 243 1253 243 1248.5 196 c 128,-1,49
 1244 149 1244 149 1235 102 c 0,50,51
 1227 54 1227 54 1216.5 29.5 c 128,-1,52
 1206 5 1206 5 1195 0 c 1,53,-1
 277 0 l 2,54,55
 166 0 166 0 96 69 c 0,56,57
 24 143 24 143 24 237 c 0,58,59
 24 277 24 277 34 322.5 c 128,-1,60
 44 368 44 368 64 419 c 0,61,62
 83 468 83 468 98 493 c 128,-1,63
 113 518 113 518 125 523 c 1,64,65
 131 521 131 521 133 507 c 1,66,67
 131 499 131 499 130 488.5 c 128,-1,68
 129 478 129 478 127 470 c 2,69,-1
 107 386 l 1,70,-1
 99 347 l 1,71,-1
 93 303 l 1,72,-1
 94 279 l 2,73,74
 94 269 94 269 102 258 c 0,75,76
 110 244 110 244 118.5 231.5 c 128,-1,77
 127 219 127 219 136 208 c 0,78,79
 144 199 144 199 157 188.5 c 128,-1,80
 170 178 170 178 190 165 c 1,81,82
 201 160 201 160 216 155.5 c 128,-1,83
 231 151 231 151 249 147 c 2,84,-1
 290 142 l 1,85,-1
 336 140 l 1,86,-1
 1173 140 l 2,87,88
 1183 140 1183 140 1183 172 c 0,89,90
 1183 220 1183 220 1174 294 c 128,-1,91
 1165 368 1165 368 1148 465 c 2,92,-1
 1127 594 l 1,93,-1
 1082 836 l 1,94,95
 1058 852 1058 852 1055 875 c 0,96,97
 1055 877 1055 877 1055.5 881 c 128,-1,98
 1056 885 1056 885 1057 887 c 0,99,100
 1059 892 1059 892 1061.5 897.5 c 128,-1,101
 1064 903 1064 903 1066 908 c 0,102,103
 1083 942 1083 942 1102 976.5 c 128,-1,104
 1121 1011 1121 1011 1138 1045 c 1,105,-1
 1137 1045 l 1,106,-1
 1151 1071 l 1,107,-1
 1153 1072 l 1,108,109
 1155 1072 1155 1072 1156.5 1072.5 c 128,-1,110
 1158 1073 1158 1073 1162 1074 c 1,111,112
 1163 1072 1163 1072 1165 1070 c 256,113,114
 1167 1068 1167 1068 1168 1065.5 c 128,-1,115
 1169 1063 1169 1063 1171 1061 c 1,116,117
 1170 1058 1170 1058 1168.5 1053 c 128,-1,118
 1167 1048 1167 1048 1165 1043 c 0,119,120
 1162 1035 1162 1035 1160 1028 c 128,-1,121
 1158 1021 1158 1021 1158 1015 c 0,122,123
 1158 1003 1158 1003 1181 981 c 1,124,125
 1192 975 1192 975 1203.5 968 c 128,-1,126
 1215 961 1215 961 1226 955 c 1,127,-1
 1226 956 l 1,128,-1
 1257 936 l 1,129,-1
 1294 916 l 1,38,39
EndSplineSet
Substitution2: "'fina' Terminal Forms in Arabic lookup 5 subtable" arabickaffinal
Substitution2: "'medi' Medial Forms in Arabic lookup 4 subtable" kafmedial
Substitution2: "'init' Initial Forms in Arabic lookup 3 subtable" kafinitial
Substitution2: "'isol' Isolated Forms in Arabic lookup 2 subtable" kafisolated
AlternateSubs2: "'aalt' Access All Alternates in Latin lookup 1 subtable" kafisolated kafinitial kafmedial arabickaffinal
EndChar

StartChar: lam
Encoding: 1604 1604 34
Width: 915
Flags: W
AnchorPoint: "ArabicBelow" 457 -627 basechar 0
AnchorPoint: "ArabicAbove" 457 1336 basechar 0
LayerCount: 2
Fore
SplineSet
815 746 m 1,0,-1
 800 753 l 1,1,2
 812 588 812 588 825 417.5 c 128,-1,3
 838 247 838 247 850 82 c 1,4,5
 848 69 848 69 845.5 57 c 128,-1,6
 843 45 843 45 841 32 c 2,7,-1
 835 6 l 2,8,9
 834 -5 834 -5 833 -8.5 c 128,-1,10
 832 -12 832 -12 827 -20 c 1,11,12
 815 -62 815 -62 801 -94.5 c 128,-1,13
 787 -127 787 -127 770 -148 c 0,14,15
 754 -169 754 -169 735.5 -189 c 128,-1,16
 717 -209 717 -209 697 -228 c 0,17,18
 677 -246 677 -246 654 -264 c 128,-1,19
 631 -282 631 -282 608 -298 c 0,20,21
 547 -335 547 -335 475.5 -356 c 128,-1,22
 404 -377 404 -377 329 -377 c 0,23,24
 167 -377 167 -377 82 -292 c 0,25,26
 46 -255 46 -255 29 -205.5 c 128,-1,27
 12 -156 12 -156 12 -99 c 0,28,29
 12 31 12 31 79 174 c 0,30,31
 105 226 105 226 124 256.5 c 128,-1,32
 143 287 143 287 156 295 c 1,33,34
 154 281 154 281 153.5 270.5 c 128,-1,35
 153 260 153 260 151 246 c 1,36,-1
 151 248 l 1,37,-1
 124 184 l 1,38,-1
 101 112 l 2,39,40
 84 49 84 49 84 20 c 0,41,42
 84 -41 84 -41 103 -90.5 c 128,-1,43
 122 -140 122 -140 163 -173 c 0,44,45
 195 -197 195 -197 244 -214 c 0,46,47
 273 -221 273 -221 300.5 -224 c 128,-1,48
 328 -227 328 -227 354 -227 c 0,49,50
 369 -226 369 -226 387.5 -225.5 c 128,-1,51
 406 -225 406 -225 420 -224 c 2,52,-1
 439 -224 l 1,53,54
 443 -223 443 -223 447.5 -221.5 c 128,-1,55
 452 -220 452 -220 457 -219 c 1,56,57
 462 -219 462 -219 470 -217 c 128,-1,58
 486 -213 l 0,59,60
 513 -207 513 -207 546 -195.5 c 128,-1,61
 579 -184 579 -184 616 -168 c 0,62,63
 735 -112 735 -112 780 -33 c 1,64,-1
 671 828 l 1,65,66
 663 833 663 833 656 839 c 128,-1,67
 649 845 649 845 644 851 c 1,68,-1
 645 850 l 1,69,70
 643 855 643 855 641 862.5 c 128,-1,71
 639 870 639 870 637 876 c 1,72,73
 638 884 638 884 641 894 c 128,-1,74
 644 904 644 904 650 912 c 1,75,-1
 729 1056 l 2,76,77
 745 1086 745 1086 756 1086 c 1,78,79
 766 1081 766 1081 766 1073 c 1,80,-1
 758 1047 l 1,81,-1
 752 1020 l 1,82,83
 752 1008 752 1008 757 1001 c 1,84,-1
 770 989 l 1,85,86
 787 979 787 979 805 968 c 128,-1,87
 823 957 823 957 840 948 c 0,88,89
 867 930 867 930 901 916 c 1,90,-1
 815 746 l 1,0,-1
EndSplineSet
Substitution2: "'fina' Terminal Forms in Arabic lookup 5 subtable" lamfinal
Substitution2: "'medi' Medial Forms in Arabic lookup 4 subtable" lammedial
Substitution2: "'init' Initial Forms in Arabic lookup 3 subtable" laminitial
Substitution2: "'isol' Isolated Forms in Arabic lookup 2 subtable" lamisolated
AlternateSubs2: "'aalt' Access All Alternates in Latin lookup 1 subtable" lamisolated laminitial lammedial lamfinal
EndChar

StartChar: meem
Encoding: 1605 1605 35
Width: 711
Flags: W
AnchorPoint: "ArabicBelow" 355 -976 basechar 0
AnchorPoint: "ArabicAbove" 355 730 basechar 0
LayerCount: 2
Fore
SplineSet
699 174 m 1,0,-1
 691 145 l 2,1,2
 688 126 688 126 683 119 c 1,3,4
 678 108 678 108 674 94.5 c 128,-1,5
 670 81 670 81 665 70 c 0,6,7
 657 52 l 128,-1,8
 649 34 l 1,9,-1
 606 46 l 1,10,-1
 515 65 l 1,11,-1
 424 77 l 1,12,-1
 357 82 l 1,13,-1
 311 81 l 2,14,15
 283 81 283 81 268 77 c 1,16,-1
 269 77 l 1,17,18
 261 76 261 76 251.5 75.5 c 128,-1,19
 242 75 242 75 234 74 c 0,20,21
 229 74 229 74 222.5 73 c 128,-1,22
 216 72 216 72 211 70 c 0,23,24
 204 68 204 68 197 66.5 c 128,-1,25
 190 65 190 65 183 63 c 0,26,27
 113 48 113 48 82 4 c 1,28,29
 96 -53 96 -53 110.5 -112 c 128,-1,30
 125 -171 125 -171 139 -228 c 0,31,32
 157 -306 157 -306 167.5 -367 c 128,-1,33
 178 -428 178 -428 178 -459 c 0,34,35
 178 -471 178 -471 176.5 -490.5 c 128,-1,36
 175 -510 175 -510 172 -533 c 2,37,-1
 166 -575 l 2,38,39
 165 -581 165 -581 164.5 -586.5 c 128,-1,40
 164 -592 164 -592 163 -598 c 2,41,-1
 156 -625 l 2,42,43
 150 -663 150 -663 144 -689 c 128,-1,44
 138 -715 138 -715 133 -726 c 1,45,-1
 133 -722 l 1,46,-1
 131 -704 l 1,47,-1
 125 -661 l 2,48,49
 120 -631 120 -631 114 -600 c 128,-1,50
 108 -569 108 -569 103 -540 c 0,51,52
 93 -484 93 -484 83 -424.5 c 128,-1,53
 73 -365 73 -365 63 -309 c 0,54,55
 44 -195 44 -195 31 -125 c 128,-1,56
 18 -55 18 -55 12 -35 c 1,57,58
 15 -26 15 -26 18.5 -17 c 128,-1,59
 22 -8 22 -8 25 1 c 1,60,-1
 24 0 l 1,61,-1
 40 30 l 2,62,63
 46 44 46 44 54 57 c 128,-1,64
 62 70 62 70 70 84 c 1,65,-1
 70 83 l 1,66,67
 76 91 76 91 84 100.5 c 128,-1,68
 92 110 92 110 98 118 c 1,69,70
 109 128 109 128 132.5 142.5 c 128,-1,71
 156 157 156 157 186 172 c 0,72,73
 232 190 232 190 279 203.5 c 128,-1,74
 326 217 326 217 361 217 c 2,75,-1
 397 215 l 2,76,77
 415 215 415 215 449 201 c 2,78,-1
 514 174 l 1,79,-1
 491 216 l 1,80,-1
 406 313 l 2,81,82
 355 361 355 361 302 361 c 0,83,84
 268 361 268 361 225 335 c 1,85,-1
 225 336 l 1,86,-1
 187 315 l 2,87,88
 178 310 178 310 170 304.5 c 128,-1,89
 162 299 162 299 153 294 c 1,90,91
 159 309 159 309 162.5 319.5 c 128,-1,92
 166 330 166 330 172 345 c 1,93,-1
 171 344 l 1,94,95
 278 480 278 480 393 480 c 0,96,97
 415 480 415 480 452 443 c 0,98,99
 462 435 462 435 474.5 422.5 c 128,-1,100
 487 410 487 410 499 396 c 0,101,102
 506 388 506 388 513 379.5 c 128,-1,103
 520 371 520 371 527 363 c 1,104,-1
 527 364 l 1,105,-1
 562 319 l 1,106,-1
 631 237 l 1,107,-1
 671 197 l 1,108,-1
 699 174 l 1,0,-1
EndSplineSet
Substitution2: "'fina' Terminal Forms in Arabic lookup 5 subtable" meemfinal
Substitution2: "'medi' Medial Forms in Arabic lookup 4 subtable" meemmedial
Substitution2: "'init' Initial Forms in Arabic lookup 3 subtable" meeminitial
Substitution2: "'isol' Isolated Forms in Arabic lookup 2 subtable" meemisolated
AlternateSubs2: "'aalt' Access All Alternates in Latin lookup 1 subtable" meemisolated meeminitial meemmedial meemfinal
EndChar

StartChar: noon
Encoding: 1606 1606 36
Width: 911
Flags: W
AnchorPoint: "ArabicBelow" 455 -603 basechar 0
AnchorPoint: "ArabicAbove" 455 1027 basechar 0
LayerCount: 2
Fore
SplineSet
501 695 m 1,0,1
 485 666 485 666 469 636.5 c 128,-1,2
 453 607 453 607 437 578 c 1,3,4
 397 601 397 601 359 622.5 c 128,-1,5
 321 644 321 644 281 667 c 1,6,7
 296 695 296 695 310.5 722 c 128,-1,8
 325 749 325 749 340 777 c 1,9,-1
 501 695 l 1,0,1
863 321 m 1,10,11
 866 308 866 308 870 294 c 128,-1,12
 874 280 874 280 877 266 c 0,13,14
 879 252 879 252 882.5 238 c 128,-1,15
 886 224 886 224 888 210 c 0,16,17
 890 186 890 186 892 161 c 128,-1,18
 894 136 894 136 896 113 c 2,19,-1
 896 102 l 2,20,21
 896 78 896 78 894.5 62 c 128,-1,22
 893 46 893 46 891 37 c 0,23,24
 888 10 888 10 882 -11 c 0,25,26
 878 -21 878 -21 874.5 -31.5 c 128,-1,27
 871 -42 871 -42 867 -52 c 1,28,-1
 867 -51 l 1,29,-1
 847 -95 l 2,30,31
 844 -103 844 -103 840 -112.5 c 128,-1,32
 836 -122 836 -122 833 -130 c 1,33,-1
 834 -129 l 1,34,35
 779 -214 779 -214 662 -280 c 1,36,-1
 662 -279 l 1,37,38
 522 -353 522 -353 322 -353 c 0,39,40
 174 -353 174 -353 90 -267 c 0,41,42
 74 -251 74 -251 60 -229.5 c 128,-1,43
 46 -208 46 -208 36 -183.5 c 128,-1,44
 26 -159 26 -159 20.5 -131.5 c 128,-1,45
 15 -104 15 -104 15 -77 c 0,46,47
 15 27 15 27 76 182 c 0,48,49
 130 322 130 322 167 335 c 1,50,51
 164 320 164 320 161.5 305.5 c 128,-1,52
 159 291 159 291 156 276 c 1,53,54
 120 185 120 185 101.5 126.5 c 128,-1,55
 83 68 83 68 83 45 c 0,56,57
 83 -92 83 -92 185 -161 c 0,58,59
 222 -182 222 -182 275.5 -197.5 c 128,-1,60
 329 -213 329 -213 386 -213 c 0,61,62
 440 -213 440 -213 506 -201 c 0,63,64
 513 -199 513 -199 521.5 -198 c 128,-1,65
 530 -197 530 -197 538 -195 c 1,66,67
 549 -195 549 -195 553 -193 c 1,68,-1
 552 -193 l 1,69,-1
 570 -187 l 1,70,-1
 643 -164 l 2,71,72
 734 -133 734 -133 778 -92.5 c 128,-1,73
 822 -52 822 -52 822 -4 c 0,74,75
 822 46 822 46 804 114 c 0,76,77
 802 123 802 123 800 131.5 c 128,-1,78
 798 140 798 140 793 148 c 1,79,-1
 794 147 l 1,80,81
 792 156 792 156 788.5 164.5 c 128,-1,82
 785 173 785 173 780 181 c 1,83,-1
 781 180 l 1,84,85
 776 195 776 195 766 214.5 c 128,-1,86
 756 234 756 234 744 256 c 0,87,88
 733 276 733 276 721.5 295.5 c 128,-1,89
 710 315 710 315 699 335 c 1,90,91
 720 373 720 373 740.5 410.5 c 128,-1,92
 761 448 761 448 781 487 c 1,93,94
 788 476 788 476 793 468 c 128,-1,95
 798 460 798 460 805 449 c 1,96,-1
 804 449 l 1,97,98
 812 432 812 432 821.5 415.5 c 128,-1,99
 831 399 831 399 839 382 c 1,100,-1
 839 383 l 1,101,-1
 863 321 l 1,10,11
EndSplineSet
Substitution2: "'fina' Terminal Forms in Arabic lookup 5 subtable" noonfinal
Substitution2: "'medi' Medial Forms in Arabic lookup 4 subtable" noonmedial
Substitution2: "'init' Initial Forms in Arabic lookup 3 subtable" nooninitial
Substitution2: "'isol' Isolated Forms in Arabic lookup 2 subtable" noonisolated
AlternateSubs2: "'aalt' Access All Alternates in Latin lookup 1 subtable" noonisolated nooninitial noonmedial noonfinal
EndChar

StartChar: heh
Encoding: 1607 1607 37
Width: 524
Flags: W
AnchorPoint: "ArabicBelow" 262 -283 basechar 0
AnchorPoint: "ArabicAbove" 262 822 basechar 0
LayerCount: 2
Fore
SplineSet
371 179 m 1,0,1
 399 203 399 203 407 243 c 1,2,3
 407 295 407 295 324 352 c 2,4,-1
 292 371 l 1,5,-1
 243 398 l 1,6,-1
 191 330 l 2,7,8
 167 298 167 298 152.5 275 c 128,-1,9
 138 252 138 252 133 239 c 1,10,-1
 127 203 l 1,11,-1
 124 181 l 2,12,13
 124 115 124 115 192 115 c 0,14,15
 207 115 207 115 213 117 c 2,16,17
 244 120 244 120 267.5 127.5 c 128,-1,18
 291 135 291 135 322 152 c 1,19,-1
 321 152 l 1,20,21
 331 155 331 155 342.5 161.5 c 128,-1,22
 354 168 354 168 370 179 c 1,23,-1
 371 179 l 1,0,1
463 463 m 1,24,25
 479 448 479 448 500 410 c 1,26,-1
 500 411 l 1,27,-1
 510 381 l 1,28,29
 511 373 511 373 512.5 366 c 128,-1,30
 514 359 514 359 515 351 c 0,31,32
 515 331 515 331 508 303 c 128,-1,33
 501 275 501 275 488 242 c 0,34,35
 480 224 480 224 473 205 c 128,-1,36
 466 186 466 186 458 168 c 1,37,-1
 459 168 l 1,38,39
 438 141 438 141 417 116.5 c 128,-1,40
 396 92 396 92 379 74 c 0,41,42
 342 42 342 42 293 15.5 c 128,-1,43
 244 -11 244 -11 195 -24 c 0,44,45
 187 -26 187 -26 177.5 -27 c 128,-1,46
 168 -28 168 -28 160 -30 c 1,47,-1
 161 -30 l 1,48,49
 153 -31 153 -31 142 -31.5 c 128,-1,50
 131 -32 131 -32 123 -33 c 1,51,52
 101 -32 101 -32 79.5 -27.5 c 128,-1,53
 58 -23 58 -23 44 -15 c 0,54,55
 11 8 11 8 9 54 c 1,56,57
 11 63 11 63 12 74.5 c 128,-1,58
 13 86 13 86 15 96 c 2,59,-1
 30 144 l 2,60,61
 35 158 35 158 41 171 c 128,-1,62
 47 184 47 184 52 198 c 1,63,-1
 52 197 l 1,64,65
 78 258 78 258 112 310 c 0,66,67
 148 369 148 369 195.5 434.5 c 128,-1,68
 243 500 243 500 300 572 c 1,69,70
 311 561 311 561 331.5 546.5 c 128,-1,71
 352 532 352 532 385 514 c 0,72,73
 451 478 451 478 463 463 c 1,24,25
EndSplineSet
Substitution2: "'fina' Terminal Forms in Arabic lookup 5 subtable" hehfinal
Substitution2: "'medi' Medial Forms in Arabic lookup 4 subtable" hehmedial
Substitution2: "'init' Initial Forms in Arabic lookup 3 subtable" hehinitial
Substitution2: "'isol' Isolated Forms in Arabic lookup 2 subtable" hehisolated
AlternateSubs2: "'aalt' Access All Alternates in Latin lookup 1 subtable" hehisolated hehinitial hehmedial hehfinal
EndChar

StartChar: waw
Encoding: 1608 1608 38
Width: 759
Flags: W
AnchorPoint: "ArabicBelow" 379 -680 basechar 0
AnchorPoint: "ArabicAbove" 379 805 basechar 0
LayerCount: 2
Fore
SplineSet
619 223 m 1,0,1
 619 272 619 272 588 326 c 0,2,3
 552 389 552 389 506 389 c 0,4,5
 486 389 486 389 468 377 c 1,6,-1
 468 378 l 1,7,8
 460 374 460 374 448 363.5 c 128,-1,9
 436 353 436 353 424 341 c 0,10,11
 404 320 404 320 393 300.5 c 128,-1,12
 382 281 382 281 384 266 c 0,13,14
 384 242 384 242 423 212 c 0,15,16
 463 187 463 187 524 187 c 2,17,-1
 556 188 l 2,18,19
 569 188 569 188 583 195 c 1,20,21
 601 199 601 199 618 221 c 1,22,-1
 619 223 l 1,0,1
721 205 m 0,23,24
 721 144 721 144 716.5 93 c 128,-1,25
 712 42 712 42 702 2 c 0,26,27
 694 -40 694 -40 677 -83.5 c 128,-1,28
 660 -127 660 -127 631 -182 c 0,29,30
 602 -239 602 -239 568.5 -284 c 128,-1,31
 535 -329 535 -329 494 -362 c 0,32,33
 455 -395 455 -395 415 -412 c 0,34,35
 379 -430 379 -430 344 -430 c 0,36,37
 290 -430 290 -430 230.5 -421 c 128,-1,38
 171 -412 171 -412 106 -393 c 0,39,40
 -16 -360 -16 -360 -27 -336 c 1,41,42
 -25 -334 -25 -334 -19.5 -331.5 c 128,-1,43
 -14 -329 -14 -329 -8 -326 c 1,44,45
 -1 -326 -1 -326 5 -326.5 c 128,-1,46
 11 -327 11 -327 18 -327 c 1,47,48
 25 -329 25 -329 32 -330.5 c 128,-1,49
 39 -332 39 -332 47 -334 c 0,50,51
 95 -345 95 -345 132 -351.5 c 128,-1,52
 169 -358 169 -358 186 -358 c 2,53,-1
 200 -358 l 1,54,-1
 219 -356 l 2,55,56
 233 -356 233 -356 239 -354 c 1,57,58
 241 -352 241 -352 245.5 -350.5 c 128,-1,59
 250 -349 250 -349 252 -348 c 0,60,61
 315 -326 315 -326 384 -280 c 128,-1,62
 453 -234 453 -234 525 -165 c 0,63,64
 670 -23 670 -23 670 91 c 0,65,66
 670 120 670 120 664.5 145 c 128,-1,67
 659 170 659 170 649 191 c 1,68,69
 629 146 629 146 609.5 115.5 c 128,-1,70
 590 85 590 85 564 62 c 1,71,-1
 565 62 l 1,72,73
 560 59 560 59 554 55.5 c 128,-1,74
 548 52 548 52 543 49 c 1,75,-1
 543 50 l 1,76,77
 538 48 538 48 531.5 45.5 c 128,-1,78
 525 43 525 43 520 41 c 1,79,80
 510 40 510 40 501.5 39 c 128,-1,81
 493 38 493 38 483 37 c 2,82,-1
 459 37 l 1,83,-1
 449 39 l 1,84,85
 398 39 398 39 367 93 c 0,86,87
 335 148 335 148 335 225 c 0,88,89
 335 296 335 296 418 426 c 0,90,91
 501 555 501 555 557 555 c 0,92,93
 598 555 598 555 655 446 c 0,94,95
 721 323 721 323 721 205 c 0,23,24
EndSplineSet
Substitution2: "'fina' Terminal Forms in Arabic lookup 5 subtable" wawfinal
Substitution2: "'isol' Isolated Forms in Arabic lookup 2 subtable" wawisolated
AlternateSubs2: "'aalt' Access All Alternates in Latin lookup 1 subtable" wawisolated wawfinal
EndChar

StartChar: alefmaksura
Encoding: 1609 1609 39
Width: 1060
Flags: W
AnchorPoint: "ArabicBelow" 530 -594 basechar 0
AnchorPoint: "ArabicAbove" 530 941 basechar 0
LayerCount: 2
Fore
SplineSet
1027 558 m 2,0,1
 1023 543 1023 543 1020 529 c 128,-1,2
 1017 515 1017 515 1013 500 c 1,3,4
 1007 508 1007 508 996.5 516.5 c 128,-1,5
 986 525 986 525 970 533 c 2,6,-1
 947 541 l 1,7,-1
 917 547 l 1,8,9
 882 547 882 547 851.5 537 c 128,-1,10
 821 527 821 527 787 501 c 0,11,12
 752 477 752 477 720 447 c 128,-1,13
 688 417 688 417 660 382 c 0,14,15
 605 312 605 312 596 267 c 1,16,17
 596 240 596 240 655 203 c 0,18,19
 676 193 676 193 767 172 c 0,20,21
 920 151 920 151 942 138 c 1,22,23
 962 132 962 132 965 101 c 0,24,25
 965 85 965 85 963.5 69 c 128,-1,26
 962 53 962 53 959 39 c 0,27,28
 957 30 957 30 954.5 20 c 128,-1,29
 952 10 952 10 950 1 c 1,30,-1
 938 -29 l 2,31,32
 931 -49 931 -49 925 -64.5 c 128,-1,33
 919 -80 919 -80 911 -92 c 2,34,35
 905 -108 905 -108 887 -130 c 1,36,37
 876 -139 876 -139 864.5 -149 c 128,-1,38
 853 -159 853 -159 842 -168 c 2,39,-1
 793 -204 l 2,40,41
 783 -210 783 -210 771 -218 c 128,-1,42
 759 -226 759 -226 749 -232 c 0,43,44
 735 -240 735 -240 721 -247.5 c 128,-1,45
 707 -255 707 -255 693 -263 c 1,46,-1
 693 -262 l 1,47,48
 667 -276 667 -276 636 -287 c 128,-1,49
 605 -298 605 -298 570 -308 c 0,50,51
 553 -312 553 -312 534.5 -316 c 128,-1,52
 516 -320 516 -320 499 -324 c 0,53,54
 478 -328 478 -328 456.5 -332 c 128,-1,55
 435 -336 435 -336 413 -340 c 1,56,-1
 414 -340 l 1,57,-1
 389 -342 l 1,58,-1
 346 -344 l 2,59,60
 214 -344 214 -344 131 -300 c 0,61,62
 10 -236 10 -236 10 -95 c 0,63,64
 10 -74 10 -74 10.5 -52.5 c 128,-1,65
 11 -31 11 -31 11 -11 c 0,66,67
 13 8 13 8 15 28 c 128,-1,68
 17 48 17 48 19 67 c 0,69,70
 21 81 21 81 23.5 98 c 128,-1,71
 26 115 26 115 28 129 c 2,72,-1
 35 162 l 2,73,74
 38 181 38 181 39 182 c 1,75,76
 42 189 42 189 45 198 c 1,77,-1
 45 197 l 1,78,79
 59 229 59 229 72.5 260 c 128,-1,80
 86 291 86 291 101 323 c 1,81,82
 101 322 101 322 105 308 c 1,83,-1
 74 163 l 2,84,85
 66 121 66 121 61.5 93.5 c 128,-1,86
 57 66 57 66 57 51 c 2,87,-1
 57 27 l 2,88,89
 57 13 57 13 62 6 c 1,90,-1
 61 7 l 1,91,92
 90 -124 90 -124 212 -168 c 0,93,94
 281 -192 281 -192 451 -192 c 2,95,-1
 513 -189 l 1,96,-1
 546 -186 l 1,97,98
 554 -184 554 -184 562.5 -182.5 c 128,-1,99
 571 -181 571 -181 579 -179 c 0,100,101
 614 -173 614 -173 649 -163 c 128,-1,102
 684 -153 684 -153 717 -139 c 1,103,-1
 716 -139 l 1,104,105
 840 -98 840 -98 879 -48 c 1,106,107
 879 11 879 11 703 26 c 0,108,109
 665 26 665 26 630 31.5 c 128,-1,110
 595 37 595 37 574 51 c 0,111,112
 555 62 555 62 542 80.5 c 128,-1,113
 529 99 529 99 523 122 c 1,114,115
 525 195 525 195 559.5 286.5 c 128,-1,116
 594 378 594 378 657 474 c 0,117,118
 729 580 729 580 805 635.5 c 128,-1,119
 881 691 881 691 957 691 c 0,120,121
 1000 691 1000 691 1022 678 c 0,122,123
 1034 673 1034 673 1050 632 c 1,124,-1
 1027 558 l 2,0,1
EndSplineSet
Substitution2: "'fina' Terminal Forms in Arabic lookup 5 subtable" alefmaksurafinal
Substitution2: "'isol' Isolated Forms in Arabic lookup 2 subtable" alefmaksuraisolated
AlternateSubs2: "'aalt' Access All Alternates in Latin lookup 1 subtable" alefmaksuraisolated alefmaksurafinal
EndChar

StartChar: yeh
Encoding: 1610 1610 40
Width: 1117
Flags: W
AnchorPoint: "ArabicBelow" 558 -993 basechar 0
AnchorPoint: "ArabicAbove" 558 941 basechar 0
LayerCount: 2
Fore
SplineSet
775 -635 m 1,0,1
 758 -663 758 -663 742 -689.5 c 128,-1,2
 726 -716 726 -716 709 -743 c 1,3,-1
 547 -647 l 1,4,5
 535 -668 535 -668 520 -692 c 128,-1,6
 505 -716 505 -716 493 -737 c 1,7,8
 450 -712 450 -712 410 -689 c 128,-1,9
 370 -666 370 -666 328 -641 c 1,10,11
 345 -611 345 -611 360.5 -584 c 128,-1,12
 376 -557 376 -557 393 -528 c 1,13,-1
 557 -625 l 1,14,15
 569 -605 569 -605 583.5 -581 c 128,-1,16
 598 -557 598 -557 610 -536 c 1,17,-1
 775 -635 l 1,0,1
1086 593 m 1,18,-1
 1071 546 l 2,19,20
 1068 534 1068 534 1064.5 523 c 128,-1,21
 1061 512 1061 512 1057 500 c 1,22,23
 1051 508 1051 508 1040.5 516.5 c 128,-1,24
 1030 525 1030 525 1015 533 c 1,25,-1
 991 541 l 1,26,-1
 961 547 l 1,27,28
 936 547 936 547 894 535 c 0,29,30
 879 529 879 529 862 520.5 c 128,-1,31
 845 512 845 512 830 501 c 0,32,33
 795 478 795 478 762 446.5 c 128,-1,34
 729 415 729 415 697 377 c 0,35,36
 640 302 640 302 640 266 c 0,37,38
 640 241 640 241 697 205 c 1,39,40
 741 186 741 186 814 170 c 0,41,42
 852 165 852 165 891.5 160 c 128,-1,43
 931 155 931 155 969 150 c 0,44,45
 1047 133 1047 133 1047 95 c 0,46,47
 1047 36 1047 36 1016 -42 c 1,48,-1
 1016 -41 l 1,49,-1
 966 -140 l 1,50,-1
 967 -140 l 1,51,52
 922 -204 922 -204 740 -275 c 0,53,54
 558 -344 558 -344 360 -344 c 0,55,56
 249 -344 249 -344 155 -293 c 1,57,-1
 155 -294 l 1,58,59
 24 -218 24 -218 24 -49 c 0,60,61
 24 93 24 93 60 233 c 0,62,63
 94 371 94 371 131 371 c 0,64,65
 135 371 135 371 138 365.5 c 128,-1,66
 141 360 141 360 143 355 c 1,67,-1
 95 190 l 1,68,-1
 80 118 l 1,69,-1
 75 53 l 2,70,71
 75 -78 75 -78 224 -148 c 0,72,73
 347 -194 347 -194 495 -194 c 0,74,75
 561 -194 561 -194 632 -182 c 128,-1,76
 703 -170 703 -170 772 -148 c 0,77,78
 844 -126 844 -126 892 -103 c 128,-1,79
 940 -80 940 -80 960 -57 c 1,80,81
 960 -28 960 -28 908 -8 c 128,-1,82
 856 12 856 12 759 21 c 0,83,84
 667 31 667 31 617 55.5 c 128,-1,85
 567 80 567 80 567 121 c 0,86,87
 567 196 567 196 601 285 c 128,-1,88
 635 374 635 374 701 474 c 0,89,90
 773 580 773 580 849 635.5 c 128,-1,91
 925 691 925 691 1001 691 c 0,92,93
 1044 691 1044 691 1070 676 c 0,94,95
 1073 674 1073 674 1093 630 c 1,96,-1
 1086 593 l 1,18,-1
EndSplineSet
Substitution2: "'fina' Terminal Forms in Arabic lookup 5 subtable" yehfinal
Substitution2: "'medi' Medial Forms in Arabic lookup 4 subtable" yehmedial
Substitution2: "'init' Initial Forms in Arabic lookup 3 subtable" yehinitial
Substitution2: "'isol' Isolated Forms in Arabic lookup 2 subtable" yehisolated
AlternateSubs2: "'aalt' Access All Alternates in Latin lookup 1 subtable" yehisolated yehinitial yehmedial yehfinal
EndChar

StartChar: fathatan
Encoding: 1611 1611 41
Width: 0
Flags: W
AnchorPoint: "ArabicAboveLigature" 230 1275 mark 0
AnchorPoint: "ArabicAbove" 230 1275 mark 0
LayerCount: 2
Fore
SplineSet
398 2164 m 1,0,1
 398 2098 398 2098 363 2078 c 2,2,-1
 60 1906 l 1,3,4
 63 1944 63 1944 74 1965 c 0,5,6
 86 1985 86 1985 126 2007 c 2,7,-1
 398 2164 l 1,0,1
398 2018 m 1,8,9
 398 1952 398 1952 363 1932 c 2,10,-1
 60 1760 l 1,11,12
 63 1798 63 1798 74 1819 c 0,13,14
 86 1839 86 1839 126 1861 c 2,15,-1
 398 2018 l 1,8,9
EndSplineSet
AlternateSubs2: "'aalt' Access All Alternates in Latin lookup 1 subtable" fathatanisolated fathatanlow
EndChar

StartChar: dammatan
Encoding: 1612 1612 42
Width: 0
Flags: W
AnchorPoint: "ArabicAboveLigature" 230 1275 mark 0
AnchorPoint: "ArabicAbove" 230 1275 mark 0
LayerCount: 2
Fore
SplineSet
396 1582 m 0,0,1
 396 1565 396 1565 395.5 1550 c 128,-1,2
 395 1535 395 1535 394 1523 c 1,3,4
 374 1534 374 1534 351 1548.5 c 128,-1,5
 328 1563 328 1563 302 1582 c 1,6,7
 176 1453 176 1453 62 1437 c 1,8,9
 105 1526 105 1526 105 1566 c 0,10,11
 105 1621 105 1621 56 1621 c 0,12,13
 14 1621 14 1621 7 1545 c 1,14,15
 -3 1574 -3 1574 -3 1597 c 256,16,17
 -3 1620 -3 1620 3.5 1640 c 128,-1,18
 10 1660 10 1660 21.5 1675 c 128,-1,19
 33 1690 33 1690 48 1698.5 c 128,-1,20
 63 1707 63 1707 81 1707 c 0,21,22
 148 1707 148 1707 148 1607 c 2,23,-1
 142 1515 l 1,24,25
 207 1540 207 1540 266 1605 c 1,26,27
 200 1648 200 1648 200 1699 c 0,28,29
 200 1752 200 1752 240 1798 c 0,30,31
 280 1846 280 1846 322 1846 c 0,32,33
 344 1846 344 1846 367 1819 c 0,34,35
 390 1793 390 1793 390 1766 c 0,36,37
 390 1736 390 1736 379 1708 c 0,38,-1
 357 1652 l 1,39,40
 396 1622 396 1622 396 1582 c 0,0,1
320 1726 m 0,41,42
 320 1779 320 1779 279 1779 c 0,43,44
 253 1779 253 1779 253 1756 c 0,45,46
 253 1730 253 1730 316 1687 c 1,47,48
 320 1696 320 1696 320 1726 c 0,41,42
EndSplineSet
AlternateSubs2: "'aalt' Access All Alternates in Latin lookup 1 subtable" dammatanisolated dammatanlow
EndChar

StartChar: kasratan
Encoding: 1613 1613 43
Width: 0
Flags: W
AnchorPoint: "ArabicBelowLigature" 165 -500 mark 0
AnchorPoint: "ArabicBelow" 165 -500 mark 0
LayerCount: 2
Fore
SplineSet
339 -620 m 1,0,1
 339 -686 339 -686 304 -706 c 2,2,-1
 1 -878 l 1,3,4
 4 -840 4 -840 15 -818 c 1,5,6
 28 -800 28 -800 67 -777 c 2,7,-1
 339 -620 l 1,0,1
339 -767 m 1,8,9
 339 -833 339 -833 304 -853 c 2,10,-1
 1 -1025 l 1,11,12
 4 -987 4 -987 15 -965 c 1,13,14
 28 -947 28 -947 67 -924 c 2,15,-1
 339 -767 l 1,8,9
EndSplineSet
AlternateSubs2: "'aalt' Access All Alternates in Latin lookup 1 subtable" kasratanisolated kasratanlow
EndChar

StartChar: fatha
Encoding: 1614 1614 44
Width: 0
Flags: W
AnchorPoint: "ArabicAboveLigature" 230 1275 mark 0
AnchorPoint: "ArabicAbove" 230 1275 mark 0
LayerCount: 2
Fore
SplineSet
283 1910 m 1,0,1
 283 1856 283 1856 254 1839 c 2,2,-1
 5 1698 l 1,3,4
 7 1732 7 1732 16 1747 c 0,5,6
 26 1762 26 1762 59 1781 c 2,7,-1
 283 1910 l 1,0,1
EndSplineSet
AlternateSubs2: "'aalt' Access All Alternates in Latin lookup 1 subtable" fathaisolated fathalow
EndChar

StartChar: damma
Encoding: 1615 1615 45
Width: 0
Flags: W
AnchorPoint: "ArabicAboveLigature" 230 1275 mark 0
AnchorPoint: "ArabicAbove" 230 1275 mark 0
LayerCount: 2
Fore
SplineSet
280 1883 m 1,0,-1
 273 1802 l 1,1,-1
 208 1845 l 1,2,3
 109 1727 109 1727 46 1727 c 0,4,5
 28 1727 28 1727 -2 1737 c 1,6,7
 40 1760 40 1760 83.5 1791.5 c 128,-1,8
 127 1823 127 1823 173 1865 c 1,9,10
 123 1903 123 1903 123 1938 c 0,11,12
 123 1988 123 1988 159 2041 c 0,13,14
 185 2076 185 2076 218 2076 c 0,15,16
 273 2076 273 2076 273 2004 c 0,17,18
 273 1962 273 1962 248 1908 c 1,19,20
 254 1904 254 1904 262 1897.5 c 128,-1,21
 270 1891 270 1891 280 1883 c 1,0,-1
223 1956 m 0,22,23
 223 1974 223 1974 209.5 1990 c 128,-1,24
 196 2006 196 2006 179 2006 c 0,25,26
 164 2006 164 2006 164 1989 c 0,27,28
 164 1964 164 1964 218 1928 c 1,29,30
 223 1948 223 1948 223 1956 c 0,22,23
EndSplineSet
AlternateSubs2: "'aalt' Access All Alternates in Latin lookup 1 subtable" dammaisolated dammalow
EndChar

StartChar: kasra
Encoding: 1616 1616 46
Width: 0
Flags: W
AnchorPoint: "ArabicBelowLigature" 165 -500 mark 0
AnchorPoint: "ArabicBelow" 165 -500 mark 0
LayerCount: 2
Fore
SplineSet
351 -620 m 1,0,1
 351 -686 351 -686 316 -706 c 2,2,-1
 13 -878 l 1,3,4
 16 -840 16 -840 27 -818 c 1,5,6
 40 -800 40 -800 79 -777 c 2,7,-1
 351 -620 l 1,0,1
EndSplineSet
AlternateSubs2: "'aalt' Access All Alternates in Latin lookup 1 subtable" kasraisolated kasralow
EndChar

StartChar: shadda
Encoding: 1617 1617 47
Width: 0
Flags: W
AnchorPoint: "ArabicAboveLigature" 300 1650 mark 0
AnchorPoint: "ArabicAbove" 300 1650 mark 0
LayerCount: 2
Fore
SplineSet
355 1683 m 0,0,1
 355 1515 355 1515 251 1515 c 0,2,3
 215 1515 215 1515 187 1536 c 1,4,5
 179 1501 179 1501 148 1476 c 0,6,7
 116 1450 116 1450 83 1450 c 0,8,9
 1 1450 1 1450 1 1558 c 0,10,11
 1 1583 1 1583 23 1659 c 1,12,-1
 46 1663 l 1,13,14
 46 1552 46 1552 85 1552 c 0,15,16
 149 1552 149 1552 175 1714 c 1,17,-1
 193 1720 l 1,18,19
 216 1622 216 1622 251 1622 c 0,20,21
 309 1622 309 1622 318 1769 c 1,22,-1
 341 1779 l 1,23,24
 355 1718 355 1718 355 1683 c 0,0,1
EndSplineSet
AlternateSubs2: "'aalt' Access All Alternates in Latin lookup 1 subtable" shaddaisolated shaddalow
EndChar

StartChar: sukun
Encoding: 1618 1618 48
Width: 0
Flags: W
AnchorPoint: "ArabicAboveLigature" 230 1275 mark 0
AnchorPoint: "ArabicAbove" 230 1275 mark 0
LayerCount: 2
Fore
SplineSet
260 1614 m 0,0,1
 260 1549 260 1549 214 1500 c 0,2,3
 167 1450 167 1450 109 1450 c 0,4,5
 2 1450 2 1450 2 1571 c 0,6,7
 2 1655 2 1655 40 1708 c 0,8,9
 77 1762 77 1762 139 1762 c 0,10,11
 186 1762 186 1762 223 1716 c 0,12,13
 260 1673 260 1673 260 1614 c 0,0,1
205 1590 m 0,14,15
 205 1616 205 1616 162 1647 c 0,16,17
 121 1676 121 1676 94 1676 c 0,18,19
 35 1676 35 1676 35 1608 c 0,20,21
 35 1549 35 1549 127 1549 c 0,22,23
 205 1549 205 1549 205 1590 c 0,14,15
EndSplineSet
AlternateSubs2: "'aalt' Access All Alternates in Latin lookup 1 subtable" sukunisolated sukunlow
EndChar

StartChar: arabicindicdigitzero
Encoding: 1632 1632 49
Width: 466
Flags: W
LayerCount: 2
Fore
SplineSet
362 449 m 1,0,-1
 292 205 l 1,1,-1
 98 325 l 1,2,-1
 168 569 l 1,3,-1
 362 449 l 1,0,-1
EndSplineSet
EndChar

StartChar: arabicindicdigitone
Encoding: 1633 1633 50
Width: 502
Flags: W
LayerCount: 2
Fore
SplineSet
404 134 m 2,0,1
 404 83 404 83 401 46.5 c 128,-1,2
 398 10 398 10 393 -15 c 1,3,-1
 393 -16 l 1,4,5
 385 -66 385 -66 367 -66 c 0,6,7
 355 -66 355 -66 342 0 c 0,8,9
 319 147 319 147 302.5 235 c 128,-1,10
 286 323 286 323 272 359 c 0,11,12
 258 394 258 394 246 425 c 128,-1,13
 234 456 234 456 222 484 c 0,14,15
 211 510 211 510 199 533.5 c 128,-1,16
 187 557 187 557 174 581 c 2,17,-1
 104 701 l 1,18,19
 105 714 105 714 106 723 c 128,-1,20
 107 732 107 732 109 738 c 0,21,22
 113 750 113 750 119.5 770.5 c 128,-1,23
 126 791 126 791 138 827 c 0,24,25
 171 917 171 917 177 919 c 1,26,27
 191 914 191 914 236 847 c 0,28,29
 265 805 265 805 291.5 749 c 128,-1,30
 318 693 318 693 344 618 c 0,31,32
 357 573 357 573 367.5 526 c 128,-1,33
 378 479 378 479 387 428 c 0,34,35
 395 377 395 377 399 329 c 128,-1,36
 403 281 403 281 403 235 c 2,37,-1
 403 199 l 1,38,-1
 404 134 l 2,0,1
EndSplineSet
EndChar

StartChar: arabicindicdigittwo
Encoding: 1634 1634 51
Width: 724
Flags: W
LayerCount: 2
Fore
SplineSet
183 720 m 1,0,-1
 183 792 l 2,1,2
 185 812 185 812 189 834.5 c 128,-1,3
 193 857 193 857 204 875 c 0,4,5
 228 915 228 915 281.5 931 c 128,-1,6
 335 947 335 947 400 950 c 128,-1,7
 465 953 465 953 531 948 c 128,-1,8
 597 943 597 943 673 930 c 1,9,10
 654 809 654 809 648 782 c 1,11,12
 632 788 632 788 569 795.5 c 128,-1,13
 506 803 506 803 484 802 c 128,-1,14
 462 801 462 801 454 800 c 0,15,16
 401 795 401 795 373 777.5 c 128,-1,17
 345 760 345 760 335.5 734.5 c 128,-1,18
 326 709 326 709 330.5 676.5 c 128,-1,19
 335 644 335 644 347.5 609 c 128,-1,20
 360 574 360 574 375.5 538 c 128,-1,21
 391 502 391 502 404 470 c 0,22,23
 405 467 405 467 407 462.5 c 128,-1,24
 409 458 409 458 413 444.5 c 128,-1,25
 417 431 417 431 424.5 404.5 c 128,-1,26
 432 378 432 378 444 331 c 2,27,-1
 460 233 l 1,28,-1
 467 155 l 1,29,-1
 470 73 l 2,30,31
 470 -78 470 -78 440 -78 c 0,32,33
 420 -78 420 -78 402 19 c 0,34,35
 388 95 388 95 369 178 c 0,36,37
 362 211 362 211 348 248 c 2,38,-1
 329 311 l 2,39,40
 297 402 297 402 265.5 475 c 128,-1,41
 234 548 234 548 209 631 c 2,42,-1
 183 720 l 1,0,-1
EndSplineSet
EndChar

StartChar: arabicindicdigitthree
Encoding: 1635 1635 52
Width: 939
Flags: W
LayerCount: 2
Fore
SplineSet
765 964 m 1,0,1
 766 964 766 964 766.5 964.5 c 128,-1,2
 767 965 767 965 768 965 c 1,3,-1
 765 964 l 1,0,1
768 944 m 1,4,5
 771 944 771 944 776 940 c 1,6,-1
 779 927 l 1,7,-1
 781 898 l 2,8,9
 781 856 781 856 773 813 c 128,-1,10
 765 770 765 770 748 720 c 0,11,12
 714 618 714 618 669 602 c 1,13,-1
 668 601 l 1,14,15
 659 599 659 599 650 597.5 c 128,-1,16
 641 596 641 596 637 596 c 0,17,18
 601 596 601 596 568 613 c 1,19,-1
 567 613 l 1,20,-1
 530 630 l 1,21,-1
 510 640 l 1,22,-1
 496 651 l 1,23,-1
 483 649 l 1,24,25
 459 619 459 619 436 599.5 c 128,-1,26
 413 580 413 580 392 569 c 2,27,-1
 353 555 l 1,28,-1
 346 538 l 1,29,-1
 361 472 l 1,30,-1
 376 395 l 1,31,-1
 383 330 l 1,32,-1
 390 273 l 1,33,-1
 390 117 l 2,34,35
 390 61 390 61 389 22.5 c 128,-1,36
 388 -16 388 -16 384 -40.5 c 128,-1,37
 380 -65 380 -65 374 -75.5 c 128,-1,38
 368 -86 368 -86 358 -86 c 0,39,40
 340 -86 340 -86 325 66 c 0,41,42
 309 230 309 230 272 348 c 0,43,44
 259 394 259 394 246.5 434 c 128,-1,45
 234 474 234 474 221 508 c 0,46,47
 208 545 208 545 197.5 573.5 c 128,-1,48
 187 602 187 602 178 623 c 1,49,-1
 177 624 l 1,50,-1
 123 732 l 1,51,-1
 100 778 l 1,52,-1
 122 831 l 2,53,54
 137 862 137 862 152.5 887 c 128,-1,55
 168 912 168 912 184 933 c 1,56,-1
 242 858 l 2,57,58
 319 762 319 762 369 762 c 0,59,60
 384 762 384 762 401 772 c 0,61,62
 455 815 455 815 487 872 c 2,63,-1
 553 981 l 1,64,65
 563 981 563 981 563 950 c 2,66,-1
 563 923 l 1,67,-1
 565 896 l 1,68,-1
 565 894 l 1,69,70
 570 875 570 875 600 846 c 1,71,-1
 600 845 l 1,72,73
 616 833 616 833 633 826 c 128,-1,74
 650 819 650 819 669 819 c 0,75,76
 695 819 695 819 718 848 c 2,77,-1
 721 852 l 1,78,-1
 746 918 l 2,79,80
 754 936 754 936 768 944 c 1,4,5
EndSplineSet
EndChar

StartChar: arabicindicdigitfour
Encoding: 1636 1636 53
Width: 630
Flags: W
LayerCount: 2
Fore
SplineSet
462 -64 m 1,0,-1
 457 -64 l 2,1,2
 402 -64 402 -64 289 -24 c 0,3,4
 116 28 116 28 116 107 c 0,5,6
 116 125 116 125 128.5 154 c 128,-1,7
 141 183 141 183 164 218 c 2,8,-1
 286 386 l 1,9,-1
 288 396 l 1,10,11
 288 416 288 416 188 484 c 0,12,13
 165 498 165 498 145.5 515 c 128,-1,14
 126 532 126 532 112 547 c 1,15,16
 111 555 111 555 110.5 561 c 128,-1,17
 110 567 110 567 109 575 c 0,18,19
 109 598 109 598 115.5 622.5 c 128,-1,20
 122 647 122 647 134 675 c 1,21,-1
 134 674 l 1,22,23
 158 720 158 720 193.5 764.5 c 128,-1,24
 229 809 229 809 274 850 c 0,25,26
 312 882 312 882 344 904 c 128,-1,27
 376 926 376 926 396 933 c 1,28,29
 390 896 390 896 385.5 864 c 128,-1,30
 381 832 381 832 376 795 c 1,31,-1
 311 775 l 1,32,33
 237 740 237 740 226 703 c 1,34,35
 226 670 226 670 309 621 c 0,36,37
 343 605 343 605 374.5 589.5 c 128,-1,38
 406 574 406 574 439 559 c 1,39,-1
 440 551 l 2,40,41
 440 533 440 533 423 501.5 c 128,-1,42
 406 470 406 470 377 433 c 2,43,-1
 295 346 l 2,44,45
 273 324 273 324 251 286 c 0,46,47
 239 266 239 266 237 247.5 c 128,-1,48
 235 229 235 229 240 215 c 1,49,-1
 244 209 l 1,50,51
 251 204 251 204 267 195.5 c 128,-1,52
 283 187 283 187 311 176 c 2,53,-1
 426 134 l 2,54,55
 444 129 444 129 462 124.5 c 128,-1,56
 480 120 480 120 499 115 c 0,57,58
 505 113 505 113 510 111 c 128,-1,59
 515 109 515 109 521 107 c 1,60,-1
 462 -64 l 1,0,-1
EndSplineSet
EndChar

StartChar: arabicindicdigitfive
Encoding: 1637 1637 54
Width: 740
Flags: W
LayerCount: 2
Fore
SplineSet
555 359 m 1,0,1
 560 364 560 364 560.5 367 c 128,-1,2
 561 370 561 370 561 374 c 0,3,4
 561 390 561 390 542.5 420.5 c 128,-1,5
 524 451 524 451 487 502 c 1,6,-1
 486 502 l 1,7,8
 388 624 388 624 313 624 c 0,9,10
 288 624 288 624 244 547 c 0,11,12
 202 472 202 472 202 411 c 2,13,-1
 202 410 l 1,14,-1
 206 368 l 1,15,16
 213 346 213 346 261 319 c 1,17,-1
 263 319 l 1,18,-1
 282 312 l 1,19,-1
 283 311 l 1,20,-1
 314 304 l 1,21,-1
 316 304 l 1,22,-1
 374 300 l 1,23,-1
 396 300 l 1,24,-1
 421 301 l 1,25,-1
 422 301 l 2,26,27
 442 303 442 303 448 306 c 1,28,-1
 473 313 l 2,29,30
 500 320 500 320 520.5 332 c 128,-1,31
 541 344 541 344 556 359 c 1,32,-1
 555 359 l 1,0,1
640 494 m 2,33,34
 640 423 640 423 616 321 c 0,35,36
 593 225 593 225 563 198 c 0,37,38
 513 159 513 159 442 130 c 0,39,40
 425 124 425 124 408 119.5 c 128,-1,41
 391 115 391 115 372 110 c 2,42,-1
 338 105 l 1,43,-1
 305 103 l 2,44,45
 262 103 262 103 221 116.5 c 128,-1,46
 180 130 180 130 143 172 c 0,47,48
 103 215 103 215 103 305 c 0,49,50
 103 454 103 454 206 641 c 0,51,52
 307 823 307 823 390 823 c 0,53,54
 447 823 447 823 522 737 c 0,55,56
 596 651 596 651 635 542 c 1,57,-1
 639 516 l 1,58,-1
 640 494 l 2,33,34
EndSplineSet
EndChar

StartChar: arabicindicdigitsix
Encoding: 1638 1638 55
Width: 770
Flags: W
LayerCount: 2
Fore
SplineSet
634 -57 m 2,0,1
 632 -57 632 -57 632 -55 c 1,2,3
 635 -57 635 -57 636 -57 c 1,4,-1
 634 -57 l 2,0,1
675 150 m 2,5,6
 674 138 674 138 668 107 c 128,-1,7
 662 76 662 76 652 31 c 0,8,9
 630 -43 630 -43 632 -55 c 1,10,11
 621 -48 621 -48 602 -19.5 c 128,-1,12
 583 9 583 9 560 54 c 0,13,14
 522 129 522 129 502 210 c 128,-1,15
 482 291 482 291 482 375 c 2,16,-1
 482 474 l 2,17,18
 485 519 485 519 485.5 549 c 128,-1,19
 486 579 486 579 486 591 c 0,20,21
 487 603 487 603 489.5 625 c 128,-1,22
 492 647 492 647 495 673 c 1,23,-1
 471 698 l 1,24,25
 460 696 460 696 445.5 693 c 128,-1,26
 431 690 431 690 419 688 c 0,27,28
 415 687 415 687 410 687 c 0,29,30
 406 687 406 687 403 686 c 0,31,32
 371 681 371 681 351 678 c 128,-1,33
 331 675 331 675 312 675 c 0,34,35
 230 675 230 675 201 691 c 0,36,37
 145 714 145 714 115 766 c 1,38,-1
 117 763 l 1,39,40
 115 768 115 768 113 775.5 c 128,-1,41
 111 783 111 783 109 789 c 1,42,-1
 107 819 l 2,43,44
 107 859 107 859 133 965 c 1,45,-1
 191 928 l 2,46,47
 236 907 236 907 280.5 896 c 128,-1,48
 325 885 325 885 375 885 c 0,49,50
 406 885 406 885 450 893 c 128,-1,51
 494 901 494 901 546 915 c 1,52,-1
 548 915 l 1,53,-1
 542 885 l 1,54,-1
 542 886 l 1,55,-1
 528 808 l 2,56,57
 527 794 527 794 526 779 c 128,-1,58
 525 764 525 764 524 750 c 2,59,-1
 513 643 l 1,60,-1
 518 643 l 1,61,-1
 518 599 l 1,62,-1
 523 552 l 1,63,-1
 527 516 l 1,64,-1
 545 435 l 2,65,66
 557 388 557 388 574.5 341.5 c 128,-1,67
 592 295 592 295 615 251 c 0,68,69
 630 223 630 223 643 201.5 c 128,-1,70
 656 180 656 180 675 155 c 1,71,-1
 675 150 l 2,5,6
EndSplineSet
EndChar

StartChar: arabicindicdigitseven
Encoding: 1639 1639 56
Width: 919
Flags: W
LayerCount: 2
Fore
SplineSet
814 763 m 1,0,1
 800 749 800 749 776 715.5 c 128,-1,2
 752 682 752 682 720 628 c 0,3,4
 691 579 691 579 661.5 514.5 c 128,-1,5
 632 450 632 450 601 369 c 2,6,-1
 568 271 l 1,7,-1
 510 87 l 2,8,9
 478 -11 478 -11 466 -15 c 1,10,11
 453 -15 453 -15 428 73 c 0,12,13
 416 119 416 119 404 158.5 c 128,-1,14
 392 198 392 198 379 234 c 0,15,16
 368 267 368 267 355.5 297 c 128,-1,17
 343 327 343 327 329 355 c 2,18,-1
 289 442 l 2,19,20
 278 463 278 463 269 480.5 c 128,-1,21
 260 498 260 498 250 514 c 0,22,23
 232 546 232 546 212 576 c 128,-1,24
 192 606 192 606 170 634 c 1,25,-1
 170 635 l 1,26,-1
 119 692 l 1,27,-1
 100 710 l 1,28,-1
 126 784 l 2,29,30
 140 823 140 823 152 849.5 c 128,-1,31
 164 876 164 876 174 889 c 1,32,-1
 217 844 l 1,33,-1
 243 809 l 1,34,-1
 275 759 l 2,35,36
 286 742 286 742 296.5 721 c 128,-1,37
 307 700 307 700 320 674 c 2,38,-1
 418 438 l 1,39,-1
 479 279 l 1,40,-1
 501 279 l 1,41,-1
 544 409 l 1,42,-1
 569 484 l 1,43,-1
 598 562 l 1,44,-1
 626 633 l 1,45,-1
 655 698 l 2,46,47
 670 736 670 736 694.5 776 c 128,-1,48
 719 816 719 816 751 861 c 0,49,50
 770 887 770 887 780.5 901.5 c 128,-1,51
 791 916 791 916 796 921 c 1,52,53
 796 916 796 916 799 895 c 0,54,55
 802 875 802 875 814 763 c 1,0,1
EndSplineSet
EndChar

StartChar: arabicindicdigiteight
Encoding: 1640 1640 57
Width: 903
Flags: W
LayerCount: 2
Fore
SplineSet
793 104 m 2,0,1
 777 47 777 47 764 13.5 c 128,-1,2
 751 -20 751 -20 740 -34 c 1,3,-1
 697 13 l 2,4,5
 681 33 681 33 668 53.5 c 128,-1,6
 655 74 655 74 644 94 c 0,7,8
 637 105 637 105 625.5 127.5 c 128,-1,9
 614 150 614 150 597 186 c 2,10,-1
 558 273 l 1,11,-1
 501 417 l 1,12,-1
 441 573 l 1,13,-1
 419 573 l 1,14,-1
 394 500 l 1,15,-1
 350 382 l 1,16,-1
 315 293 l 1,17,-1
 263 171 l 2,18,19
 246 128 246 128 221.5 84 c 128,-1,20
 197 40 197 40 166 -5 c 0,21,22
 121 -70 121 -70 117 -71 c 1,23,24
 105 -62 105 -62 105 58 c 2,25,-1
 103 115 l 1,26,-1
 195 232 l 1,27,-1
 196 233 l 1,28,29
 223 281 223 281 252 343 c 128,-1,30
 281 405 281 405 313 486 c 2,31,-1
 386 703 l 2,32,33
 439 867 439 867 452 867 c 0,34,35
 469 867 469 867 495 780 c 0,36,37
 514 697 514 697 536 634 c 128,-1,38
 558 571 558 571 590 509 c 0,39,40
 625 431 625 431 655.5 372.5 c 128,-1,41
 686 314 686 314 712 276 c 2,42,-1
 806 152 l 1,43,-1
 793 104 l 2,0,1
EndSplineSet
EndChar

StartChar: arabicindicdigitnine
Encoding: 1641 1641 58
Width: 757
Flags: W
LayerCount: 2
Fore
SplineSet
420 579 m 1,0,1
 412 641 412 641 400 663 c 1,2,3
 374 739 374 739 321 752 c 1,4,-1
 317 752 l 2,5,6
 294 752 294 752 257 709 c 2,7,-1
 256 708 l 1,8,9
 225 665 225 665 225 642 c 1,10,11
 231 628 231 628 251.5 616.5 c 128,-1,12
 272 605 272 605 309 586 c 1,13,-1
 311 586 l 1,14,15
 380 562 380 562 398 562 c 2,16,-1
 400 562 l 1,17,-1
 410 564 l 1,18,-1
 420 579 l 1,0,1
660 111 m 2,19,20
 660 82 660 82 636 -5 c 0,21,22
 610 -95 610 -95 608 -97 c 1,23,24
 584 -92 584 -92 522 52 c 2,25,-1
 499 115 l 1,26,-1
 477 185 l 2,27,28
 469 217 469 217 461 258 c 128,-1,29
 453 299 453 299 445 350 c 1,30,-1
 434 360 l 1,31,-1
 419 363 l 1,32,-1
 370 369 l 2,33,34
 315 369 315 369 258 378 c 0,35,36
 201 388 201 388 154 434 c 1,37,-1
 153 434 l 1,38,39
 107 478 107 478 103 539 c 0,40,41
 103 593 103 593 126.5 657 c 128,-1,42
 150 721 150 721 198 794 c 0,43,44
 294 939 294 939 360 939 c 0,45,46
 427 939 427 939 476 842 c 0,47,48
 529 738 529 738 529 544 c 0,49,50
 529 450 529 450 544.5 368.5 c 128,-1,51
 560 287 560 287 595 217 c 0,52,53
 603 200 603 200 615 180.5 c 128,-1,54
 627 161 627 161 642 138 c 1,55,-1
 643 137 l 1,56,-1
 659 119 l 1,57,-1
 660 111 l 2,19,20
EndSplineSet
EndChar

StartChar: arabicpercentsign
Encoding: 1642 1642 59
Width: 567
Flags: W
LayerCount: 2
Fore
SplineSet
197 869 m 1,0,-1
 31 869 l 1,1,-1
 31 1049 l 1,2,-1
 197 1049 l 1,3,-1
 197 869 l 1,0,-1
520 1049 m 1,4,-1
 109 8 l 1,5,-1
 16 8 l 1,6,-1
 427 1049 l 1,7,-1
 520 1049 l 1,4,-1
508 -7 m 1,8,-1
 341 -7 l 1,9,-1
 341 172 l 1,10,-1
 508 172 l 1,11,-1
 508 -7 l 1,8,-1
EndSplineSet
EndChar

StartChar: arabicfivepointedstar
Encoding: 1645 1645 60
Width: 815
Flags: W
LayerCount: 2
Fore
SplineSet
765 1190 m 1,0,-1
 547 1029 l 1,1,-1
 629 770 l 1,2,-1
 408 928 l 1,3,-1
 187 770 l 1,4,-1
 269 1029 l 1,5,-1
 51 1190 l 1,6,-1
 322 1190 l 1,7,-1
 408 1450 l 1,8,-1
 494 1190 l 1,9,-1
 765 1190 l 1,0,-1
EndSplineSet
EndChar

StartChar: shaddawithdammatanisolated
Encoding: 64606 64606 62
Width: 482
Flags: W
LayerCount: 2
Fore
SplineSet
482 1788 m 0,0,1
 482 1779 482 1779 475 1769 c 1,2,3
 451 1775 451 1775 381 1800 c 1,4,5
 248 1730 248 1730 174 1730 c 0,6,7
 132 1730 132 1730 92 1743 c 1,8,9
 156 1777 156 1777 156 1818 c 0,10,11
 156 1872 156 1872 106 1872 c 1,12,13
 113 1872 113 1872 104 1870.5 c 128,-1,14
 95 1869 95 1869 70 1865 c 1,15,16
 94 1941 94 1941 141 1941 c 0,17,18
 166 1941 166 1941 184.5 1919 c 128,-1,19
 203 1897 203 1897 203 1865 c 0,20,21
 203 1841 203 1841 186 1792 c 1,22,23
 258 1800 258 1800 319 1837 c 1,24,25
 266 1873 266 1873 266 1915 c 0,26,27
 266 1951 266 1951 309 1988 c 0,28,29
 352 2027 352 2027 393 2027 c 0,30,31
 415 2027 415 2027 438 2003 c 0,32,33
 461 1977 461 1977 461 1953 c 0,34,35
 461 1925 461 1925 436 1874 c 1,36,37
 482 1846 482 1846 482 1788 c 0,0,1
455 1677 m 0,38,39
 455 1640 455 1640 447 1609 c 128,-1,40
 439 1578 439 1578 425 1556 c 128,-1,41
 411 1534 411 1534 391.5 1521.5 c 128,-1,42
 372 1509 372 1509 350 1509 c 0,43,44
 330 1509 330 1509 282 1532 c 2,45,-1
 278 1534 l 1,46,47
 233 1450 233 1450 174 1450 c 0,48,49
 94 1450 94 1450 94 1554 c 0,50,51
 94 1583 94 1583 117 1650 c 1,52,-1
 137 1652 l 1,53,54
 141 1552 141 1552 186 1552 c 0,55,56
 233 1552 233 1552 272 1687 c 1,57,-1
 291 1689 l 1,58,59
 307 1616 307 1616 356 1616 c 0,60,61
 407 1616 407 1616 430 1726 c 1,62,-1
 450 1726 l 1,63,64
 452 1715 452 1715 453.5 1703 c 128,-1,65
 455 1691 455 1691 455 1677 c 0,38,39
395 1941 m 0,66,67
 395 1982 395 1982 364 1982 c 0,68,69
 334 1982 334 1982 334 1958 c 256,70,71
 334 1934 334 1934 381 1902 c 1,72,73
 395 1928 395 1928 395 1941 c 0,66,67
EndSplineSet
Ligature2: "'liga' Standard Ligatures in Arabic lookup 7 subtable" shadda dammatan
AlternateSubs2: "'aalt' Access All Alternates in Latin lookup 1 subtable" shaddawithdammatanisolated shaddawithdammatanisolatedlow
EndChar

StartChar: shaddawithkasratanisolated
Encoding: 64607 64607 63
Width: 420
Flags: W
LayerCount: 2
Fore
SplineSet
420 1940 m 0,0,1
 420 1772 420 1772 316 1772 c 0,2,3
 280 1772 280 1772 252 1793 c 1,4,5
 244 1758 244 1758 213 1733 c 0,6,7
 181 1707 181 1707 148 1707 c 0,8,9
 66 1707 66 1707 66 1815 c 0,10,11
 66 1840 66 1840 88 1916 c 1,12,-1
 111 1920 l 1,13,14
 111 1809 111 1809 150 1809 c 0,15,16
 214 1809 214 1809 240 1971 c 1,17,-1
 258 1977 l 1,18,19
 281 1879 281 1879 316 1879 c 0,20,21
 374 1879 374 1879 383 2026 c 1,22,-1
 406 2036 l 1,23,24
 420 1975 420 1975 420 1940 c 0,0,1
412 1773 m 1,25,26
 397 1707 397 1707 353 1687 c 2,27,-1
 70 1560 l 1,28,29
 98 1633 98 1633 156 1659 c 2,30,-1
 412 1773 l 1,25,26
412 1656 m 1,31,32
 397 1594 397 1594 346 1572 c 2,33,-1
 70 1450 l 1,34,35
 90 1520 90 1520 142 1542 c 2,36,-1
 412 1656 l 1,31,32
EndSplineSet
Ligature2: "'liga' Standard Ligatures in Arabic lookup 7 subtable" shadda kasratan
AlternateSubs2: "'aalt' Access All Alternates in Latin lookup 1 subtable" shaddawithkasratanisolated shaddawithkasratanisolatedlow
EndChar

StartChar: shaddawithfathaisolated
Encoding: 64608 64608 64
Width: 414
Flags: W
LayerCount: 2
Fore
SplineSet
408 1845 m 1,0,1
 398 1784 398 1784 359 1769 c 2,2,-1
 64 1653 l 1,3,4
 91 1722 91 1722 150 1745 c 2,5,-1
 408 1845 l 1,0,1
414 1673 m 0,6,7
 414 1638 414 1638 406 1608.5 c 128,-1,8
 398 1579 398 1579 384 1557 c 128,-1,9
 370 1535 370 1535 350.5 1523 c 128,-1,10
 331 1511 331 1511 308 1511 c 0,11,12
 290 1511 290 1511 246 1534 c 2,13,-1
 242 1536 l 1,14,15
 204 1450 204 1450 138 1450 c 0,16,17
 60 1450 60 1450 60 1548 c 1,18,19
 60 1543 60 1543 66 1609 c 1,20,-1
 95 1628 l 1,21,22
 105 1550 105 1550 148 1550 c 0,23,24
 203 1550 203 1550 236 1683 c 1,25,-1
 258 1689 l 1,26,27
 283 1616 283 1616 316 1616 c 0,28,29
 373 1616 373 1616 381 1738 c 1,30,-1
 408 1747 l 1,31,32
 414 1714 414 1714 414 1673 c 0,6,7
EndSplineSet
Ligature2: "'liga' Standard Ligatures in Arabic lookup 7 subtable" shadda fatha
AlternateSubs2: "'aalt' Access All Alternates in Latin lookup 1 subtable" shaddawithfathaisolated shaddawithfathaisolatedlow
EndChar

StartChar: shaddawithdammaisolated
Encoding: 64609 64609 65
Width: 424
Flags: W
LayerCount: 2
Fore
SplineSet
424 1763 m 1,0,1
 381 1769 381 1769 314 1792 c 1,2,3
 192 1694 192 1694 129 1694 c 0,4,5
 107 1694 107 1694 64 1714 c 1,6,7
 130 1736 130 1736 182.5 1760 c 128,-1,8
 235 1784 235 1784 273 1812 c 1,9,10
 224 1849 224 1849 224 1896 c 0,11,12
 224 1938 224 1938 262 1979 c 0,13,14
 301 2019 301 2019 344 2019 c 0,15,16
 366 2019 366 2019 392 1995 c 0,17,18
 418 1972 418 1972 418 1952 c 0,19,20
 418 1907 418 1907 382 1864 c 1,21,22
 390 1860 390 1860 399 1854.5 c 128,-1,23
 408 1849 408 1849 417 1842 c 0,24,25
 424 1835 424 1835 424 1800 c 2,26,-1
 424 1763 l 1,0,1
418 1720 m 1,27,28
 418 1505 418 1505 310 1505 c 0,29,30
 268 1505 268 1505 240 1530 c 1,31,32
 208 1450 208 1450 136 1450 c 0,33,34
 58 1450 58 1450 58 1548 c 0,35,36
 58 1592 58 1592 80 1632 c 1,37,-1
 101 1634 l 1,38,39
 107 1552 107 1552 148 1552 c 0,40,41
 194 1552 194 1552 236 1671 c 1,42,-1
 260 1677 l 1,43,44
 272 1610 272 1610 314 1610 c 0,45,46
 370 1610 370 1610 394 1714 c 1,47,-1
 418 1720 l 1,27,28
353 1927 m 0,48,49
 353 1976 353 1976 310 1976 c 0,50,51
 285 1976 285 1976 285 1946 c 0,52,53
 285 1922 285 1922 344 1884 c 1,54,55
 353 1908 353 1908 353 1927 c 0,48,49
EndSplineSet
Ligature2: "'liga' Standard Ligatures in Arabic lookup 7 subtable" shadda damma
AlternateSubs2: "'aalt' Access All Alternates in Latin lookup 1 subtable" shaddawithdammaisolated shaddawithdammaisolatedlow
EndChar

StartChar: shaddawithkasraisolated
Encoding: 64610 64610 66
Width: 420
Flags: W
LayerCount: 2
Fore
SplineSet
420 1830 m 0,0,1
 420 1662 420 1662 316 1662 c 0,2,3
 280 1662 280 1662 252 1683 c 1,4,5
 244 1648 244 1648 213 1623 c 0,6,7
 181 1597 181 1597 148 1597 c 0,8,9
 66 1597 66 1597 66 1705 c 0,10,11
 66 1730 66 1730 88 1806 c 1,12,-1
 111 1810 l 1,13,14
 111 1699 111 1699 150 1699 c 0,15,16
 214 1699 214 1699 240 1861 c 1,17,-1
 258 1867 l 1,18,19
 281 1769 281 1769 316 1769 c 0,20,21
 374 1769 374 1769 383 1916 c 1,22,-1
 406 1926 l 1,23,24
 420 1865 420 1865 420 1830 c 0,0,1
412 1663 m 1,25,26
 397 1597 397 1597 353 1577 c 2,27,-1
 70 1450 l 1,28,29
 98 1523 98 1523 156 1549 c 2,30,-1
 412 1663 l 1,25,26
EndSplineSet
Ligature2: "'liga' Standard Ligatures in Arabic lookup 7 subtable" shadda kasra
AlternateSubs2: "'aalt' Access All Alternates in Latin lookup 1 subtable" shaddawithkasraisolated shaddawithkasraisolatedlow
EndChar

StartChar: shaddawithfathamedial
Encoding: 64754 64754 67
Width: 1284
Flags: W
LayerCount: 2
Fore
SplineSet
807 1552 m 1,0,1
 807 1486 807 1486 772 1466 c 2,2,-1
 469 1294 l 1,3,4
 472 1332 472 1332 483 1353 c 0,5,6
 495 1373 495 1373 535 1395 c 2,7,-1
 807 1552 l 1,0,1
819 1263 m 0,8,9
 819 1095 819 1095 715 1095 c 0,10,11
 679 1095 679 1095 651 1116 c 1,12,13
 643 1081 643 1081 612 1056 c 0,14,15
 580 1030 580 1030 547 1030 c 0,16,17
 465 1030 465 1030 465 1138 c 0,18,19
 465 1163 465 1163 487 1239 c 1,20,-1
 510 1243 l 1,21,22
 510 1132 510 1132 549 1132 c 0,23,24
 613 1132 613 1132 639 1294 c 1,25,-1
 657 1300 l 1,26,27
 680 1202 680 1202 715 1202 c 0,28,29
 773 1202 773 1202 782 1349 c 1,30,-1
 805 1359 l 1,31,32
 819 1298 819 1298 819 1263 c 0,8,9
1354 129 m 1,33,-1
 0 129 l 1,34,-1
 0 250 l 1,35,-1
 1354 250 l 1,36,-1
 1354 129 l 1,33,-1
EndSplineSet
Ligature2: "'liga' Standard Ligatures in Arabic lookup 6 subtable" tatweel shadda fatha
EndChar

StartChar: shaddawithdammamedial
Encoding: 64755 64755 68
Width: 1284
Flags: W
LayerCount: 2
Fore
SplineSet
813 1503 m 1,0,-1
 805 1404 l 1,1,-1
 725 1456 l 1,2,3
 605 1312 605 1312 528 1312 c 0,4,5
 509 1312 509 1312 469 1324 c 1,6,7
 571 1381 571 1381 682 1480 c 1,8,9
 621 1525 621 1525 621 1570 c 0,10,11
 621 1630 621 1630 666 1695 c 0,12,13
 696 1738 696 1738 737 1738 c 0,14,15
 805 1738 805 1738 805 1650 c 0,16,17
 805 1599 805 1599 774 1533 c 1,18,19
 787 1522 787 1522 813 1503 c 1,0,-1
819 1263 m 0,20,21
 819 1095 819 1095 715 1095 c 0,22,23
 679 1095 679 1095 651 1116 c 1,24,25
 643 1081 643 1081 612 1056 c 0,26,27
 580 1030 580 1030 547 1030 c 0,28,29
 465 1030 465 1030 465 1138 c 0,30,31
 465 1163 465 1163 487 1239 c 1,32,-1
 510 1243 l 1,33,34
 510 1132 510 1132 549 1132 c 0,35,36
 613 1132 613 1132 639 1294 c 1,37,-1
 657 1300 l 1,38,39
 680 1202 680 1202 715 1202 c 0,40,41
 773 1202 773 1202 782 1349 c 1,42,-1
 805 1359 l 1,43,44
 819 1298 819 1298 819 1263 c 0,20,21
743 1591 m 0,45,46
 743 1614 743 1614 727 1633 c 128,-1,47
 711 1652 711 1652 690 1652 c 0,48,49
 672 1652 672 1652 672 1632 c 0,50,51
 672 1601 672 1601 737 1557 c 1,52,53
 743 1576 743 1576 743 1591 c 0,45,46
1354 129 m 1,54,-1
 0 129 l 1,55,-1
 0 250 l 1,56,-1
 1354 250 l 1,57,-1
 1354 129 l 1,54,-1
EndSplineSet
Ligature2: "'liga' Standard Ligatures in Arabic lookup 6 subtable" tatweel shadda damma
EndChar

StartChar: shaddawithkasramedial
Encoding: 64756 64756 69
Width: 1284
Flags: W
LayerCount: 2
Fore
SplineSet
819 1491 m 0,0,1
 819 1323 819 1323 715 1323 c 0,2,3
 679 1323 679 1323 651 1344 c 1,4,5
 643 1309 643 1309 612 1284 c 0,6,7
 580 1258 580 1258 547 1258 c 0,8,9
 465 1258 465 1258 465 1366 c 0,10,11
 465 1391 465 1391 487 1467 c 1,12,-1
 510 1471 l 1,13,14
 510 1360 510 1360 549 1360 c 0,15,16
 613 1360 613 1360 639 1522 c 1,17,-1
 657 1528 l 1,18,19
 680 1430 680 1430 715 1430 c 0,20,21
 773 1430 773 1430 782 1577 c 1,22,-1
 805 1587 l 1,23,24
 819 1526 819 1526 819 1491 c 0,0,1
807 1288 m 1,25,26
 807 1222 807 1222 772 1202 c 2,27,-1
 469 1030 l 1,28,29
 472 1068 472 1068 483 1089 c 0,30,31
 495 1109 495 1109 535 1131 c 2,32,-1
 807 1288 l 1,25,26
1354 129 m 1,33,-1
 0 129 l 1,34,-1
 0 250 l 1,35,-1
 1354 250 l 1,36,-1
 1354 129 l 1,33,-1
EndSplineSet
Ligature2: "'liga' Standard Ligatures in Arabic lookup 6 subtable" tatweel shadda kasra
EndChar

StartChar: ornateleftparenthesis
Encoding: 64830 64830 70
Width: 571
Flags: W
LayerCount: 2
Fore
SplineSet
459 -284 m 1,0,-1
 140 -284 l 1,1,-1
 140 1181 l 1,2,-1
 459 1181 l 1,3,-1
 459 1128 l 1,4,-1
 251 1128 l 1,5,-1
 251 -232 l 1,6,-1
 459 -232 l 1,7,-1
 459 -284 l 1,0,-1
EndSplineSet
EndChar

StartChar: ornaterightparenthesis
Encoding: 64831 64831 71
Width: 614
Flags: W
LayerCount: 2
Fore
SplineSet
141 1182 m 1,0,-1
 460 1182 l 1,1,-1
 460 -283 l 1,2,-1
 141 -283 l 1,3,-1
 141 -231 l 1,4,-1
 349 -231 l 1,5,-1
 349 1129 l 1,6,-1
 141 1129 l 1,7,-1
 141 1182 l 1,0,-1
EndSplineSet
EndChar

StartChar: allahisolated
Encoding: 65010 65010 72
Width: 1557
Flags: W
LayerCount: 2
Fore
SplineSet
1133 1263 m 1,0,-1
 1134 1260 l 1,1,2
 1133 1259 1133 1259 1133 1263 c 1,0,-1
1136 1166 m 1,3,-1
 1137 1192 l 1,4,-1
 1139 1170 l 1,5,-1
 1136 1166 l 1,3,-1
1046 1395 m 1,6,7
 1047 1397 1047 1397 1047 1399 c 0,8,9
 1047 1402 1047 1402 1049 1404 c 1,10,-1
 1050 1383 l 1,11,-1
 1049 1377 l 1,12,13
 1045 1370 1045 1370 1045 1355 c 1,14,-1
 1037 1356 l 1,15,16
 1042 1369 1042 1369 1045 1391 c 2,17,-1
 1046 1395 l 1,6,7
1137 1192 m 1,18,-1
 1136 1203 l 1,19,-1
 1121 1245 l 1,20,21
 1124 1248 1124 1248 1127 1251.5 c 128,-1,22
 1130 1255 1130 1255 1133 1259 c 1,23,24
 1137 1246 1137 1246 1138 1238 c 2,25,-1
 1139 1208 l 1,26,-1
 1137 1192 l 1,18,-1
1051 1441 m 1,27,-1
 1049 1404 l 1,28,29
 1047 1415 1047 1415 1045 1425.5 c 128,-1,30
 1043 1436 1043 1436 1040 1447 c 2,31,-1
 1025 1506 l 1,32,33
 1033 1517 1033 1517 1041 1530 c 1,34,35
 1042 1524 1042 1524 1046 1517 c 1,36,-1
 1045 1518 l 1,37,38
 1046 1516 1046 1516 1046.5 1512 c 128,-1,39
 1047 1508 1047 1508 1049 1505 c 1,40,-1
 1053 1481 l 1,41,-1
 1051 1441 l 1,27,-1
1051 1134 m 1,42,-1
 1033 1129 l 1,43,-1
 1022 1111 l 1,44,45
 1020 1106 1020 1106 1008 1096 c 1,46,-1
 1009 1096 l 1,47,48
 987 1082 987 1082 960 1082 c 0,49,50
 940 1082 940 1082 928 1097 c 1,51,-1
 929 1096 l 1,52,53
 919 1115 919 1115 919 1145 c 2,54,-1
 919 1166 l 2,55,56
 919 1169 919 1169 921 1177 c 2,57,-1
 929 1212 l 1,58,-1
 933 1223 l 1,59,-1
 933 1222 l 1,60,-1
 926 1173 l 1,61,62
 926 1141 926 1141 935 1132 c 1,63,-1
 935 1133 l 1,64,65
 948 1114 948 1114 984 1114 c 1,66,67
 997 1116 997 1116 1005 1118 c 128,-1,68
 1013 1120 1013 1120 1018.5 1123.5 c 128,-1,69
 1024 1127 1024 1127 1028.5 1132.5 c 128,-1,70
 1033 1138 1033 1138 1038 1146 c 1,71,-1
 1040 1157 l 1,72,-1
 1029 1229 l 1,73,74
 1031 1231 1031 1231 1031.5 1235 c 128,-1,75
 1032 1239 1032 1239 1033 1242 c 1,76,-1
 1034 1243 l 1,77,78
 1034 1232 1034 1232 1035 1222.5 c 128,-1,79
 1036 1213 1036 1213 1037 1208 c 1,80,-1
 1047 1189 l 1,81,82
 1077 1153 1077 1153 1124 1153 c 1,83,-1
 1136 1166 l 1,84,85
 1135 1153 1135 1153 1125 1142 c 1,86,87
 1114 1125 1114 1125 1101 1123 c 1,88,-1
 1072 1126 l 1,89,-1
 1051 1134 l 1,42,-1
516 263 m 1,90,-1
 494 543 l 1,91,-1
 461 553 l 1,92,-1
 448 545 l 2,93,94
 436 536 436 536 421.5 515.5 c 128,-1,95
 407 495 407 495 389 465 c 1,96,97
 387 460 387 460 383.5 454.5 c 128,-1,98
 380 449 380 449 378 444 c 1,99,100
 376 442 376 442 375 440 c 128,-1,101
 374 438 374 438 373 437 c 1,102,103
 311 419 311 419 268.5 390.5 c 128,-1,104
 226 362 226 362 187 314 c 1,105,-1
 195 291 l 1,106,-1
 238 278 l 1,107,-1
 330 257 l 1,108,-1
 372 252 l 1,109,-1
 448 248 l 1,110,111
 452 249 452 249 455 249 c 0,112,113
 459 249 459 249 462 249 c 2,114,-1
 476 249 l 1,115,-1
 480 248 l 1,116,-1
 501 248 l 1,117,-1
 516 263 l 1,90,-1
1526 305 m 2,118,119
 1526 276 1526 276 1520 234.5 c 128,-1,120
 1514 193 1514 193 1498 141 c 0,121,122
 1490 117 1490 117 1478.5 99 c 128,-1,123
 1467 81 1467 81 1453.5 66.5 c 128,-1,124
 1440 52 1440 52 1427 40.5 c 128,-1,125
 1414 29 1414 29 1404 20 c 1,126,127
 1343 -8 1343 -8 1255 -8 c 0,128,129
 1203 -8 1203 -8 1155 6 c 128,-1,130
 1107 20 1107 20 1075 55 c 2,131,-1
 1057 77 l 1,132,-1
 1057 76 l 1,133,-1
 1033 115 l 1,134,-1
 1005 112 l 1,135,136
 1000 89 1000 89 982.5 69 c 128,-1,137
 965 49 965 49 939 32 c 0,138,139
 910 16 910 16 886 8 c 128,-1,140
 862 0 862 0 848 0 c 2,141,-1
 646 0 l 2,142,143
 595 0 595 0 559 73 c 1,144,-1
 559 72 l 1,145,146
 552 90 552 90 543 124.5 c 128,-1,147
 534 159 534 159 526 201 c 2,148,-1
 524 216 l 1,149,-1
 502 227 l 1,150,-1
 490 222 l 1,151,152
 460 204 460 204 413 116 c 0,153,154
 385 64 385 64 369 64 c 1,155,-1
 359 66 l 1,156,-1
 360 66 l 1,157,-1
 301 80 l 2,158,159
 265 89 265 89 240 93 c 128,-1,160
 215 97 215 97 212 97 c 1,161,-1
 209 102 l 1,162,-1
 47 132 l 1,163,164
 53 154 53 154 64.5 184 c 128,-1,165
 76 214 76 214 93 254 c 2,166,-1
 95 259 l 2,167,168
 117 317 117 317 136 352.5 c 128,-1,169
 155 388 155 388 171 402 c 1,170,171
 176 405 176 405 212 426 c 128,-1,172
 248 447 248 447 320 490 c 1,173,-1
 320 489 l 1,174,175
 441 555 441 555 458 569 c 1,176,-1
 463 580 l 1,177,-1
 463 613 l 1,178,179
 462 618 462 618 461.5 624 c 128,-1,180
 461 630 461 630 460 634 c 2,181,182
 460 646 460 646 456 654 c 1,183,-1
 458 659 l 1,184,-1
 466 671 l 1,185,-1
 465 671 l 1,186,-1
 483 695 l 1,187,-1
 509 725 l 2,188,189
 518 737 518 737 527.5 749 c 128,-1,190
 537 761 537 761 545 773 c 1,191,192
 551 725 551 725 556 682.5 c 128,-1,193
 561 640 561 640 567 592 c 1,194,-1
 567 593 l 1,195,196
 586 413 586 413 596.5 321.5 c 128,-1,197
 607 230 607 230 612 222 c 0,198,199
 631 191 631 191 652 183 c 0,200,201
 673 177 673 177 700 177 c 2,202,-1
 834 171 l 1,203,204
 836 173 836 173 841 173 c 0,205,206
 873 173 873 173 902.5 179 c 128,-1,207
 932 185 932 185 958 198 c 1,208,209
 967 206 967 206 979.5 214.5 c 128,-1,210
 992 223 992 223 1002 231 c 0,211,212
 1007 236 1007 236 1011 245 c 128,-1,213
 1015 254 1015 254 1015 267 c 0,214,215
 1015 302 1015 302 1008.5 356 c 128,-1,216
 1002 410 1002 410 989 486 c 2,217,-1
 935 795 l 2,218,219
 934 804 934 804 933 810.5 c 128,-1,220
 932 817 932 817 928 831 c 0,221,222
 927 833 927 833 926.5 836 c 128,-1,223
 926 839 926 839 925 841 c 1,224,-1
 948 881 l 1,225,-1
 986 939 l 2,226,227
 1034 1015 1034 1015 1050 1033 c 1,228,-1
 1118 261 l 1,229,-1
 1121 254 l 1,230,231
 1138 235 1138 235 1159.5 220 c 128,-1,232
 1181 205 1181 205 1206 191 c 0,233,234
 1231 181 1231 181 1256.5 176.5 c 128,-1,235
 1282 172 1282 172 1307 172 c 2,236,-1
 1342 172 l 2,237,238
 1360 172 1360 172 1383.5 187.5 c 128,-1,239
 1407 203 1407 203 1421 238 c 1,240,-1
 1419 287 l 1,241,242
 1403 342 1403 342 1392 414 c 128,-1,243
 1381 486 1381 486 1371 561 c 128,-1,244
 1361 636 1361 636 1350.5 708 c 128,-1,245
 1340 780 1340 780 1324 835 c 1,246,-1
 1404 1011 l 1,247,-1
 1406 1009 l 1,248,249
 1413 1021 1413 1021 1417.5 1028 c 128,-1,250
 1422 1035 1422 1035 1425 1040 c 1,251,-1
 1520 386 l 1,252,-1
 1526 305 l 2,118,119
EndSplineSet
Ligature2: "'liga' Standard Ligatures in Arabic lookup 6 subtable" laminitial lammedial hehfinal
EndChar

StartChar: fathatanisolated
Encoding: 65136 65136 73
Width: 408
Flags: W
LayerCount: 2
Fore
SplineSet
408 2054 m 1,0,1
 408 1988 408 1988 373 1968 c 2,2,-1
 70 1796 l 1,3,4
 73 1834 73 1834 84 1855 c 0,5,6
 96 1875 96 1875 136 1897 c 2,7,-1
 408 2054 l 1,0,1
408 1908 m 1,8,9
 408 1842 408 1842 373 1822 c 2,10,-1
 70 1650 l 1,11,12
 73 1688 73 1688 84 1709 c 0,13,14
 96 1729 96 1729 136 1751 c 2,15,-1
 408 1908 l 1,8,9
EndSplineSet
EndChar

StartChar: tatweelwithfathatanabove
Encoding: 65137 65137 74
Width: 1284
Flags: W
LayerCount: 2
Fore
SplineSet
811 1434 m 1,0,1
 811 1368 811 1368 776 1348 c 2,2,-1
 473 1176 l 1,3,4
 476 1214 476 1214 487 1235 c 0,5,6
 499 1255 499 1255 539 1277 c 2,7,-1
 811 1434 l 1,0,1
811 1288 m 1,8,9
 811 1222 811 1222 776 1202 c 2,10,-1
 473 1030 l 1,11,12
 476 1068 476 1068 487 1089 c 0,13,14
 499 1109 499 1109 539 1131 c 2,15,-1
 811 1288 l 1,8,9
1354 129 m 1,16,-1
 0 129 l 1,17,-1
 0 250 l 1,18,-1
 1354 250 l 1,19,-1
 1354 129 l 1,16,-1
EndSplineSet
Ligature2: "'liga' Standard Ligatures in Arabic lookup 6 subtable" tatweel fathatan
EndChar

StartChar: dammatanisolated
Encoding: 65138 65138 75
Width: 463
Flags: W
LayerCount: 2
Fore
SplineSet
463 1582 m 0,0,1
 463 1565 463 1565 462.5 1550 c 128,-1,2
 462 1535 462 1535 461 1523 c 1,3,4
 441 1534 441 1534 418 1548.5 c 128,-1,5
 395 1563 395 1563 369 1582 c 1,6,7
 243 1453 243 1453 129 1437 c 1,8,9
 172 1526 172 1526 172 1566 c 0,10,11
 172 1621 172 1621 123 1621 c 0,12,13
 81 1621 81 1621 74 1545 c 1,14,15
 64 1574 64 1574 64 1597 c 256,16,17
 64 1620 64 1620 70.5 1640 c 128,-1,18
 77 1660 77 1660 88.5 1675 c 128,-1,19
 100 1690 100 1690 115 1698.5 c 128,-1,20
 130 1707 130 1707 148 1707 c 0,21,22
 215 1707 215 1707 215 1607 c 2,23,-1
 209 1515 l 1,24,25
 274 1540 274 1540 333 1605 c 1,26,27
 267 1648 267 1648 267 1699 c 0,28,29
 267 1752 267 1752 307 1798 c 0,30,31
 347 1846 347 1846 389 1846 c 0,32,33
 411 1846 411 1846 434 1819 c 0,34,35
 457 1793 457 1793 457 1766 c 0,36,37
 457 1736 457 1736 446 1708 c 128,-1,38
 424 1652 l 1,39,40
 463 1622 463 1622 463 1582 c 0,0,1
387 1726 m 0,41,42
 387 1779 387 1779 346 1779 c 0,43,44
 320 1779 320 1779 320 1756 c 0,45,46
 320 1730 320 1730 383 1687 c 1,47,48
 387 1696 387 1696 387 1726 c 0,41,42
EndSplineSet
EndChar

StartChar: kasratanisolated
Encoding: 65140 65140 76
Width: 408
Flags: W
LayerCount: 2
Fore
SplineSet
408 -620 m 1,0,1
 408 -686 408 -686 373 -706 c 2,2,-1
 70 -878 l 1,3,4
 73 -840 73 -840 84 -818 c 1,5,6
 97 -800 97 -800 136 -777 c 2,7,-1
 408 -620 l 1,0,1
408 -767 m 1,8,9
 408 -833 408 -833 373 -853 c 2,10,-1
 70 -1025 l 1,11,12
 73 -987 73 -987 84 -965 c 1,13,14
 97 -947 97 -947 136 -924 c 2,15,-1
 408 -767 l 1,8,9
EndSplineSet
EndChar

StartChar: fathaisolated
Encoding: 65142 65142 77
Width: 408
Flags: W
LayerCount: 2
Fore
SplineSet
408 1708 m 1,0,1
 408 1642 408 1642 373 1622 c 2,2,-1
 70 1450 l 1,3,4
 73 1488 73 1488 84 1509 c 0,5,6
 96 1529 96 1529 136 1551 c 2,7,-1
 408 1708 l 1,0,1
EndSplineSet
EndChar

StartChar: fathamedial
Encoding: 65143 65143 78
Width: 1284
Flags: W
LayerCount: 2
Fore
SplineSet
811 1288 m 1,0,1
 811 1222 811 1222 776 1202 c 2,2,-1
 473 1030 l 1,3,4
 476 1068 476 1068 487 1089 c 0,5,6
 499 1109 499 1109 539 1131 c 2,7,-1
 811 1288 l 1,0,1
1354 129 m 1,8,-1
 0 129 l 1,9,-1
 0 250 l 1,10,-1
 1354 250 l 1,11,-1
 1354 129 l 1,8,-1
EndSplineSet
Ligature2: "'liga' Standard Ligatures in Arabic lookup 6 subtable" tatweel fatha
EndChar

StartChar: dammaisolated
Encoding: 65144 65144 79
Width: 414
Flags: W
LayerCount: 2
Fore
SplineSet
414 1641 m 1,0,-1
 406 1542 l 1,1,-1
 326 1594 l 1,2,3
 206 1450 206 1450 129 1450 c 0,4,5
 110 1450 110 1450 70 1462 c 1,6,7
 172 1519 172 1519 283 1618 c 1,8,9
 222 1663 222 1663 222 1708 c 0,10,11
 222 1768 222 1768 267 1833 c 0,12,13
 297 1876 297 1876 338 1876 c 0,14,15
 406 1876 406 1876 406 1788 c 0,16,17
 406 1737 406 1737 375 1671 c 1,18,19
 388 1660 388 1660 414 1641 c 1,0,-1
344 1729 m 0,20,21
 344 1752 344 1752 328 1771 c 128,-1,22
 312 1790 312 1790 291 1790 c 0,23,24
 273 1790 273 1790 273 1770 c 0,25,26
 273 1739 273 1739 338 1695 c 1,27,28
 344 1714 344 1714 344 1729 c 0,20,21
EndSplineSet
EndChar

StartChar: dammamedial
Encoding: 65145 65145 80
Width: 1284
Flags: W
LayerCount: 2
Fore
SplineSet
814 1221 m 1,0,-1
 806 1122 l 1,1,-1
 726 1174 l 1,2,3
 606 1030 606 1030 529 1030 c 0,4,5
 510 1030 510 1030 470 1042 c 1,6,7
 572 1099 572 1099 683 1198 c 1,8,9
 622 1243 622 1243 622 1288 c 0,10,11
 622 1348 622 1348 667 1413 c 0,12,13
 697 1456 697 1456 738 1456 c 0,14,15
 806 1456 806 1456 806 1368 c 0,16,17
 806 1317 806 1317 775 1251 c 1,18,19
 788 1240 788 1240 814 1221 c 1,0,-1
744 1309 m 0,20,21
 744 1332 744 1332 728 1351 c 128,-1,22
 712 1370 712 1370 691 1370 c 0,23,24
 673 1370 673 1370 673 1350 c 0,25,26
 673 1319 673 1319 738 1275 c 1,27,28
 744 1294 744 1294 744 1309 c 0,20,21
1354 129 m 1,29,-1
 0 129 l 1,30,-1
 0 250 l 1,31,-1
 1354 250 l 1,32,-1
 1354 129 l 1,29,-1
EndSplineSet
Ligature2: "'liga' Standard Ligatures in Arabic lookup 6 subtable" tatweel damma
EndChar

StartChar: kasraisolated
Encoding: 65146 65146 81
Width: 408
Flags: W
LayerCount: 2
Fore
SplineSet
408 -620 m 1,0,1
 408 -686 408 -686 373 -706 c 2,2,-1
 70 -878 l 1,3,4
 73 -840 73 -840 84 -818 c 1,5,6
 97 -800 97 -800 136 -777 c 2,7,-1
 408 -620 l 1,0,1
EndSplineSet
EndChar

StartChar: kasramedial
Encoding: 65147 65147 82
Width: 1284
Flags: W
LayerCount: 2
Fore
SplineSet
811 -71 m 1,0,1
 811 -137 811 -137 776 -157 c 2,2,-1
 473 -329 l 1,3,4
 476 -291 476 -291 487 -269 c 1,5,6
 500 -251 500 -251 539 -228 c 2,7,-1
 811 -71 l 1,0,1
1354 129 m 1,8,-1
 0 129 l 1,9,-1
 0 250 l 1,10,-1
 1354 250 l 1,11,-1
 1354 129 l 1,8,-1
EndSplineSet
Ligature2: "'liga' Standard Ligatures in Arabic lookup 6 subtable" tatweel kasra
EndChar

StartChar: shaddaisolated
Encoding: 65148 65148 83
Width: 420
Flags: W
LayerCount: 2
Fore
SplineSet
420 1683 m 0,0,1
 420 1515 420 1515 316 1515 c 0,2,3
 280 1515 280 1515 252 1536 c 1,4,5
 244 1501 244 1501 213 1476 c 0,6,7
 181 1450 181 1450 148 1450 c 0,8,9
 66 1450 66 1450 66 1558 c 0,10,11
 66 1583 66 1583 88 1659 c 1,12,-1
 111 1663 l 1,13,14
 111 1552 111 1552 150 1552 c 0,15,16
 214 1552 214 1552 240 1714 c 1,17,-1
 258 1720 l 1,18,19
 281 1622 281 1622 316 1622 c 0,20,21
 374 1622 374 1622 383 1769 c 1,22,-1
 406 1779 l 1,23,24
 420 1718 420 1718 420 1683 c 0,0,1
EndSplineSet
EndChar

StartChar: shaddamedial
Encoding: 65149 65149 84
Width: 1284
Flags: W
LayerCount: 2
Fore
SplineSet
819 1263 m 0,0,1
 819 1095 819 1095 715 1095 c 0,2,3
 679 1095 679 1095 651 1116 c 1,4,5
 643 1081 643 1081 612 1056 c 0,6,7
 580 1030 580 1030 547 1030 c 0,8,9
 465 1030 465 1030 465 1138 c 0,10,11
 465 1163 465 1163 487 1239 c 1,12,-1
 510 1243 l 1,13,14
 510 1132 510 1132 549 1132 c 0,15,16
 613 1132 613 1132 639 1294 c 1,17,-1
 657 1300 l 1,18,19
 680 1202 680 1202 715 1202 c 0,20,21
 773 1202 773 1202 782 1349 c 1,22,-1
 805 1359 l 1,23,24
 819 1298 819 1298 819 1263 c 0,0,1
1354 129 m 1,25,-1
 0 129 l 1,26,-1
 0 250 l 1,27,-1
 1354 250 l 1,28,-1
 1354 129 l 1,25,-1
EndSplineSet
Ligature2: "'liga' Standard Ligatures in Arabic lookup 6 subtable" tatweel shadda
EndChar

StartChar: sukunisolated
Encoding: 65150 65150 85
Width: 332
Flags: W
LayerCount: 2
Fore
SplineSet
332 1614 m 0,0,1
 332 1549 332 1549 286 1500 c 0,2,3
 239 1450 239 1450 181 1450 c 0,4,5
 74 1450 74 1450 74 1571 c 0,6,7
 74 1655 74 1655 112 1708 c 0,8,9
 149 1762 149 1762 211 1762 c 0,10,11
 258 1762 258 1762 295 1716 c 0,12,13
 332 1673 332 1673 332 1614 c 0,0,1
277 1590 m 0,14,15
 277 1616 277 1616 234 1647 c 0,16,17
 193 1676 193 1676 166 1676 c 0,18,19
 107 1676 107 1676 107 1608 c 0,20,21
 107 1549 107 1549 199 1549 c 0,22,23
 277 1549 277 1549 277 1590 c 0,14,15
EndSplineSet
EndChar

StartChar: sukunmedial
Encoding: 65151 65151 86
Width: 1284
Flags: W
LayerCount: 2
Fore
SplineSet
771 1194 m 0,0,1
 771 1129 771 1129 725 1080 c 0,2,3
 678 1030 678 1030 620 1030 c 0,4,5
 513 1030 513 1030 513 1151 c 0,6,7
 513 1235 513 1235 551 1288 c 0,8,9
 588 1342 588 1342 650 1342 c 0,10,11
 697 1342 697 1342 734 1296 c 0,12,13
 771 1253 771 1253 771 1194 c 0,0,1
716 1170 m 0,14,15
 716 1196 716 1196 673 1227 c 0,16,17
 632 1256 632 1256 605 1256 c 0,18,19
 546 1256 546 1256 546 1188 c 0,20,21
 546 1129 546 1129 638 1129 c 0,22,23
 716 1129 716 1129 716 1170 c 0,14,15
1354 129 m 1,24,-1
 0 129 l 1,25,-1
 0 250 l 1,26,-1
 1354 250 l 1,27,-1
 1354 129 l 1,24,-1
EndSplineSet
Ligature2: "'liga' Standard Ligatures in Arabic lookup 6 subtable" tatweel sukun
EndChar

StartChar: hamzaisolated
Encoding: 65152 65152 87
Width: 622
Flags: W
AnchorPoint: "ArabicBelow" 311 -373 basechar 0
AnchorPoint: "ArabicAbove" 311 692 basechar 0
LayerCount: 2
Fore
SplineSet
556 177 m 1,0,1
 545 146 545 146 534 118 c 128,-1,2
 523 90 523 90 512 59 c 1,3,-1
 475 58 l 2,4,5
 450 58 450 58 438 54 c 0,6,7
 430 52 430 52 420.5 51 c 128,-1,8
 411 50 411 50 403 48 c 2,9,-1
 384 44 l 1,10,11
 379 42 379 42 374 40.5 c 128,-1,12
 369 39 369 39 364 37 c 1,13,-1
 335 31 l 1,14,-1
 308 23 l 1,15,-1
 283 14 l 1,16,-1
 255 2 l 1,17,-1
 194 -31 l 1,18,-1
 164 -49 l 1,19,-1
 128 -76 l 2,20,21
 100 -100 l 128,-1,22
 86 -112 86 -112 72 -123 c 1,23,24
 72 -113 72 -113 98 -71 c 1,25,-1
 98 -72 l 1,26,27
 143 -18 143 -18 167 1 c 0,28,29
 176 10 176 10 189 18 c 1,30,-1
 189 17 l 1,31,32
 207 27 l 128,-1,33
 216 32 216 32 226 37 c 1,34,-1
 225 37 l 1,35,-1
 261 51 l 1,36,-1
 260 59 l 1,37,-1
 222 59 l 2,38,39
 217 59 217 59 213.5 60 c 128,-1,40
 210 61 210 61 206 61 c 0,41,42
 198 62 198 62 191 63.5 c 128,-1,43
 184 65 184 65 176 66 c 0,44,45
 168 68 168 68 158.5 70.5 c 128,-1,46
 149 73 149 73 141 75 c 0,47,48
 64 100 64 100 64 125 c 0,49,50
 64 230 64 230 159 337 c 0,51,52
 255 442 255 442 379 442 c 0,53,54
 402 442 402 442 431 419 c 1,55,-1
 430 419 l 1,56,57
 439 410 439 410 444 399.5 c 128,-1,58
 449 389 449 389 450 381 c 1,59,60
 437 360 437 360 423.5 339 c 128,-1,61
 410 318 410 318 396 298 c 1,62,-1
 376 315 l 1,63,-1
 351 330 l 1,64,65
 322 342 322 342 271 342 c 0,66,67
 258 342 258 342 238.5 333.5 c 128,-1,68
 219 325 219 325 196 310 c 0,69,70
 174 295 174 295 160 281.5 c 128,-1,71
 146 268 146 268 142 255 c 1,72,73
 142 200 142 200 286 178 c 0,74,75
 341 172 341 172 425 172 c 2,76,-1
 509 172 l 1,77,-1
 556 177 l 1,0,1
EndSplineSet
EndChar

StartChar: alefwithmaddaaboveisolated
Encoding: 65153 65153 88
Width: 499
Flags: W
AnchorPoint: "ArabicBelow" 249 -309 basechar 0
AnchorPoint: "ArabicAbove" 249 1434 basechar 0
LayerCount: 2
Fore
SplineSet
473.706 1183 m 1,0,-1
 473.706 1184 l 1,1,-1
 476.706 1183 l 1,2,-1
 473.706 1183 l 1,0,-1
394.706 1147 m 1,3,4
 455.706 1180 455.706 1180 473.706 1183 c 1,5,6
 475.706 1181 475.706 1181 475.706 1179 c 0,7,8
 475.706 1159 475.706 1159 405.706 1101 c 1,9,-1
 406.706 1101 l 1,10,11
 322.706 1035 322.706 1035 261.706 1035 c 0,12,13
 168.706 1035 168.706 1035 91.7061 1088 c 1,14,15
 84.7061 1074 84.7061 1074 76.2061 1057.5 c 128,-1,16
 67.7061 1041 67.7061 1041 60.7061 1027 c 0,17,18
 34.7061 976 34.7061 976 19.7061 983 c 1,19,-1
 19.7061 982 l 1,20,21
 13.7061 988 13.7061 988 58.7061 1078 c 0,22,23
 62.7061 1087 62.7061 1087 67.2061 1096.5 c 128,-1,24
 71.7061 1106 71.7061 1106 75.7061 1115 c 1,25,-1
 74.7061 1115 l 1,26,27
 82.7061 1128 82.7061 1128 89.7061 1141 c 128,-1,28
 96.7061 1154 96.7061 1154 104.706 1168 c 1,29,30
 121.706 1157 121.706 1157 136.206 1148 c 128,-1,31
 150.706 1139 150.706 1139 167.706 1131 c 0,32,33
 222.706 1107 222.706 1107 267.706 1107 c 0,34,35
 287.706 1107 287.706 1107 323.206 1116 c 128,-1,36
 358.706 1125 358.706 1125 394.706 1148 c 1,37,-1
 394.706 1147 l 1,3,4
302.706 170 m 2,38,39
 301.706 159 301.706 159 301.206 146.5 c 128,-1,40
 300.706 134 300.706 134 299.706 123 c 0,41,42
 296.706 102 296.706 102 289.706 79 c 2,43,-1
 271.706 19 l 2,44,45
 267.706 9 267.706 9 263.706 -1.5 c 128,-1,46
 259.706 -12 259.706 -12 255.706 -22 c 1,47,-1
 255.706 -21 l 1,48,49
 251.706 -31 251.706 -31 247.706 -40 c 128,-1,50
 243.706 -49 243.706 -49 238.706 -59 c 1,51,52
 237.706 -17 237.706 -17 234.706 28 c 128,-1,53
 231.706 73 231.706 73 226.706 118 c 0,54,55
 221.706 166 221.706 166 215.706 216 c 128,-1,56
 209.706 266 209.706 266 204.706 314 c 0,57,58
 204.706 345 204.706 345 203.706 372 c 128,-1,59
 202.706 399 202.706 399 200.706 423 c 0,60,61
 198.706 449 198.706 449 194.706 478 c 128,-1,62
 190.706 507 190.706 507 184.706 539 c 0,63,64
 179.706 574 179.706 574 173.206 610.5 c 128,-1,65
 166.706 647 166.706 647 161.706 682 c 0,66,67
 157.706 705 157.706 705 172.206 744 c 128,-1,68
 186.706 783 186.706 783 215.706 837 c 0,69,70
 221.706 848 221.706 848 228.206 858.5 c 128,-1,71
 234.706 869 234.706 869 240.706 880 c 0,72,73
 248.706 891 248.706 891 256.706 903.5 c 128,-1,74
 264.706 916 264.706 916 272.706 927 c 1,75,76
 274.706 913 274.706 913 276.206 905 c 128,-1,77
 277.706 897 277.706 897 279.706 883 c 0,78,79
 280.706 863 280.706 863 281.706 839.5 c 128,-1,80
 282.706 816 282.706 816 283.706 796 c 0,81,82
 284.706 768 284.706 768 285.206 734.5 c 128,-1,83
 285.706 701 285.706 701 286.706 672 c 2,84,-1
 289.706 551 l 1,85,-1
 302.706 170 l 2,38,39
EndSplineSet
EndChar

StartChar: alefwithmaddaabovefinal
Encoding: 65154 65154 89
Width: 546
Flags: W
AnchorPoint: "ArabicBelow" 273 -249 basechar 0
AnchorPoint: "ArabicAbove" 273 1433 basechar 0
LayerCount: 2
Fore
SplineSet
473.734 1183 m 1,0,1
 474.734 1182 474.734 1182 474.734 1181 c 0,2,3
 474.734 1161 474.734 1161 405.734 1101 c 1,4,-1
 406.734 1101 l 1,5,6
 385.734 1086 385.734 1086 365.234 1073.5 c 128,-1,7
 344.734 1061 344.734 1061 324.734 1051 c 0,8,9
 322.734 1050 322.734 1050 321.734 1050 c 256,10,11
 320.734 1050 320.734 1050 318.734 1049 c 1,12,-1
 319.734 1049 l 1,13,14
 307.734 1045 307.734 1045 290.734 1040 c 128,-1,15
 273.734 1035 273.734 1035 258.734 1035 c 0,16,17
 165.734 1035 165.734 1035 88.7344 1088 c 1,18,19
 81.7344 1074 81.7344 1074 73.2344 1057.5 c 128,-1,20
 64.7344 1041 64.7344 1041 57.7344 1027 c 0,21,22
 46.7344 1005 46.7344 1005 34.7344 994.5 c 128,-1,23
 22.7344 984 22.7344 984 14.7344 983 c 1,24,25
 8.73438 991 8.73438 991 51.7344 1075 c 0,26,27
 58.7344 1093 58.7344 1093 70.2344 1116 c 128,-1,28
 81.7344 1139 81.7344 1139 99.7344 1170 c 1,29,-1
 131.734 1147 l 1,30,-1
 163.734 1131 l 2,31,32
 215.734 1107 215.734 1107 264.734 1107 c 0,33,34
 301.734 1107 301.734 1107 363.734 1131 c 2,35,-1
 433.734 1162 l 1,36,-1
 473.734 1183 l 1,0,1
302.734 525 m 1,37,-1
 288.734 643 l 2,38,39
 286.734 670 286.734 670 284.734 699.5 c 128,-1,40
 282.734 729 282.734 729 282.734 749 c 0,41,42
 281.734 772 281.734 772 281.234 799 c 128,-1,43
 280.734 826 280.734 826 279.734 849 c 0,44,45
 278.734 870 278.734 870 278.734 892 c 256,46,47
 278.734 914 278.734 914 277.734 936 c 1,48,49
 253.734 904 253.734 904 230.234 875 c 128,-1,50
 206.734 846 206.734 846 183.734 814 c 1,51,52
 197.734 628 197.734 628 210.734 442 c 2,53,-1
 215.734 301 l 2,54,55
 220.734 229 220.734 229 225.734 169 c 0,56,57
 230.734 99 230.734 99 235.734 57 c 128,-1,58
 240.734 15 240.734 15 296.734 1 c 1,59,-1
 595.734 1 l 1,60,-1
 595.734 140 l 1,61,-1
 442.734 140 l 1,62,-1
 393.734 143 l 1,63,64
 373.734 150 373.734 150 360.734 163 c 2,65,-1
 347.734 178 l 1,66,67
 342.734 188 342.734 188 336.234 219 c 128,-1,68
 329.734 250 329.734 250 316.734 328 c 0,69,70
 310.734 452 310.734 452 302.734 525 c 1,71,-1
 302.734 525 l 1,37,-1
EndSplineSet
EndChar

StartChar: alefwithhamzaaboveisolated
Encoding: 65155 65155 90
Width: 499
Flags: W
AnchorPoint: "ArabicBelow" 249 -313 basechar 0
AnchorPoint: "ArabicAbove" 249 1488 basechar 0
LayerCount: 2
Fore
SplineSet
378 1011 m 1,0,1
 333 1011 333 1011 295 1002.5 c 128,-1,2
 257 994 257 994 218 974 c 0,3,4
 193 960 193 960 168 946.5 c 128,-1,5
 143 933 143 933 117 919 c 1,6,7
 124 926 124 926 128 931 c 128,-1,8
 132 936 132 936 136 939.5 c 128,-1,9
 140 943 140 943 144 947.5 c 128,-1,10
 148 952 148 952 155 960 c 1,11,-1
 154 960 l 1,12,-1
 239 1015 l 1,13,-1
 176 1016 l 2,14,15
 172 1016 172 1016 167 1016.5 c 128,-1,16
 162 1017 162 1017 157 1017 c 1,17,18
 152 1019 152 1019 145.5 1020 c 128,-1,19
 139 1021 139 1021 134 1023 c 0,20,21
 116 1029 116 1029 102.5 1038 c 128,-1,22
 89 1047 89 1047 82 1060 c 1,23,24
 83 1086 83 1086 97 1114 c 128,-1,25
 111 1142 111 1142 134 1170 c 0,26,27
 164 1202 164 1202 200.5 1219.5 c 128,-1,28
 237 1237 237 1237 278 1238 c 1,29,-1
 311 1232 l 2,30,31
 328 1229 328 1229 328 1204 c 0,32,33
 328 1193 328 1193 323 1186 c 1,34,35
 321 1181 321 1181 320.5 1178 c 128,-1,36
 320 1175 320 1175 318 1170 c 1,37,-1
 319 1171 l 1,38,39
 317 1169 317 1169 315.5 1165 c 128,-1,40
 314 1161 314 1161 312 1158 c 1,41,42
 298 1174 298 1174 281.5 1180.5 c 128,-1,43
 265 1187 265 1187 242 1187 c 0,44,45
 225 1187 225 1187 176 1175 c 0,46,47
 138 1162 138 1162 127 1132 c 1,48,-1
 127 1133 l 1,49,50
 120 1120 120 1120 132 1105 c 1,51,52
 140 1098 140 1098 153.5 1092.5 c 128,-1,53
 167 1087 167 1087 184 1080 c 0,54,55
 250 1062 250 1062 414 1062 c 1,56,-1
 378 1011 l 1,0,1
306 170 m 2,57,58
 305 159 305 159 304.5 146.5 c 128,-1,59
 304 134 304 134 303 123 c 0,60,61
 300 102 300 102 293 79 c 2,62,-1
 275 19 l 2,63,64
 271 9 271 9 267 -1.5 c 128,-1,65
 263 -12 263 -12 259 -22 c 1,66,-1
 259 -21 l 1,67,68
 254 -31 254 -31 249.5 -41.5 c 128,-1,69
 245 -52 245 -52 240 -63 c 1,70,71
 235 -12 235 -12 232 32.5 c 128,-1,72
 229 77 229 77 224 128 c 0,73,74
 220 172 220 172 216 217.5 c 128,-1,75
 212 263 212 263 208 308 c 0,76,77
 207 326 207 326 206.5 347.5 c 128,-1,78
 206 369 206 369 205 387 c 2,79,-1
 204 418 l 1,80,-1
 194 485 l 2,81,82
 187 531 187 531 179.5 577.5 c 128,-1,83
 172 624 172 624 165 671 c 1,84,-1
 165 670 l 1,85,86
 159 717 159 717 219 826 c 0,87,88
 225 837 225 837 239 859.5 c 128,-1,89
 253 882 253 882 276 917 c 1,90,91
 278 903 278 903 279.5 895.5 c 128,-1,92
 281 888 281 888 283 874 c 0,93,94
 284 854 284 854 285 831 c 128,-1,95
 286 808 286 808 287 788 c 0,96,97
 288 758 288 758 288.5 727 c 128,-1,98
 289 696 289 696 290 666 c 2,99,-1
 293 547 l 1,100,-1
 306 170 l 2,57,58
EndSplineSet
EndChar

StartChar: alefwithhamzaabovefinal
Encoding: 65156 65156 91
Width: 531
Flags: W
AnchorPoint: "ArabicBelow" 265 -249 basechar 0
AnchorPoint: "ArabicAbove" 265 1480 basechar 0
LayerCount: 2
Fore
SplineSet
266 455 m 1,0,1
 274 382 274 382 280 328 c 0,2,3
 293 250 293 250 299.5 219 c 128,-1,4
 306 188 306 188 311 178 c 1,5,-1
 324 163 l 2,6,7
 337 150 337 150 357 143 c 1,8,-1
 406 140 l 1,9,-1
 559 140 l 1,10,-1
 559 1 l 1,11,-1
 260 1 l 1,12,13
 204 15 204 15 199 57 c 128,-1,14
 194 99 194 99 189 169 c 0,15,16
 184 229 184 229 179 301 c 2,17,-1
 174 372 l 2,18,19
 161 558 161 558 147 744 c 1,20,21
 170 776 170 776 193.5 805 c 128,-1,22
 217 834 217 834 241 866 c 1,23,24
 242 844 242 844 242 822 c 256,25,26
 242 800 242 800 243 779 c 0,27,28
 244 756 244 756 244.5 729 c 128,-1,29
 245 702 245 702 246 679 c 0,30,31
 246 659 246 659 248 629.5 c 128,-1,32
 250 600 250 600 252 573 c 2,33,-1
 266 455 l 1,34,-1
 266 455 l 1,0,1
397 1039 m 1,35,36
 386 1025 386 1025 376.5 1011 c 128,-1,37
 367 997 367 997 358 983 c 1,38,39
 250 981 250 981 141 921 c 0,40,41
 126 913 126 913 110.5 904 c 128,-1,42
 95 895 95 895 80 887 c 1,43,44
 86 893 86 893 89.5 896 c 128,-1,45
 93 899 93 899 96 903 c 128,-1,46
 99 907 99 907 104 912.5 c 128,-1,47
 109 918 109 918 118 929 c 1,48,-1
 117 929 l 1,49,-1
 207 988 l 1,50,51
 158 988 158 988 103 1000 c 0,52,53
 54 1010 54 1010 41 1035 c 1,54,55
 42 1063 42 1063 56.5 1093 c 128,-1,56
 71 1123 71 1123 97 1154 c 256,57,58
 123 1185 123 1185 167 1208 c 0,59,60
 187 1218 187 1218 209 1224 c 128,-1,61
 231 1230 231 1230 252 1230 c 0,62,63
 267 1230 267 1230 291 1219 c 1,64,65
 296 1215 296 1215 299.5 1207.5 c 128,-1,66
 303 1200 303 1200 305 1190 c 0,67,68
 305 1187 305 1187 304 1182.5 c 128,-1,69
 303 1178 303 1178 301 1173 c 128,-1,70
 299 1168 299 1168 295.5 1159 c 128,-1,71
 292 1150 292 1150 287 1142 c 1,72,73
 259 1173 259 1173 213 1173 c 2,74,-1
 180 1170 l 1,75,-1
 140 1157 l 2,76,77
 98 1144 98 1144 88 1117 c 1,78,-1
 86 1105 l 1,79,80
 86 1077 86 1077 144 1058 c 0,81,82
 148 1056 148 1056 159.5 1054.5 c 128,-1,83
 171 1053 171 1053 190 1051 c 0,84,85
 203 1049 203 1049 216.5 1047.5 c 128,-1,86
 230 1046 230 1046 243 1044 c 2,87,-1
 325 1041 l 1,88,-1
 397 1039 l 1,35,36
EndSplineSet
EndChar

StartChar: wawwithhamzaaboveisolated
Encoding: 65157 65157 92
Width: 770
Flags: W
AnchorPoint: "ArabicBelow" 385 -616 basechar 0
AnchorPoint: "ArabicAbove" 385 1139 basechar 0
LayerCount: 2
Fore
SplineSet
655 258 m 2,0,1
 647 315 647 315 625 345.5 c 128,-1,2
 603 376 603 376 569 379 c 0,3,4
 521 379 521 379 499 287 c 1,5,6
 501 277 501 277 509.5 264.5 c 128,-1,7
 518 252 518 252 534 238 c 1,8,-1
 551 230 l 1,9,-1
 576 222 l 1,10,-1
 600 220 l 2,11,12
 637 220 637 220 655 256 c 1,13,-1
 655 258 l 2,0,1
666 711 m 1,14,15
 665 708 665 708 663.5 706 c 128,-1,16
 662 704 662 704 660 701 c 2,17,-1
 643 679 l 1,18,-1
 627 658 l 1,19,-1
 615 637 l 1,20,21
 598 637 598 637 577 634 c 128,-1,22
 556 631 556 631 530 624 c 0,23,24
 475 613 475 613 447 591 c 1,25,-1
 447 592 l 1,26,27
 424 579 424 579 404.5 562.5 c 128,-1,28
 385 546 385 546 368 527 c 0,29,30
 366 525 366 525 362 523 c 1,31,32
 358 531 358 531 358 537 c 1,33,-1
 364 567 l 1,34,35
 367 575 367 575 373 586 c 128,-1,36
 379 597 379 597 385 605 c 1,37,38
 389 608 389 608 393.5 611.5 c 128,-1,39
 398 615 398 615 403 619 c 1,40,-1
 442 637 l 1,41,42
 432 639 432 639 415.5 643.5 c 128,-1,43
 399 648 399 648 389 650 c 1,44,45
 381 653 381 653 374 656.5 c 128,-1,46
 367 660 367 660 362 665 c 1,47,48
 342 679 342 679 342 706 c 0,49,50
 342 728 342 728 354 757.5 c 128,-1,51
 366 787 366 787 385 818 c 0,52,53
 410 850 410 850 441.5 869.5 c 128,-1,54
 473 889 473 889 507 889 c 0,55,56
 524 889 524 889 526 887 c 1,57,58
 535 887 535 887 549 877 c 0,59,60
 574 863 574 863 574 835 c 1,61,62
 568 823 568 823 561 810 c 128,-1,63
 554 797 554 797 548 785 c 1,64,65
 534 799 534 799 503 811 c 2,66,-1
 483 816 l 1,67,-1
 461 821 l 1,68,69
 450 821 450 821 444 820 c 128,-1,70
 438 819 438 819 436 818 c 2,71,-1
 413 804 l 2,72,73
 391 791 391 791 389 775 c 0,74,75
 389 749 389 749 439 717 c 0,76,77
 459 707 459 707 476 702.5 c 128,-1,78
 493 698 493 698 505 698 c 2,79,-1
 561 701 l 2,80,81
 581 703 581 703 600 705 c 128,-1,82
 619 707 619 707 639 709 c 2,83,-1
 666 711 l 1,14,15
736 233 m 0,84,85
 736 151 736 151 704.5 55 c 128,-1,86
 673 -41 673 -41 616 -142 c 0,87,88
 552 -250 552 -250 479.5 -308 c 128,-1,89
 407 -366 407 -366 332 -366 c 2,90,-1
 292 -363 l 2,91,92
 281 -361 281 -361 270.5 -358 c 128,-1,93
 260 -355 260 -355 250 -353 c 0,94,95
 226 -346 226 -346 197.5 -334.5 c 128,-1,96
 169 -323 169 -323 139 -305 c 0,97,98
 33 -256 33 -256 33 -234 c 0,99,100
 33 -230 33 -230 43 -225 c 1,101,-1
 155 -258 l 1,102,-1
 198 -270 l 1,103,-1
 243 -277 l 1,104,105
 303 -277 303 -277 368.5 -243 c 128,-1,106
 434 -209 434 -209 508 -140 c 0,107,108
 604 -45 604 -45 691 103 c 1,109,-1
 665 189 l 1,110,111
 655 172 655 172 647 158.5 c 128,-1,112
 639 145 639 145 634 138 c 0,113,114
 625 124 625 124 602 110 c 0,115,116
 573 91 573 91 546 91 c 0,117,118
 510 91 510 91 471 135 c 1,119,-1
 471 134 l 1,120,121
 437 180 437 180 437 229 c 2,122,-1
 440 272 l 2,123,124
 442 282 l 128,-1,125
 444 292 l 2,126,-1
 451 316 l 2,127,128
 461 354 461 354 496 413 c 0,129,130
 523 460 523 460 548.5 488 c 128,-1,131
 574 516 574 516 591 516 c 256,132,133
 608 516 608 516 630.5 496.5 c 128,-1,134
 653 477 653 477 679 440 c 0,135,136
 706 392 706 392 721 339 c 128,-1,137
 736 286 736 286 736 233 c 0,84,85
EndSplineSet
EndChar

StartChar: wawwithhamzaabovefinal
Encoding: 65158 65158 93
Width: 759
Flags: W
AnchorPoint: "ArabicBelow" 379 -727 basechar 0
AnchorPoint: "ArabicAbove" 379 1036 basechar 0
LayerCount: 2
Fore
SplineSet
631 143 m 1,0,1
 631 175 631 175 596 228 c 0,2,3
 579 254 579 254 562.5 269.5 c 128,-1,4
 546 285 546 285 532 285 c 0,5,6
 511 285 511 285 486 254 c 0,7,8
 474 238 474 238 465.5 224 c 128,-1,9
 457 210 457 210 453 197 c 1,10,11
 453 187 453 187 458 180 c 0,12,13
 461 176 461 176 467.5 172 c 128,-1,14
 474 168 474 168 482 163 c 2,15,-1
 518 147 l 1,16,-1
 555 139 l 1,17,-1
 608 134 l 2,18,19
 624 134 624 134 630 140 c 1,20,-1
 631 143 l 1,0,1
647 614 m 1,21,22
 643 606 643 606 640.5 600 c 128,-1,23
 638 594 638 594 634 586 c 1,24,-1
 635 586 l 1,25,-1
 608 544 l 1,26,27
 574 544 574 544 526 530 c 0,28,29
 503 523 503 523 480 514 c 128,-1,30
 457 505 457 505 440 494 c 1,31,-1
 440 495 l 1,32,33
 403 477 403 477 374 440 c 1,34,-1
 375 440 l 1,35,36
 369 436 369 436 366 433 c 1,37,-1
 366 453 l 1,38,39
 382 515 382 515 438 535 c 1,40,-1
 438 542 l 1,41,42
 433 543 433 543 426.5 543.5 c 128,-1,43
 420 544 420 544 415 545 c 2,44,-1
 397 551 l 1,45,-1
 398 551 l 1,46,47
 396 552 396 552 391 552 c 1,48,-1
 392 552 l 1,49,50
 384 554 384 554 370 564 c 0,51,52
 346 580 346 580 346 608 c 0,53,54
 346 626 346 626 347 634 c 128,-1,55
 348 642 348 642 354 657 c 0,56,57
 356 664 356 664 359 670.5 c 128,-1,58
 362 677 362 677 364 684 c 1,59,-1
 364 683 l 1,60,61
 368 689 l 128,-1,62
 372 695 l 1,63,-1
 371 695 l 1,64,-1
 387 718 l 2,65,66
 434 786 434 786 502 786 c 0,67,68
 512 786 512 786 518 784 c 2,69,70
 526 784 526 784 535 778 c 0,71,72
 560 763 560 763 560 735 c 1,73,74
 554 722 554 722 547.5 711 c 128,-1,75
 541 700 541 700 534 687 c 1,76,77
 530 692 530 692 523 697 c 128,-1,78
 516 702 516 702 505 709 c 1,79,-1
 472 721 l 1,80,81
 454 721 454 721 421 706 c 0,82,83
 402 696 402 696 393 679 c 1,84,85
 393 648 393 648 433 622 c 0,86,87
 453 611 453 611 470 605.5 c 128,-1,88
 487 600 487 600 500 600 c 2,89,-1
 545 601 l 1,90,-1
 564 602 l 1,91,92
 571 604 571 604 579.5 605 c 128,-1,93
 588 606 588 606 595 608 c 1,94,-1
 647 614 l 1,21,22
810 0 m 1,95,-1
 703 0 l 1,96,97
 691 -45 691 -45 673.5 -89 c 128,-1,98
 656 -133 656 -133 631 -175 c 0,99,100
 620 -198 620 -198 608.5 -217.5 c 128,-1,101
 597 -237 597 -237 586 -251 c 0,102,103
 572 -272 572 -272 555.5 -293.5 c 128,-1,104
 539 -315 539 -315 519 -338 c 0,105,106
 403 -477 403 -477 279 -477 c 0,107,108
 219 -477 219 -477 83 -406 c 0,109,110
 -51 -338 -51 -338 -51 -306 c 0,111,112
 -51 -297 -51 -297 -46 -295 c 1,113,114
 -14 -315 -14 -315 15 -331.5 c 128,-1,115
 44 -348 44 -348 73 -361 c 0,116,117
 90 -368 90 -368 107.5 -372.5 c 128,-1,118
 125 -377 125 -377 142 -382 c 2,119,-1
 174 -388 l 1,120,-1
 210 -390 l 2,121,122
 314 -390 314 -390 474 -237 c 0,123,124
 634 -85 634 -85 634 2 c 1,125,-1
 608 2 l 2,126,127
 534 2 534 2 487 10.5 c 128,-1,128
 440 19 440 19 409 52 c 0,129,130
 403 60 403 60 398.5 72.5 c 128,-1,131
 394 85 394 85 392 99 c 1,132,-1
 392 120 l 2,133,134
 392 135 392 135 394 139 c 2,135,136
 394 212 394 212 448 317 c 0,137,138
 502 420 502 420 559 420 c 0,139,140
 583 420 583 420 610 391.5 c 128,-1,141
 637 363 637 363 664 312 c 0,142,143
 681 268 681 268 694.5 222 c 128,-1,144
 708 176 708 176 715 134 c 1,145,-1
 810 134 l 1,146,-1
 810 0 l 1,95,-1
EndSplineSet
EndChar

StartChar: alefwithhamzabelowisolated
Encoding: 65159 65159 94
Width: 473
Flags: W
AnchorPoint: "ArabicBelow" 236 -644 basechar 0
AnchorPoint: "ArabicAbove" 236 1386 basechar 0
LayerCount: 2
Fore
SplineSet
362 -306 m 1,0,1
 314 -306 314 -306 263.5 -320.5 c 128,-1,2
 213 -335 213 -335 164 -361 c 2,3,-1
 118 -385 l 2,4,5
 115 -387 115 -387 111.5 -389.5 c 128,-1,6
 108 -392 108 -392 104 -394 c 1,7,-1
 105 -393 l 2,8,9
 113 -385 113 -385 122.5 -374.5 c 128,-1,10
 132 -364 132 -364 140 -356 c 1,11,-1
 173 -337 l 1,12,-1
 225 -302 l 1,13,-1
 192 -302 l 1,14,-1
 165 -300 l 2,15,16
 155 -300 155 -300 125 -291 c 0,17,18
 86 -281 86 -281 73 -258 c 1,19,20
 74 -234 74 -234 87 -206.5 c 128,-1,21
 100 -179 100 -179 123 -151 c 0,22,23
 153 -118 153 -118 189 -99.5 c 128,-1,24
 225 -81 225 -81 265 -81 c 0,25,26
 284 -81 284 -81 295 -85 c 0,27,28
 312 -94 312 -94 312 -116 c 0,29,30
 312 -127 312 -127 307 -134 c 0,31,32
 305 -138 305 -138 304.5 -141 c 128,-1,33
 304 -144 304 -144 302 -148 c 1,34,-1
 302 -147 l 1,35,36
 300 -150 300 -150 298.5 -153 c 128,-1,37
 297 -156 297 -156 295 -160 c 1,38,39
 270 -133 270 -133 229 -133 c 0,40,41
 201 -133 201 -133 153 -150 c 0,42,43
 133 -158 133 -158 116 -186 c 1,44,-1
 114 -195 l 1,45,46
 114 -219 114 -219 178 -238 c 0,47,48
 236 -256 236 -256 396 -256 c 1,49,-1
 362 -306 l 1,0,1
308 206 m 1,50,51
 308 164 308 164 296 116 c 2,52,-1
 278 55 l 2,53,54
 274 45 274 45 270 34.5 c 128,-1,55
 266 24 266 24 262 14 c 1,56,-1
 262 15 l 1,57,58
 257 4 257 4 252.5 -6.5 c 128,-1,59
 248 -17 248 -17 243 -28 c 1,60,61
 238 17 238 17 235 56 c 128,-1,62
 232 95 232 95 227 140 c 2,63,-1
 211 305 l 1,64,-1
 192 494 l 2,65,66
 180 612 180 612 169 709 c 128,-1,67
 158 806 158 806 147 886 c 1,68,-1
 147 885 l 1,69,70
 143 909 143 909 157.5 948 c 128,-1,71
 172 987 172 987 201 1041 c 0,72,73
 208 1053 208 1053 216.5 1067.5 c 128,-1,74
 225 1082 225 1082 233 1094 c 0,75,76
 239 1103 239 1103 246 1114.5 c 128,-1,77
 253 1126 253 1126 260 1136 c 1,78,79
 262 1134 262 1134 261 1133 c 128,-1,80
 260 1132 260 1132 261 1125 c 0,81,82
 262 1120 262 1120 263 1114.5 c 128,-1,83
 264 1109 264 1109 265 1104 c 0,84,85
 266 1089 266 1089 267 1073.5 c 128,-1,86
 268 1058 268 1058 269 1043 c 2,87,-1
 271 997 l 1,88,-1
 274 936 l 1,89,-1
 276 877 l 2,90,91
 278 844 278 844 279.5 810 c 128,-1,92
 281 776 281 776 283 743 c 0,93,94
 285 691 l 128,-1,95
 287 639 l 2,96,-1
 290 533 l 2,97,98
 294 479 l 128,-1,99
 296 452 296 452 298 424 c 2,100,-1
 299 349 l 1,101,-1
 299 318 l 1,102,-1
 301 286 l 1,103,-1
 302 248 l 1,104,-1
 308 206 l 1,50,51
EndSplineSet
EndChar

StartChar: alefwithhamzabelowfinal
Encoding: 65160 65160 95
Width: 417
Flags: W
AnchorPoint: "ArabicBelow" 208 -744 basechar 0
AnchorPoint: "ArabicAbove" 208 1381 basechar 0
LayerCount: 2
Fore
SplineSet
344 -401 m 1,0,1
 248 -401 248 -401 144 -457 c 2,2,-1
 105 -480 l 2,3,4
 100 -483 100 -483 93.5 -486.5 c 128,-1,5
 87 -490 87 -490 82 -494 c 1,6,7
 85 -490 85 -490 86 -489 c 128,-1,8
 88 -487 l 128,-1,9
 90 -485 l 128,-1,10
 91 -484 91 -484 94 -480 c 1,11,-1
 94 -481 l 1,12,-1
 123 -452 l 1,13,-1
 122 -452 l 1,14,-1
 151 -434 l 1,15,-1
 206 -397 l 1,16,-1
 161 -397 l 1,17,-1
 147 -395 l 1,18,-1
 128 -394 l 2,19,20
 122 -394 122 -394 109 -388 c 2,21,22
 68 -376 68 -376 55 -355 c 1,23,24
 56 -332 56 -332 69 -304 c 128,-1,25
 82 -276 82 -276 105 -246 c 1,26,27
 118 -234 118 -234 136 -219.5 c 128,-1,28
 154 -205 154 -205 171 -194 c 1,29,-1
 171 -195 l 1,30,31
 210 -178 210 -178 247 -178 c 0,32,33
 269 -178 269 -178 281.5 -183 c 128,-1,34
 294 -188 294 -188 294 -212 c 0,35,36
 294 -223 294 -223 289 -230 c 1,37,38
 287 -235 287 -235 286.5 -238 c 128,-1,39
 286 -241 286 -241 284 -246 c 1,40,-1
 285 -245 l 1,41,42
 283 -247 283 -247 281 -250.5 c 128,-1,43
 279 -254 279 -254 277 -257 c 1,44,45
 255 -229 255 -229 211 -229 c 0,46,47
 169 -229 169 -229 139.5 -242 c 128,-1,48
 110 -255 110 -255 98 -281 c 1,49,-1
 96 -292 l 1,50,51
 96 -311 96 -311 162 -332 c 0,52,53
 224 -352 224 -352 378 -352 c 1,54,-1
 344 -401 l 1,0,1
421 0 m 1,55,-1
 204 1 l 1,56,57
 148 15 148 15 143 57 c 128,-1,58
 138 99 138 99 133 169 c 128,-1,59
 128 239 128 239 121 327 c 128,-1,60
 114 415 114 415 107 505.5 c 128,-1,61
 100 596 100 596 93 684 c 128,-1,62
 86 772 86 772 79.5 855 c 128,-1,63
 73 938 73 938 68 1011 c 1,64,65
 91 1041 91 1041 114.5 1071.5 c 128,-1,66
 138 1102 138 1102 161 1131 c 1,67,-1
 163 1071 l 2,68,69
 165 1033 165 1033 166.5 995 c 128,-1,70
 168 957 168 957 170 919 c 0,71,72
 170 869 170 869 179 773 c 2,73,-1
 197 595 l 2,74,75
 202 553 202 553 206 509.5 c 128,-1,76
 210 466 210 466 215 424 c 2,77,-1
 229 305 l 2,78,79
 237 250 237 250 243.5 219 c 128,-1,80
 250 188 250 188 255 178 c 1,81,-1
 268 163 l 2,82,83
 281 150 281 150 301 144 c 1,84,-1
 349 140 l 1,85,-1
 421 140 l 1,86,-1
 421 0 l 1,55,-1
EndSplineSet
EndChar

StartChar: yehwithhamzaaboveisolated
Encoding: 65161 65161 96
Width: 1198
Flags: W
AnchorPoint: "ArabicBelow" 599 -603 basechar 0
AnchorPoint: "ArabicAbove" 599 1216 basechar 0
LayerCount: 2
Fore
SplineSet
623 785 m 1,0,1
 621 781 621 781 620.5 779.5 c 128,-1,2
 620 778 620 778 618 774 c 1,3,-1
 618 775 l 1,4,5
 616 770 616 770 613 766 c 128,-1,6
 610 762 610 762 608 757 c 1,7,-1
 609 757 l 1,8,-1
 579 712 l 1,9,10
 563 712 563 712 541 707 c 128,-1,11
 519 702 519 702 492 693 c 2,12,-1
 444 677 l 1,13,-1
 423 669 l 1,14,-1
 405 660 l 2,15,16
 384 650 384 650 366.5 635 c 128,-1,17
 349 620 349 620 333 601 c 0,18,19
 331 599 331 599 325 595 c 1,20,21
 325 602 325 602 327 611.5 c 128,-1,22
 329 621 329 621 332 635 c 1,23,24
 342 655 342 655 362.5 674.5 c 128,-1,25
 383 694 383 694 414 708 c 1,26,27
 365 714 365 714 334 734 c 0,28,29
 304 751 304 751 304 779 c 0,30,31
 304 830 304 830 349 895 c 0,32,33
 374 927 374 927 404.5 946.5 c 128,-1,34
 435 966 435 966 467 966 c 0,35,36
 492 966 492 966 509 950.5 c 128,-1,37
 526 935 526 935 530 912 c 1,38,-1
 523 898 l 2,39,40
 522 895 522 895 521 891.5 c 128,-1,41
 520 888 520 888 519 885 c 1,42,-1
 520 886 l 1,43,44
 516 880 516 880 511.5 874 c 128,-1,45
 507 868 507 868 502 861 c 1,46,47
 492 876 492 876 472 885.5 c 128,-1,48
 452 895 452 895 437 897 c 1,49,-1
 409 894 l 2,50,51
 399 892 399 892 383 882 c 1,52,-1
 383 883 l 1,53,54
 367 876 367 876 355 853 c 1,55,56
 355 825 355 825 399 793 c 2,57,-1
 421 781 l 1,58,-1
 463 771 l 1,59,-1
 526 771 l 1,60,61
 531 772 531 772 536.5 773 c 128,-1,62
 542 774 542 774 547 775 c 2,63,-1
 623 785 l 1,0,1
1111 578 m 2,64,65
 1111 567 1111 567 1108.5 551.5 c 128,-1,66
 1106 536 1106 536 1101 519 c 0,67,68
 1099 514 1099 514 1097.5 508 c 128,-1,69
 1096 502 1096 502 1094 497 c 1,70,71
 1084 502 1084 502 1074 505 c 128,-1,72
 1064 508 1064 508 1050 513 c 2,73,-1
 1030 518 l 1,74,-1
 1000 522 l 2,75,76
 905 522 905 522 797 429 c 0,77,78
 690 337 690 337 690 255 c 0,79,80
 690 214 690 214 746 188 c 0,81,82
 807 167 807 167 896 167 c 0,83,84
 946 167 946 167 983 159.5 c 128,-1,85
 1020 152 1020 152 1042 138 c 0,86,87
 1070 116 1070 116 1070 76 c 0,88,89
 1070 -15 1070 -15 1039 -67 c 0,90,91
 1008 -120 1008 -120 914 -187 c 0,92,93
 862 -225 862 -225 802.5 -255 c 128,-1,94
 743 -285 743 -285 674 -307 c 0,95,96
 607 -329 607 -329 538.5 -341 c 128,-1,97
 470 -353 470 -353 405 -353 c 0,98,99
 337 -353 337 -353 280 -335 c 128,-1,100
 223 -317 223 -317 181 -286 c 0,101,102
 136 -248 136 -248 111.5 -196.5 c 128,-1,103
 87 -145 87 -145 87 -79 c 0,104,105
 87 -26 87 -26 104.5 41 c 128,-1,106
 122 108 122 108 154 180 c 0,107,108
 181 239 181 239 201.5 271 c 128,-1,109
 222 303 222 303 235 303 c 0,110,111
 238 303 238 303 241 295 c 1,112,-1
 207 207 l 2,113,114
 202 192 202 192 195.5 175.5 c 128,-1,115
 189 159 189 159 184 144 c 0,116,117
 173 109 173 109 166.5 76.5 c 128,-1,118
 160 44 160 44 160 18 c 0,119,120
 160 -113 160 -113 266 -177 c 0,121,122
 346 -221 346 -221 504 -221 c 0,123,124
 631 -221 631 -221 817 -137 c 0,125,126
 1006 -53 1006 -53 1006 -7 c 1,127,128
 994 18 994 18 970 35 c 1,129,-1
 931 39 l 1,130,-1
 862 42 l 2,131,132
 799 42 799 42 753.5 49.5 c 128,-1,133
 708 57 708 57 678 71 c 0,134,135
 652 85 652 85 638 113 c 0,136,137
 624 146 624 146 624 184 c 0,138,139
 624 315 624 315 766 490 c 256,140,141
 908 665 908 665 1015 665 c 2,142,-1
 1051 665 l 1,143,144
 1057 664 1057 664 1063.5 663.5 c 128,-1,145
 1070 663 1070 663 1076 662 c 1,146,-1
 1075 662 l 1,147,148
 1111 651 1111 651 1111 612 c 2,149,-1
 1111 578 l 2,64,65
EndSplineSet
EndChar

StartChar: yehwithhamzaabovefinal
Encoding: 65162 65162 97
Width: 997
Flags: W
AnchorPoint: "ArabicBelow" 498 -778 basechar 0
AnchorPoint: "ArabicAbove" 498 1032 basechar 0
LayerCount: 2
Fore
SplineSet
579 601 m 1,0,1
 577 597 577 597 576.5 595.5 c 128,-1,2
 576 594 576 594 574 590 c 1,3,-1
 574 591 l 1,4,5
 572 586 572 586 569 582 c 128,-1,6
 566 578 566 578 564 573 c 1,7,-1
 565 573 l 1,8,-1
 535 528 l 1,9,10
 520 528 520 528 498 523 c 128,-1,11
 476 518 476 518 449 510 c 2,12,-1
 400 494 l 1,13,-1
 379 486 l 1,14,-1
 361 477 l 2,15,16
 343 468 343 468 325 452.5 c 128,-1,17
 307 437 307 437 289 417 c 0,18,19
 288 416 288 416 286 414.5 c 128,-1,20
 284 413 284 413 282 411 c 1,21,22
 282 418 282 418 284 427.5 c 128,-1,23
 286 437 286 437 288 451 c 1,24,25
 298 471 298 471 318 490 c 128,-1,26
 338 509 338 509 368 523 c 1,27,28
 358 525 358 525 343 529 c 128,-1,29
 328 533 328 533 318 535 c 1,30,-1
 305 540 l 2,31,32
 301 542 301 542 297.5 545.5 c 128,-1,33
 294 549 294 549 290 551 c 0,34,35
 260 569 260 569 260 595 c 0,36,37
 260 620 260 620 272 649.5 c 128,-1,38
 284 679 284 679 305 711 c 0,39,40
 330 743 330 743 360.5 762.5 c 128,-1,41
 391 782 391 782 423 782 c 0,42,43
 450 782 450 782 467 766.5 c 128,-1,44
 484 751 484 751 486 727 c 1,45,46
 484 722 484 722 479.5 714 c 128,-1,47
 475 706 475 706 475 701 c 1,48,-1
 476 702 l 1,49,50
 468 690 l 128,-1,51
 464 684 464 684 459 677 c 1,52,53
 449 692 449 692 428.5 701.5 c 128,-1,54
 408 711 408 711 393 713 c 1,55,-1
 365 710 l 2,56,57
 355 708 355 708 339 698 c 1,58,-1
 340 699 l 1,59,60
 326 696 326 696 318 683 c 2,61,-1
 311 668 l 1,62,63
 311 640 311 640 357 608 c 1,64,-1
 385 594 l 2,65,66
 403 587 403 587 420 587 c 2,67,-1
 482 587 l 1,68,69
 487 588 487 588 492.5 589 c 128,-1,70
 498 590 498 590 503 591 c 2,71,-1
 579 601 l 1,0,1
1032 0 m 1,72,-1
 867 0 l 2,73,74
 826 0 826 0 777 -13 c 0,75,76
 756 -18 756 -18 741 -25.5 c 128,-1,77
 726 -33 726 -33 721 -44 c 1,78,79
 721 -60 721 -60 768 -77 c 2,80,-1
 808 -91 l 1,81,-1
 864 -104 l 2,82,83
 874 -106 874 -106 884.5 -107.5 c 128,-1,84
 895 -109 895 -109 905 -111 c 0,85,86
 917 -113 917 -113 930 -116.5 c 128,-1,87
 943 -120 943 -120 955 -122 c 1,88,89
 970 -129 970 -129 985 -144.5 c 128,-1,90
 1000 -160 1000 -160 1008 -177 c 1,91,92
 1008 -268 1008 -268 961 -310 c 1,93,-1
 962 -310 l 1,94,-1
 857 -383 l 2,95,96
 812 -415 812 -415 748.5 -443.5 c 128,-1,97
 685 -472 685 -472 619 -491 c 0,98,99
 587 -499 587 -499 551 -506 c 128,-1,100
 515 -513 515 -513 480 -518 c 0,101,102
 463 -520 463 -520 444.5 -521.5 c 128,-1,103
 426 -523 426 -523 409 -525 c 0,104,105
 393 -526 393 -526 374 -526.5 c 128,-1,106
 355 -527 355 -527 339 -528 c 0,107,108
 278 -526 278 -526 221 -509 c 128,-1,109
 164 -492 164 -492 119 -460 c 0,110,111
 28 -391 28 -391 28 -259 c 0,112,113
 28 -204 28 -204 43 -138 c 2,114,115
 43 -135 43 -135 45 -129 c 0,116,117
 47 -119 47 -119 51 -104.5 c 128,-1,118
 55 -90 55 -90 62 -73 c 0,119,120
 69 -58 69 -58 77.5 -39.5 c 128,-1,121
 86 -21 86 -21 93 -6 c 0,122,123
 117 45 117 45 136.5 76.5 c 128,-1,124
 156 108 156 108 169 115 c 1,125,-1
 169 83 l 2,126,127
 169 79 169 79 168 74.5 c 128,-1,128
 167 70 167 70 167 66 c 1,129,-1
 138 -13 l 1,130,-1
 116 -82 l 2,131,132
 100 -140 100 -140 100 -164 c 0,133,134
 100 -299 100 -299 202 -356 c 0,135,136
 285 -399 285 -399 436 -399 c 0,137,138
 499 -399 499 -399 576 -383 c 128,-1,139
 653 -367 653 -367 735 -337 c 0,140,141
 822 -308 822 -308 869 -285.5 c 128,-1,142
 916 -263 916 -263 916 -250 c 0,143,144
 916 -235 916 -235 858 -222 c 0,145,146
 840 -219 840 -219 821.5 -215.5 c 128,-1,147
 803 -212 803 -212 784 -209 c 0,148,149
 717 -197 717 -197 677 -177 c 128,-1,150
 637 -157 637 -157 637 -131 c 0,151,152
 637 -44 637 -44 728 44 c 0,153,154
 818 134 818 134 890 134 c 2,155,-1
 1032 134 l 1,156,-1
 1032 0 l 1,72,-1
EndSplineSet
EndChar

StartChar: yehwithhamzaaboveinitial
Encoding: 65163 65163 98
Width: 500
Flags: W
AnchorPoint: "ArabicBelow" 250 -250 basechar 0
AnchorPoint: "ArabicAbove" 250 1338 basechar 0
LayerCount: 2
Fore
SplineSet
480 859 m 1,0,1
 469 842 469 842 458.5 826 c 128,-1,2
 448 810 448 810 437 793 c 1,3,4
 378 793 378 793 337 782 c 0,5,6
 316 777 316 777 294 769 c 128,-1,7
 272 761 272 761 246 749 c 1,8,9
 214 728 214 728 177.5 703.5 c 128,-1,10
 141 679 141 679 106 657 c 1,11,12
 120 677 120 677 129 691 c 128,-1,13
 138 705 138 705 152 725 c 1,14,-1
 152 724 l 1,15,16
 162 732 162 732 172.5 741 c 128,-1,17
 183 750 183 750 193 758 c 1,18,-1
 192 758 l 1,19,-1
 241 797 l 1,20,21
 184 797 184 797 135 810 c 0,22,23
 87 821 87 821 76 850 c 1,24,25
 78 880 78 880 94.5 919 c 128,-1,26
 111 958 111 958 140 996 c 0,27,28
 175 1040 175 1040 216.5 1063 c 128,-1,29
 258 1086 258 1086 301 1088 c 1,30,-1
 309 1084 l 1,31,-1
 311 1084 l 1,32,33
 316 1082 316 1082 322 1078 c 128,-1,34
 328 1074 328 1074 333 1071 c 0,35,36
 356 1053 356 1053 356 1039 c 0,37,38
 356 1037 356 1037 355 1036 c 128,-1,39
 354 1035 354 1035 354 1033 c 1,40,41
 352 1031 352 1031 350 1027 c 128,-1,42
 348 1023 348 1023 347 1021 c 0,43,44
 343 1013 343 1013 338.5 1004.5 c 128,-1,45
 334 996 334 996 330 988 c 1,46,47
 305 1019 305 1019 249 1019 c 0,48,49
 209 1019 209 1019 168 982 c 1,50,-1
 169 982 l 1,51,52
 160 976 160 976 134 947 c 0,53,54
 129 942 129 942 127 935.5 c 128,-1,55
 125 929 125 929 123 921 c 1,56,57
 123 903 123 903 168 877 c 1,58,59
 205 863 205 863 281 863 c 2,60,-1
 437 859 l 1,61,-1
 480 859 l 1,0,1
-59 140 m 1,62,-1
 421 140 l 1,63,64
 421 199 421 199 384 279 c 0,65,66
 371 310 371 310 351.5 344.5 c 128,-1,67
 332 379 332 379 303 416 c 1,68,-1
 339 484 l 2,69,70
 341 489 341 489 344 494.5 c 128,-1,71
 347 500 347 500 349 505 c 1,72,-1
 348 505 l 1,73,74
 355 517 355 517 362 528.5 c 128,-1,75
 369 540 369 540 377 552 c 1,76,77
 385 540 385 540 399.5 511.5 c 128,-1,78
 414 483 414 483 437 436 c 0,79,80
 458 386 458 386 473.5 331.5 c 128,-1,81
 489 277 489 277 499 226 c 1,82,83
 498 191 498 191 495 152 c 128,-1,84
 492 113 492 113 486 85 c 0,85,86
 477 48 477 48 459 24 c 128,-1,87
 441 0 441 0 417 0 c 2,88,-1
 -59 0 l 1,89,-1
 -59 140 l 1,62,-1
EndSplineSet
EndChar

StartChar: yehwithhamzaabovemedial
Encoding: 65164 65164 99
Width: 520
Flags: W
AnchorPoint: "ArabicBelow" 260 -250 basechar 0
AnchorPoint: "ArabicAbove" 260 1338 basechar 0
LayerCount: 2
Fore
SplineSet
522 859 m 1,0,1
 511 842 511 842 500.5 826 c 128,-1,2
 490 810 490 810 479 793 c 1,3,4
 420 793 420 793 379 782 c 0,5,6
 339 773 339 773 288 749 c 0,7,8
 256 728 256 728 219.5 703.5 c 128,-1,9
 183 679 183 679 148 657 c 1,10,11
 162 677 162 677 171 691 c 128,-1,12
 180 705 180 705 194 725 c 1,13,-1
 194 724 l 1,14,15
 204 732 204 732 214.5 741 c 128,-1,16
 225 750 225 750 235 758 c 1,17,-1
 234 758 l 1,18,-1
 283 797 l 1,19,20
 226 797 226 797 177 810 c 0,21,22
 129 821 129 821 118 850 c 1,23,24
 120 880 120 880 136.5 919 c 128,-1,25
 153 958 153 958 182 996 c 0,26,27
 217 1040 217 1040 258.5 1063 c 128,-1,28
 300 1086 300 1086 343 1088 c 1,29,-1
 352 1084 l 1,30,-1
 353 1084 l 1,31,32
 358 1082 358 1082 364 1078 c 128,-1,33
 370 1074 370 1074 375 1071 c 0,34,35
 398 1053 398 1053 398 1039 c 0,36,37
 398 1037 398 1037 397 1036 c 128,-1,38
 396 1035 396 1035 396 1033 c 1,39,40
 394 1031 394 1031 392 1027 c 128,-1,41
 390 1023 390 1023 389 1021 c 0,42,43
 385 1013 385 1013 380.5 1004.5 c 128,-1,44
 376 996 376 996 372 988 c 1,45,46
 347 1019 347 1019 291 1019 c 0,47,48
 251 1019 251 1019 210 982 c 1,49,-1
 211 982 l 1,50,51
 202 976 202 976 176 947 c 0,52,53
 168 938 168 938 165 921 c 1,54,55
 165 903 165 903 210 877 c 1,56,57
 247 863 247 863 323 863 c 2,58,-1
 479 859 l 1,59,-1
 522 859 l 1,0,1
-17 140 m 1,60,-1
 78 140 l 1,61,-1
 124 139 l 1,62,-1
 167 138 l 2,63,64
 175 138 175 138 187 137.5 c 128,-1,65
 199 137 199 137 207 137 c 2,66,-1
 250 134 l 1,67,-1
 297 135 l 1,68,-1
 332 142 l 2,69,70
 373 152 373 152 373 191 c 0,71,72
 373 206 373 206 373.5 225.5 c 128,-1,73
 374 245 374 245 374 265 c 0,74,75
 374 286 374 286 374.5 305.5 c 128,-1,76
 375 325 375 325 375 340 c 1,77,78
 388 357 388 357 401 373 c 128,-1,79
 414 389 414 389 427 406 c 0,80,81
 452 438 452 438 470 460 c 128,-1,82
 488 482 488 482 499 492 c 1,83,84
 497 460 497 460 495 427.5 c 128,-1,85
 493 395 493 395 491 363 c 0,86,87
 489 340 489 340 485.5 315 c 128,-1,88
 482 290 482 290 480 266 c 0,89,90
 479 259 479 259 478.5 251.5 c 128,-1,91
 478 244 478 244 477 237 c 1,92,-1
 477 238 l 1,93,-1
 471 217 l 1,94,-1
 463 164 l 1,95,96
 463 150 463 150 494 140 c 1,97,-1
 537 140 l 1,98,-1
 537 0 l 1,99,-1
 457 0 l 2,100,101
 431 0 431 0 392 24 c 1,102,103
 390 26 390 26 377 55 c 1,104,-1
 377 54 l 1,105,106
 369 76 369 76 355 91 c 1,107,-1
 337 71 l 1,108,-1
 313 38 l 1,109,110
 296 5 296 5 280 0 c 1,111,-1
 -17 0 l 1,112,-1
 -17 140 l 1,60,-1
EndSplineSet
EndChar

StartChar: alefisolated
Encoding: 65165 65165 100
Width: 407
Flags: W
AnchorPoint: "ArabicBelow" 203 -290 basechar 0
AnchorPoint: "ArabicAbove" 203 1385 basechar 0
LayerCount: 2
Fore
SplineSet
254 190 m 1,0,1
 254 137 254 137 241 98 c 2,2,3
 238 76 238 76 223 37 c 1,4,-1
 223 38 l 1,5,-1
 192 -40 l 1,6,-1
 188 65 l 1,7,-1
 188 102 l 2,8,9
 169 268 169 268 156 387 c 128,-1,10
 143 506 143 506 134 588.5 c 128,-1,11
 125 671 125 671 119 723 c 128,-1,12
 113 775 113 775 109 807 c 128,-1,13
 105 839 105 839 102.5 856 c 128,-1,14
 100 873 100 873 97 886 c 2,15,-1
 96 897 l 2,16,17
 96 914 96 914 98 920 c 2,18,-1
 107 950 l 2,19,20
 114 970 114 970 124 993 c 128,-1,21
 134 1016 134 1016 149 1041 c 0,22,23
 163 1064 163 1064 177.5 1088 c 128,-1,24
 192 1112 192 1112 206 1135 c 1,25,26
 207 1134 207 1134 207 1133 c 2,27,-1
 207 1130 l 1,28,-1
 207 1125 l 1,29,30
 208 1120 208 1120 209 1114.5 c 128,-1,31
 210 1109 210 1109 211 1104 c 2,32,-1
 215 1044 l 1,33,-1
 221 873 l 2,34,35
 224 795 224 795 226.5 743 c 128,-1,36
 229 691 229 691 231 656 c 128,-1,37
 233 621 233 621 234 598.5 c 128,-1,38
 235 576 235 576 237 556 c 2,39,-1
 238 547 l 1,40,-1
 244 412 l 1,41,-1
 250 267 l 1,42,-1
 248 224 l 1,43,-1
 254 190 l 1,0,1
EndSplineSet
EndChar

StartChar: aleffinal
Encoding: 65166 65166 101
Width: 392
Flags: W
AnchorPoint: "ArabicBelow" 196 -250 basechar 0
AnchorPoint: "ArabicAbove" 196 1381 basechar 0
LayerCount: 2
Fore
SplineSet
421 0 m 1,0,-1
 204 1 l 1,1,2
 148 15 148 15 143 57 c 128,-1,3
 138 99 138 99 133 169 c 128,-1,4
 128 239 128 239 121 327 c 128,-1,5
 114 415 114 415 107 505.5 c 128,-1,6
 100 596 100 596 93 684 c 128,-1,7
 86 772 86 772 79.5 855 c 128,-1,8
 73 938 73 938 68 1011 c 1,9,10
 91 1041 91 1041 114.5 1071.5 c 128,-1,11
 138 1102 138 1102 161 1131 c 1,12,-1
 163 1071 l 2,13,14
 165 1033 165 1033 166.5 995 c 128,-1,15
 168 957 168 957 170 919 c 0,16,17
 170 869 170 869 179 773 c 2,18,-1
 197 595 l 2,19,20
 202 553 202 553 206 509.5 c 128,-1,21
 210 466 210 466 215 424 c 2,22,-1
 229 305 l 2,23,24
 237 250 237 250 243.5 219 c 128,-1,25
 250 188 250 188 255 178 c 1,26,-1
 268 163 l 2,27,28
 281 150 281 150 301 144 c 1,29,-1
 349 140 l 1,30,-1
 421 140 l 1,31,-1
 421 0 l 1,0,-1
EndSplineSet
EndChar

StartChar: behisolated
Encoding: 65167 65167 102
Width: 1276
Flags: W
AnchorPoint: "ArabicBelow" 638 -646 basechar 0
AnchorPoint: "ArabicAbove" 638 813 basechar 0
LayerCount: 2
Fore
SplineSet
741 -286 m 1,0,1
 722 -315 722 -315 706 -341 c 128,-1,2
 690 -367 690 -367 672 -396 c 1,3,4
 632 -372 632 -372 593.5 -349.5 c 128,-1,5
 555 -327 555 -327 514 -303 c 1,6,7
 532 -273 532 -273 548.5 -245.5 c 128,-1,8
 565 -218 565 -218 583 -189 c 1,9,-1
 741 -286 l 1,0,1
1257 201 m 1,10,-1
 1253 176 l 2,11,12
 1252 170 1252 170 1251 163.5 c 128,-1,13
 1250 157 1250 157 1249 151 c 0,14,15
 1247 143 1247 143 1245.5 135 c 128,-1,16
 1244 127 1244 127 1242 120 c 2,17,-1
 1226 53 l 1,18,-1
 1220 23 l 1,19,20
 1218 18 1218 18 1216.5 12 c 128,-1,21
 1215 6 1215 6 1213 0 c 1,22,-1
 337 0 l 2,23,24
 187 0 187 0 105 70 c 0,25,26
 63 107 63 107 40 148 c 0,27,28
 18 196 18 196 18 242 c 0,29,30
 18 271 18 271 33 314 c 128,-1,31
 48 357 48 357 75 411 c 0,32,33
 100 460 100 460 120 488.5 c 128,-1,34
 140 517 140 517 154 522 c 1,35,36
 152 512 152 512 150.5 505.5 c 128,-1,37
 149 499 149 499 147 490 c 1,38,39
 124 439 124 439 111 402 c 128,-1,40
 98 365 98 365 98 351 c 0,41,42
 98 253 98 253 155 196 c 0,43,44
 166 185 166 185 182 175 c 128,-1,45
 198 165 198 165 218 155 c 0,46,47
 261 140 261 140 305 140 c 2,48,-1
 1182 140 l 1,49,50
 1182 168 1182 168 1173 209 c 2,51,-1
 1161 251 l 2,52,53
 1159 257 1159 257 1157.5 262.5 c 128,-1,54
 1156 268 1156 268 1153 272 c 0,55,56
 1151 275 1151 275 1150 279 c 128,-1,57
 1149 283 1149 283 1147 286 c 2,58,59
 1142 300 1142 300 1135.5 313.5 c 128,-1,60
 1129 327 1129 327 1118 347 c 0,61,62
 1107 365 1107 365 1096.5 382 c 128,-1,63
 1086 399 1086 399 1075 417 c 1,64,65
 1094 452 1094 452 1114 490 c 128,-1,66
 1134 528 1134 528 1152 563 c 1,67,68
 1160 551 1160 551 1174 520 c 0,69,70
 1183 501 1183 501 1192 481.5 c 128,-1,71
 1201 462 1201 462 1210 442 c 1,72,-1
 1210 443 l 1,73,74
 1215 430 1215 430 1219 417 c 128,-1,75
 1223 404 1223 404 1228 391 c 0,76,77
 1232 377 1232 377 1236.5 362.5 c 128,-1,78
 1241 348 1241 348 1245 334 c 0,79,80
 1257 283 1257 283 1257 240 c 2,81,-1
 1257 201 l 1,10,-1
EndSplineSet
EndChar

